<?xml version="1.0" encoding="utf-8" standalone="no"?>
<!DOCTYPE svg PUBLIC "-//W3C//DTD SVG 1.1//EN"
  "http://www.w3.org/Graphics/SVG/1.1/DTD/svg11.dtd">
<!-- Created with matplotlib (https://matplotlib.org/) -->
<svg height="514.8pt" version="1.1" viewBox="0 0 748.8 514.8" width="748.8pt" xmlns="http://www.w3.org/2000/svg" xmlns:xlink="http://www.w3.org/1999/xlink">
 <defs>
  <style type="text/css">
*{stroke-linecap:butt;stroke-linejoin:round;}
  </style>
 </defs>
 <g id="figure_1">
  <g id="patch_1">
   <path d="M 0 514.8 
L 748.8 514.8 
L 748.8 0 
L 0 0 
z
" style="fill:#ffffff;"/>
  </g>
  <g id="axes_1">
   <g id="patch_2">
    <path d="M 93.6 450.45 
L 673.92 450.45 
L 673.92 61.776 
L 93.6 61.776 
z
" style="fill:#ffffff;"/>
   </g>
   <g id="matplotlib.axis_1">
    <g id="xtick_1">
     <g id="line2d_1">
      <defs>
       <path d="M 0 0 
L 0 3.5 
" id="mbf34383b35" style="stroke:#000000;stroke-width:1.3;"/>
      </defs>
      <g>
       <use style="stroke:#000000;stroke-width:1.3;" x="119.978182" xlink:href="#mbf34383b35" y="450.45"/>
      </g>
     </g>
     <g id="text_1">
      <!-- 0 -->
      <defs>
       <path d="M 31.78125 3.421875 
Q 39.265625 3.421875 42.96875 11.625 
Q 46.6875 19.828125 46.6875 36.375 
Q 46.6875 52.984375 42.96875 61.1875 
Q 39.265625 69.390625 31.78125 69.390625 
Q 24.3125 69.390625 20.59375 61.1875 
Q 16.890625 52.984375 16.890625 36.375 
Q 16.890625 19.828125 20.59375 11.625 
Q 24.3125 3.421875 31.78125 3.421875 
z
M 31.78125 -1.421875 
Q 19.921875 -1.421875 13.25 8.53125 
Q 6.59375 18.5 6.59375 36.375 
Q 6.59375 54.296875 13.25 64.25 
Q 19.921875 74.21875 31.78125 74.21875 
Q 43.703125 74.21875 50.34375 64.25 
Q 56.984375 54.296875 56.984375 36.375 
Q 56.984375 18.5 50.34375 8.53125 
Q 43.703125 -1.421875 31.78125 -1.421875 
z
" id="DejaVuSerif-48"/>
      </defs>
      <g transform="translate(115.842557 472.927969)scale(0.13 -0.13)">
       <use xlink:href="#DejaVuSerif-48"/>
      </g>
     </g>
    </g>
    <g id="xtick_2">
     <g id="line2d_2">
      <g>
       <use style="stroke:#000000;stroke-width:1.3;" x="225.490909" xlink:href="#mbf34383b35" y="450.45"/>
      </g>
     </g>
     <g id="text_2">
      <!-- 2 -->
      <defs>
       <path d="M 12.796875 55.515625 
L 7.328125 55.515625 
L 7.328125 68.5 
Q 12.546875 71.296875 17.84375 72.75 
Q 23.140625 74.21875 28.21875 74.21875 
Q 39.59375 74.21875 46.1875 68.703125 
Q 52.78125 63.1875 52.78125 53.71875 
Q 52.78125 43.015625 37.84375 28.125 
Q 36.671875 27 36.078125 26.421875 
L 17.671875 8.015625 
L 48.09375 8.015625 
L 48.09375 17 
L 53.8125 17 
L 53.8125 0 
L 6.78125 0 
L 6.78125 5.328125 
L 28.90625 27.390625 
Q 36.234375 34.71875 39.359375 40.84375 
Q 42.484375 46.96875 42.484375 53.71875 
Q 42.484375 61.078125 38.640625 65.234375 
Q 34.8125 69.390625 28.078125 69.390625 
Q 21.09375 69.390625 17.28125 65.921875 
Q 13.484375 62.453125 12.796875 55.515625 
z
" id="DejaVuSerif-50"/>
      </defs>
      <g transform="translate(221.355284 472.927969)scale(0.13 -0.13)">
       <use xlink:href="#DejaVuSerif-50"/>
      </g>
     </g>
    </g>
    <g id="xtick_3">
     <g id="line2d_3">
      <g>
       <use style="stroke:#000000;stroke-width:1.3;" x="331.003636" xlink:href="#mbf34383b35" y="450.45"/>
      </g>
     </g>
     <g id="text_3">
      <!-- 4 -->
      <defs>
       <path d="M 34.90625 24.703125 
L 34.90625 63.484375 
L 10.015625 24.703125 
z
M 56.390625 0 
L 23.1875 0 
L 23.1875 5.171875 
L 34.90625 5.171875 
L 34.90625 19.484375 
L 3.078125 19.484375 
L 3.078125 24.8125 
L 35.015625 74.21875 
L 44.671875 74.21875 
L 44.671875 24.703125 
L 58.59375 24.703125 
L 58.59375 19.484375 
L 44.671875 19.484375 
L 44.671875 5.171875 
L 56.390625 5.171875 
z
" id="DejaVuSerif-52"/>
      </defs>
      <g transform="translate(326.868011 472.927969)scale(0.13 -0.13)">
       <use xlink:href="#DejaVuSerif-52"/>
      </g>
     </g>
    </g>
    <g id="xtick_4">
     <g id="line2d_4">
      <g>
       <use style="stroke:#000000;stroke-width:1.3;" x="436.516364" xlink:href="#mbf34383b35" y="450.45"/>
      </g>
     </g>
     <g id="text_4">
      <!-- 6 -->
      <defs>
       <path d="M 32.71875 3.421875 
Q 39.59375 3.421875 43.296875 8.46875 
Q 47.015625 13.53125 47.015625 23 
Q 47.015625 32.46875 43.296875 37.515625 
Q 39.59375 42.578125 32.71875 42.578125 
Q 25.734375 42.578125 22.0625 37.6875 
Q 18.40625 32.8125 18.40625 23.578125 
Q 18.40625 13.875 22.109375 8.640625 
Q 25.828125 3.421875 32.71875 3.421875 
z
M 16.796875 40.140625 
Q 20.125 43.796875 24.3125 45.59375 
Q 28.515625 47.40625 33.796875 47.40625 
Q 44.671875 47.40625 51 40.859375 
Q 57.328125 34.328125 57.328125 23 
Q 57.328125 11.921875 50.515625 5.25 
Q 43.703125 -1.421875 32.328125 -1.421875 
Q 19.96875 -1.421875 13.328125 7.78125 
Q 6.6875 17 6.6875 34.078125 
Q 6.6875 53.21875 14.546875 63.71875 
Q 22.40625 74.21875 36.71875 74.21875 
Q 40.578125 74.21875 44.828125 73.484375 
Q 49.078125 72.75 53.515625 71.296875 
L 53.515625 59.28125 
L 48 59.28125 
Q 47.40625 64.203125 44.234375 66.796875 
Q 41.0625 69.390625 35.6875 69.390625 
Q 26.21875 69.390625 21.578125 62.203125 
Q 16.9375 55.03125 16.796875 40.140625 
z
" id="DejaVuSerif-54"/>
      </defs>
      <g transform="translate(432.380739 472.927969)scale(0.13 -0.13)">
       <use xlink:href="#DejaVuSerif-54"/>
      </g>
     </g>
    </g>
    <g id="xtick_5">
     <g id="line2d_5">
      <g>
       <use style="stroke:#000000;stroke-width:1.3;" x="542.029091" xlink:href="#mbf34383b35" y="450.45"/>
      </g>
     </g>
     <g id="text_5">
      <!-- 8 -->
      <defs>
       <path d="M 46.578125 19.921875 
Q 46.578125 27.734375 42.6875 32.046875 
Q 38.8125 36.375 31.78125 36.375 
Q 24.75 36.375 20.875 32.046875 
Q 17 27.734375 17 19.921875 
Q 17 12.0625 20.875 7.734375 
Q 24.75 3.421875 31.78125 3.421875 
Q 38.8125 3.421875 42.6875 7.734375 
Q 46.578125 12.0625 46.578125 19.921875 
z
M 44.578125 55.328125 
Q 44.578125 61.96875 41.203125 65.671875 
Q 37.84375 69.390625 31.78125 69.390625 
Q 25.78125 69.390625 22.390625 65.671875 
Q 19 61.96875 19 55.328125 
Q 19 48.640625 22.390625 44.921875 
Q 25.78125 41.21875 31.78125 41.21875 
Q 37.84375 41.21875 41.203125 44.921875 
Q 44.578125 48.640625 44.578125 55.328125 
z
M 39.3125 38.8125 
Q 47.609375 37.703125 52.25 32.6875 
Q 56.890625 27.6875 56.890625 19.921875 
Q 56.890625 9.671875 50.390625 4.125 
Q 43.890625 -1.421875 31.78125 -1.421875 
Q 19.734375 -1.421875 13.203125 4.125 
Q 6.6875 9.671875 6.6875 19.921875 
Q 6.6875 27.6875 11.328125 32.6875 
Q 15.96875 37.703125 24.3125 38.8125 
Q 16.9375 40.140625 13 44.40625 
Q 9.078125 48.6875 9.078125 55.328125 
Q 9.078125 64.109375 15.125 69.15625 
Q 21.1875 74.21875 31.78125 74.21875 
Q 42.390625 74.21875 48.4375 69.15625 
Q 54.5 64.109375 54.5 55.328125 
Q 54.5 48.6875 50.5625 44.40625 
Q 46.625 40.140625 39.3125 38.8125 
z
" id="DejaVuSerif-56"/>
      </defs>
      <g transform="translate(537.893466 472.927969)scale(0.13 -0.13)">
       <use xlink:href="#DejaVuSerif-56"/>
      </g>
     </g>
    </g>
    <g id="xtick_6">
     <g id="line2d_6">
      <g>
       <use style="stroke:#000000;stroke-width:1.3;" x="647.541818" xlink:href="#mbf34383b35" y="450.45"/>
      </g>
     </g>
     <g id="text_6">
      <!-- 10 -->
      <defs>
       <path d="M 14.203125 0 
L 14.203125 5.171875 
L 26.90625 5.171875 
L 26.90625 65.828125 
L 12.203125 56.296875 
L 12.203125 62.703125 
L 29.984375 74.21875 
L 36.71875 74.21875 
L 36.71875 5.171875 
L 49.421875 5.171875 
L 49.421875 0 
z
" id="DejaVuSerif-49"/>
      </defs>
      <g transform="translate(639.270568 472.927969)scale(0.13 -0.13)">
       <use xlink:href="#DejaVuSerif-49"/>
       <use x="63.623047" xlink:href="#DejaVuSerif-48"/>
      </g>
     </g>
    </g>
    <g id="text_7">
     <!-- Time, $t$ -->
     <defs>
      <path d="M 19.09375 0 
L 19.09375 5.171875 
L 28.421875 5.171875 
L 28.421875 67.09375 
L 6.984375 67.09375 
L 6.984375 55.71875 
L 0.984375 55.71875 
L 0.984375 72.90625 
L 65.71875 72.90625 
L 65.71875 55.71875 
L 59.71875 55.71875 
L 59.71875 67.09375 
L 38.28125 67.09375 
L 38.28125 5.171875 
L 47.609375 5.171875 
L 47.609375 0 
z
" id="DejaVuSerif-84"/>
      <path d="M 9.71875 68.015625 
Q 9.71875 70.265625 11.34375 71.921875 
Q 12.984375 73.578125 15.28125 73.578125 
Q 17.53125 73.578125 19.15625 71.921875 
Q 20.796875 70.265625 20.796875 68.015625 
Q 20.796875 65.71875 19.1875 64.109375 
Q 17.578125 62.5 15.28125 62.5 
Q 12.984375 62.5 11.34375 64.109375 
Q 9.71875 65.71875 9.71875 68.015625 
z
M 21.1875 5.171875 
L 29.6875 5.171875 
L 29.6875 0 
L 3.609375 0 
L 3.609375 5.171875 
L 12.203125 5.171875 
L 12.203125 46.6875 
L 3.609375 46.6875 
L 3.609375 51.90625 
L 21.1875 51.90625 
z
" id="DejaVuSerif-105"/>
      <path d="M 51.8125 41.796875 
Q 54.390625 47.515625 58.421875 50.421875 
Q 62.453125 53.328125 67.828125 53.328125 
Q 75.984375 53.328125 79.984375 48.265625 
Q 83.984375 43.21875 83.984375 33.015625 
L 83.984375 5.171875 
L 92.09375 5.171875 
L 92.09375 0 
L 67.1875 0 
L 67.1875 5.171875 
L 75 5.171875 
L 75 31.984375 
Q 75 39.9375 72.65625 43.3125 
Q 70.3125 46.6875 64.890625 46.6875 
Q 58.890625 46.6875 55.734375 42.140625 
Q 52.59375 37.59375 52.59375 28.90625 
L 52.59375 5.171875 
L 60.40625 5.171875 
L 60.40625 0 
L 35.796875 0 
L 35.796875 5.171875 
L 43.609375 5.171875 
L 43.609375 32.328125 
Q 43.609375 40.09375 41.265625 43.390625 
Q 38.921875 46.6875 33.5 46.6875 
Q 27.484375 46.6875 24.328125 42.140625 
Q 21.1875 37.59375 21.1875 28.90625 
L 21.1875 5.171875 
L 29 5.171875 
L 29 0 
L 4.109375 0 
L 4.109375 5.171875 
L 12.203125 5.171875 
L 12.203125 46.78125 
L 3.609375 46.78125 
L 3.609375 51.90625 
L 21.1875 51.90625 
L 21.1875 42.671875 
Q 23.6875 47.859375 27.53125 50.59375 
Q 31.390625 53.328125 36.28125 53.328125 
Q 42.328125 53.328125 46.375 50.3125 
Q 50.4375 47.3125 51.8125 41.796875 
z
" id="DejaVuSerif-109"/>
      <path d="M 54.203125 25 
L 15.484375 25 
L 15.484375 24.609375 
Q 15.484375 14.109375 19.4375 8.765625 
Q 23.390625 3.421875 31.109375 3.421875 
Q 37.015625 3.421875 40.796875 6.515625 
Q 44.578125 9.625 46.09375 15.71875 
L 53.328125 15.71875 
Q 51.171875 7.171875 45.375 2.875 
Q 39.59375 -1.421875 30.171875 -1.421875 
Q 18.796875 -1.421875 11.890625 6.078125 
Q 4.984375 13.578125 4.984375 25.984375 
Q 4.984375 38.28125 11.765625 45.796875 
Q 18.5625 53.328125 29.59375 53.328125 
Q 41.359375 53.328125 47.65625 46.0625 
Q 53.953125 38.8125 54.203125 25 
z
M 43.609375 30.171875 
Q 43.3125 39.265625 39.765625 43.875 
Q 36.234375 48.484375 29.59375 48.484375 
Q 23.390625 48.484375 19.828125 43.84375 
Q 16.265625 39.203125 15.484375 30.171875 
z
" id="DejaVuSerif-101"/>
      <path d="M 3.609375 -9.71875 
Q 8.203125 -6.34375 10.34375 -1.78125 
Q 12.5 2.78125 12.5 9.28125 
L 12.5 11.078125 
L 22.125 11.078125 
Q 21.734375 2.734375 18.1875 -3.25 
Q 14.65625 -9.234375 7.515625 -13.625 
z
" id="DejaVuSerif-44"/>
      <path id="DejaVuSerif-32"/>
      <path d="M 42.28125 54.6875 
L 40.921875 47.703125 
L 23 47.703125 
L 17.1875 18.015625 
Q 16.890625 16.359375 16.75 15.234375 
Q 16.609375 14.109375 16.609375 13.484375 
Q 16.609375 10.359375 18.484375 8.9375 
Q 20.359375 7.515625 24.515625 7.515625 
L 33.59375 7.515625 
L 32.078125 0 
L 23.484375 0 
Q 15.484375 0 11.546875 3.125 
Q 7.625 6.25 7.625 12.59375 
Q 7.625 13.71875 7.765625 15.0625 
Q 7.90625 16.40625 8.203125 18.015625 
L 14.015625 47.703125 
L 6.390625 47.703125 
L 7.8125 54.6875 
L 15.28125 54.6875 
L 18.3125 70.21875 
L 27.296875 70.21875 
L 24.3125 54.6875 
z
" id="DejaVuSans-Oblique-116"/>
     </defs>
     <g transform="translate(358.306 490.497328)scale(0.143 -0.143)">
      <use transform="translate(0 0.421875)" xlink:href="#DejaVuSerif-84"/>
      <use transform="translate(66.699219 0.421875)" xlink:href="#DejaVuSerif-105"/>
      <use transform="translate(98.681641 0.421875)" xlink:href="#DejaVuSerif-109"/>
      <use transform="translate(193.505859 0.421875)" xlink:href="#DejaVuSerif-101"/>
      <use transform="translate(252.685547 0.421875)" xlink:href="#DejaVuSerif-44"/>
      <use transform="translate(284.472656 0.421875)" xlink:href="#DejaVuSerif-32"/>
      <use transform="translate(316.259766 0.421875)" xlink:href="#DejaVuSans-Oblique-116"/>
     </g>
    </g>
   </g>
   <g id="matplotlib.axis_2">
    <g id="ytick_1">
     <g id="line2d_7">
      <defs>
       <path d="M 0 0 
L -3.5 0 
" id="m9250597b82" style="stroke:#000000;stroke-width:1.3;"/>
      </defs>
      <g>
       <use style="stroke:#000000;stroke-width:1.3;" x="93.6" xlink:href="#m9250597b82" y="432.783"/>
      </g>
     </g>
     <g id="text_8">
      <!-- 0.0 -->
      <defs>
       <path d="M 9.421875 5.078125 
Q 9.421875 7.8125 11.28125 9.71875 
Q 13.140625 11.625 15.921875 11.625 
Q 18.609375 11.625 20.5 9.71875 
Q 22.40625 7.8125 22.40625 5.078125 
Q 22.40625 2.390625 20.5 0.484375 
Q 18.609375 -1.421875 15.921875 -1.421875 
Q 13.140625 -1.421875 11.28125 0.453125 
Q 9.421875 2.34375 9.421875 5.078125 
z
" id="DejaVuSerif-46"/>
      </defs>
      <g transform="translate(60.325938 437.721984)scale(0.13 -0.13)">
       <use xlink:href="#DejaVuSerif-48"/>
       <use x="63.623047" xlink:href="#DejaVuSerif-46"/>
       <use x="95.410156" xlink:href="#DejaVuSerif-48"/>
      </g>
     </g>
    </g>
    <g id="ytick_2">
     <g id="line2d_8">
      <g>
       <use style="stroke:#000000;stroke-width:1.3;" x="93.6" xlink:href="#m9250597b82" y="362.135149"/>
      </g>
     </g>
     <g id="text_9">
      <!-- 0.2 -->
      <g transform="translate(60.325938 367.074134)scale(0.13 -0.13)">
       <use xlink:href="#DejaVuSerif-48"/>
       <use x="63.623047" xlink:href="#DejaVuSerif-46"/>
       <use x="95.410156" xlink:href="#DejaVuSerif-50"/>
      </g>
     </g>
    </g>
    <g id="ytick_3">
     <g id="line2d_9">
      <g>
       <use style="stroke:#000000;stroke-width:1.3;" x="93.6" xlink:href="#m9250597b82" y="291.487299"/>
      </g>
     </g>
     <g id="text_10">
      <!-- 0.4 -->
      <g transform="translate(60.325938 296.426283)scale(0.13 -0.13)">
       <use xlink:href="#DejaVuSerif-48"/>
       <use x="63.623047" xlink:href="#DejaVuSerif-46"/>
       <use x="95.410156" xlink:href="#DejaVuSerif-52"/>
      </g>
     </g>
    </g>
    <g id="ytick_4">
     <g id="line2d_10">
      <g>
       <use style="stroke:#000000;stroke-width:1.3;" x="93.6" xlink:href="#m9250597b82" y="220.839448"/>
      </g>
     </g>
     <g id="text_11">
      <!-- 0.6 -->
      <g transform="translate(60.325938 225.778433)scale(0.13 -0.13)">
       <use xlink:href="#DejaVuSerif-48"/>
       <use x="63.623047" xlink:href="#DejaVuSerif-46"/>
       <use x="95.410156" xlink:href="#DejaVuSerif-54"/>
      </g>
     </g>
    </g>
    <g id="ytick_5">
     <g id="line2d_11">
      <g>
       <use style="stroke:#000000;stroke-width:1.3;" x="93.6" xlink:href="#m9250597b82" y="150.191598"/>
      </g>
     </g>
     <g id="text_12">
      <!-- 0.8 -->
      <g transform="translate(60.325938 155.130582)scale(0.13 -0.13)">
       <use xlink:href="#DejaVuSerif-48"/>
       <use x="63.623047" xlink:href="#DejaVuSerif-46"/>
       <use x="95.410156" xlink:href="#DejaVuSerif-56"/>
      </g>
     </g>
    </g>
    <g id="ytick_6">
     <g id="line2d_12">
      <g>
       <use style="stroke:#000000;stroke-width:1.3;" x="93.6" xlink:href="#m9250597b82" y="79.543747"/>
      </g>
     </g>
     <g id="text_13">
      <!-- 1.0 -->
      <g transform="translate(60.325938 84.482731)scale(0.13 -0.13)">
       <use xlink:href="#DejaVuSerif-49"/>
       <use x="63.623047" xlink:href="#DejaVuSerif-46"/>
       <use x="95.410156" xlink:href="#DejaVuSerif-48"/>
      </g>
     </g>
    </g>
    <g id="text_14">
     <!-- Probability -->
     <defs>
      <path d="M 24.703125 37.109375 
L 37.59375 37.109375 
Q 44.875 37.109375 48.671875 41.03125 
Q 52.484375 44.96875 52.484375 52.390625 
Q 52.484375 59.859375 48.671875 63.765625 
Q 44.875 67.671875 37.59375 67.671875 
L 24.703125 67.671875 
z
M 5.515625 0 
L 5.515625 5.171875 
L 14.796875 5.171875 
L 14.796875 67.671875 
L 5.515625 67.671875 
L 5.515625 72.90625 
L 39.984375 72.90625 
Q 50.921875 72.90625 57.3125 67.359375 
Q 63.71875 61.8125 63.71875 52.390625 
Q 63.71875 43.015625 57.3125 37.453125 
Q 50.921875 31.890625 39.984375 31.890625 
L 24.703125 31.890625 
L 24.703125 5.171875 
L 35.984375 5.171875 
L 35.984375 0 
z
" id="DejaVuSerif-80"/>
      <path d="M 47.796875 52 
L 47.796875 39.015625 
L 42.625 39.015625 
Q 42.390625 42.875 40.484375 44.78125 
Q 38.578125 46.6875 34.90625 46.6875 
Q 28.265625 46.6875 24.71875 42.09375 
Q 21.1875 37.5 21.1875 28.90625 
L 21.1875 5.171875 
L 31.59375 5.171875 
L 31.59375 0 
L 4.109375 0 
L 4.109375 5.171875 
L 12.203125 5.171875 
L 12.203125 46.78125 
L 3.609375 46.78125 
L 3.609375 51.90625 
L 21.1875 51.90625 
L 21.1875 42.671875 
Q 23.828125 48.09375 27.96875 50.703125 
Q 32.125 53.328125 38.09375 53.328125 
Q 40.28125 53.328125 42.703125 52.984375 
Q 45.125 52.640625 47.796875 52 
z
" id="DejaVuSerif-114"/>
      <path d="M 30.078125 3.421875 
Q 37.3125 3.421875 40.984375 9.125 
Q 44.671875 14.84375 44.671875 25.984375 
Q 44.671875 37.109375 40.984375 42.796875 
Q 37.3125 48.484375 30.078125 48.484375 
Q 22.859375 48.484375 19.171875 42.796875 
Q 15.484375 37.109375 15.484375 25.984375 
Q 15.484375 14.84375 19.1875 9.125 
Q 22.90625 3.421875 30.078125 3.421875 
z
M 30.078125 -1.421875 
Q 18.75 -1.421875 11.859375 6.078125 
Q 4.984375 13.578125 4.984375 25.984375 
Q 4.984375 38.375 11.84375 45.84375 
Q 18.703125 53.328125 30.078125 53.328125 
Q 41.453125 53.328125 48.3125 45.84375 
Q 55.171875 38.375 55.171875 25.984375 
Q 55.171875 13.578125 48.3125 6.078125 
Q 41.453125 -1.421875 30.078125 -1.421875 
z
" id="DejaVuSerif-111"/>
      <path d="M 11.53125 5.171875 
L 11.53125 70.796875 
L 2.875 70.796875 
L 2.875 75.984375 
L 20.515625 75.984375 
L 20.515625 43.796875 
Q 23.140625 48.6875 27.21875 51 
Q 31.296875 53.328125 37.3125 53.328125 
Q 46.875 53.328125 52.921875 45.75 
Q 58.984375 38.1875 58.984375 25.984375 
Q 58.984375 13.765625 52.921875 6.171875 
Q 46.875 -1.421875 37.3125 -1.421875 
Q 31.296875 -1.421875 27.21875 0.890625 
Q 23.140625 3.21875 20.515625 8.109375 
L 20.515625 0 
L 2.875 0 
L 2.875 5.171875 
z
M 20.515625 23.390625 
Q 20.515625 14.015625 24.09375 9.109375 
Q 27.6875 4.203125 34.515625 4.203125 
Q 41.40625 4.203125 44.9375 9.71875 
Q 48.484375 15.234375 48.484375 25.984375 
Q 48.484375 36.765625 44.9375 42.234375 
Q 41.40625 47.703125 34.515625 47.703125 
Q 27.6875 47.703125 24.09375 42.765625 
Q 20.515625 37.84375 20.515625 28.515625 
z
" id="DejaVuSerif-98"/>
      <path d="M 39.796875 16.3125 
L 39.796875 27.296875 
L 28.21875 27.296875 
Q 21.53125 27.296875 18.25 24.40625 
Q 14.984375 21.53125 14.984375 15.578125 
Q 14.984375 10.15625 18.296875 6.984375 
Q 21.625 3.8125 27.296875 3.8125 
Q 32.90625 3.8125 36.34375 7.28125 
Q 39.796875 10.75 39.796875 16.3125 
z
M 48.78125 32.421875 
L 48.78125 5.171875 
L 56.78125 5.171875 
L 56.78125 0 
L 39.796875 0 
L 39.796875 5.609375 
Q 36.8125 2 32.90625 0.28125 
Q 29 -1.421875 23.78125 -1.421875 
Q 15.140625 -1.421875 10.0625 3.171875 
Q 4.984375 7.765625 4.984375 15.578125 
Q 4.984375 23.640625 10.796875 28.078125 
Q 16.609375 32.515625 27.203125 32.515625 
L 39.796875 32.515625 
L 39.796875 36.078125 
Q 39.796875 42 36.203125 45.234375 
Q 32.625 48.484375 26.125 48.484375 
Q 20.75 48.484375 17.578125 46.046875 
Q 14.40625 43.609375 13.625 38.8125 
L 8.984375 38.8125 
L 8.984375 49.3125 
Q 13.671875 51.3125 18.09375 52.3125 
Q 22.515625 53.328125 26.703125 53.328125 
Q 37.5 53.328125 43.140625 47.96875 
Q 48.78125 42.625 48.78125 32.421875 
z
" id="DejaVuSerif-97"/>
      <path d="M 20.515625 5.171875 
L 29 5.171875 
L 29 0 
L 2.875 0 
L 2.875 5.171875 
L 11.53125 5.171875 
L 11.53125 70.796875 
L 2.875 70.796875 
L 2.875 75.984375 
L 20.515625 75.984375 
z
" id="DejaVuSerif-108"/>
      <path d="M 10.796875 46.6875 
L 2.875 46.6875 
L 2.875 51.90625 
L 10.796875 51.90625 
L 10.796875 68.015625 
L 19.828125 68.015625 
L 19.828125 51.90625 
L 36.71875 51.90625 
L 36.71875 46.6875 
L 19.828125 46.6875 
L 19.828125 13.71875 
Q 19.828125 7.125 21.09375 5.265625 
Q 22.359375 3.421875 25.78125 3.421875 
Q 29.296875 3.421875 30.90625 5.484375 
Q 32.515625 7.5625 32.625 12.203125 
L 39.40625 12.203125 
Q 39.015625 5.125 35.546875 1.84375 
Q 32.078125 -1.421875 25 -1.421875 
Q 17.234375 -1.421875 14.015625 2.015625 
Q 10.796875 5.46875 10.796875 13.71875 
z
" id="DejaVuSerif-116"/>
      <path d="M 21.578125 -9.515625 
L 25 -0.875 
L 5.609375 46.6875 
L -0.296875 46.6875 
L -0.296875 51.90625 
L 23.578125 51.90625 
L 23.578125 46.6875 
L 15.28125 46.6875 
L 29.890625 10.984375 
L 44.484375 46.6875 
L 36.71875 46.6875 
L 36.71875 51.90625 
L 56.203125 51.90625 
L 56.203125 46.6875 
L 50.390625 46.6875 
L 26.609375 -11.71875 
Q 24.171875 -17.78125 21.1875 -20 
Q 18.21875 -22.21875 12.796875 -22.21875 
Q 10.5 -22.21875 8.078125 -21.828125 
Q 5.671875 -21.4375 3.21875 -20.703125 
L 3.21875 -10.796875 
L 7.8125 -10.796875 
Q 8.109375 -14.109375 9.5 -15.546875 
Q 10.890625 -17 13.8125 -17 
Q 16.5 -17 18.140625 -15.5 
Q 19.78125 -14.015625 21.578125 -9.515625 
z
" id="DejaVuSerif-121"/>
     </defs>
     <g transform="translate(53.148656 295.836836)rotate(-90)scale(0.143 -0.143)">
      <use xlink:href="#DejaVuSerif-80"/>
      <use x="67.285156" xlink:href="#DejaVuSerif-114"/>
      <use x="115.087891" xlink:href="#DejaVuSerif-111"/>
      <use x="175.292969" xlink:href="#DejaVuSerif-98"/>
      <use x="239.306641" xlink:href="#DejaVuSerif-97"/>
      <use x="298.925781" xlink:href="#DejaVuSerif-98"/>
      <use x="362.939453" xlink:href="#DejaVuSerif-105"/>
      <use x="394.921875" xlink:href="#DejaVuSerif-108"/>
      <use x="426.904297" xlink:href="#DejaVuSerif-105"/>
      <use x="458.886719" xlink:href="#DejaVuSerif-116"/>
      <use x="499.072266" xlink:href="#DejaVuSerif-121"/>
     </g>
    </g>
   </g>
   <g id="line2d_13">
    <path clip-path="url(#p67c4b0e8b9)" d="M 119.978182 79.543747 
L 121.562457 79.70298 
L 123.146732 80.180173 
L 124.731007 80.973833 
L 126.315283 82.081466 
L 127.899558 83.499588 
L 129.483833 85.223739 
L 131.068108 87.248531 
L 132.652383 89.56768 
L 134.76475 93.105309 
L 136.877117 97.134224 
L 138.989484 101.632634 
L 141.629943 107.878836 
L 144.270401 114.76938 
L 146.91086 122.248149 
L 150.07941 131.915418 
L 153.776052 144.012803 
L 158.000786 158.699742 
L 163.281704 177.957347 
L 181.764914 246.23763 
L 185.989648 260.709501 
L 190.214382 274.364886 
L 193.911024 285.530707 
L 197.079574 294.45577 
L 200.248124 302.740153 
L 203.416675 310.348618 
L 206.057133 316.146627 
L 208.697592 321.431262 
L 211.338051 326.186642 
L 213.450418 329.599955 
L 215.562785 332.658056 
L 217.675152 335.354287 
L 219.787518 337.682332 
L 221.899885 339.636172 
L 223.484161 340.8525 
L 225.068436 341.852724 
L 226.652711 342.63453 
L 228.236986 343.19564 
L 229.821261 343.533692 
L 231.405536 343.646249 
L 232.989812 343.531662 
L 234.574087 343.188485 
L 236.158362 342.615431 
L 237.742637 341.811399 
L 239.326912 340.77549 
L 240.911188 339.507031 
L 242.495463 338.005596 
L 244.60783 335.641042 
L 246.720197 332.862483 
L 248.832563 329.671326 
L 250.94493 326.070041 
L 253.057297 322.062227 
L 255.697756 316.488282 
L 258.338215 310.305097 
L 260.978673 303.534669 
L 263.619132 296.200999 
L 266.787682 286.698626 
L 269.956233 276.488159 
L 273.652875 263.777565 
L 277.877609 248.364314 
L 283.158526 228.115448 
L 301.641736 156.121756 
L 305.338378 142.992836 
L 308.506929 132.435787 
L 311.675479 122.641855 
L 314.315938 115.139543 
L 316.956396 108.295208 
L 319.596855 102.157326 
L 321.709222 97.784078 
L 323.821589 93.908275 
L 325.933956 90.545181 
L 327.518231 88.367213 
L 329.102506 86.489598 
L 330.686781 84.915913 
L 332.271057 83.648714 
L 333.855332 82.689527 
L 335.439607 82.038849 
L 337.023882 81.696148 
L 338.608157 81.659861 
L 340.192432 81.927405 
L 341.776708 82.495184 
L 343.360983 83.358599 
L 344.945258 84.512683 
L 346.529533 85.952462 
L 348.113808 87.671452 
L 349.698084 89.66256 
L 351.81045 92.727338 
L 353.922817 96.242512 
L 356.035184 100.186744 
L 358.675643 105.685369 
L 361.316102 111.770604 
L 363.95656 118.391617 
L 367.125111 126.97423 
L 370.821753 137.750218 
L 374.518395 149.209061 
L 379.27122 164.717917 
L 385.608321 186.293829 
L 403.035348 246.215782 
L 408.316265 263.33924 
L 412.540999 276.372475 
L 416.765733 288.673655 
L 420.462375 298.739331 
L 423.630925 306.782365 
L 426.799476 314.230132 
L 429.439934 319.943773 
L 432.080393 325.176625 
L 434.720852 329.89767 
L 436.833219 333.283885 
L 438.945586 336.306058 
L 441.057952 338.949537 
L 443.170319 341.200031 
L 444.754595 342.621683 
L 446.33887 343.808911 
L 447.923145 344.756347 
L 449.50742 345.458883 
L 451.091695 345.911701 
L 452.675971 346.110301 
L 454.260246 346.050536 
L 455.844521 345.728637 
L 457.428796 345.141244 
L 459.013071 344.285431 
L 460.597346 343.158827 
L 462.181622 341.76161 
L 463.765897 340.093738 
L 465.350172 338.155152 
L 467.462539 335.150612 
L 469.574906 331.670057 
L 471.687273 327.719932 
L 473.79964 323.309307 
L 475.912007 318.449932 
L 478.552465 311.767006 
L 481.192924 304.440246 
L 483.833382 296.511145 
L 487.001933 286.270076 
L 490.698575 273.438989 
L 494.923309 257.811497 
L 499.676134 239.327811 
L 509.181785 201.150961 
L 514.990794 178.27973 
L 519.215528 162.427072 
L 522.91217 149.354501 
L 526.080721 138.883217 
L 529.249271 129.193266 
L 531.88973 121.777245 
L 534.530188 115.005823 
L 537.170647 108.914954 
L 539.283014 104.553528 
L 541.395381 100.661233 
L 543.507748 97.248636 
L 545.620115 94.323462 
L 547.20439 92.452492 
L 548.788665 90.859493 
L 550.37294 89.544553 
L 551.957215 88.506859 
L 553.541491 87.744697 
L 555.125766 87.255464 
L 556.710041 87.035678 
L 558.294316 87.082338 
L 559.878591 87.392843 
L 561.462867 87.962547 
L 563.047142 88.786428 
L 564.631417 89.859124 
L 566.215692 91.174947 
L 567.799967 92.727896 
L 569.912334 95.156436 
L 572.024701 97.979617 
L 574.137068 101.180926 
L 576.249435 104.743107 
L 578.889894 109.675932 
L 581.530352 115.11124 
L 584.170811 121.015257 
L 587.339361 128.667554 
L 590.507912 136.881447 
L 594.204554 147.096028 
L 598.429287 159.494235 
L 603.182113 174.215126 
L 608.46303 191.314844 
L 615.856314 216.083362 
L 629.586699 262.277798 
L 634.867617 279.201726 
L 639.092351 292.041689 
L 642.788993 302.603616 
L 645.957543 311.050872 
L 647.541818 315.03635 
L 647.541818 315.03635 
" style="fill:none;stroke:#1f77b4;stroke-linecap:square;stroke-width:2.275;"/>
   </g>
   <g id="line2d_14">
    <path clip-path="url(#p67c4b0e8b9)" d="M 119.978182 432.783 
L 122.090549 432.641515 
L 124.202916 432.218193 
L 126.315283 431.516421 
L 128.427649 430.541786 
L 130.540016 429.301972 
L 132.652383 427.806771 
L 134.76475 426.067917 
L 137.405209 423.572348 
L 140.045667 420.746833 
L 142.686126 417.624102 
L 145.854676 413.534914 
L 149.551319 408.376944 
L 154.304144 401.299205 
L 161.697428 389.788851 
L 169.618804 377.571082 
L 174.37163 370.630724 
L 178.596364 364.829234 
L 182.293006 360.081142 
L 185.989648 355.66722 
L 189.68629 351.600361 
L 193.382932 347.883424 
L 197.079574 344.508389 
L 200.776216 341.455628 
L 204.472858 338.697244 
L 208.1695 336.224215 
L 211.866143 334.013802 
L 215.562785 332.047375 
L 219.259427 330.316636 
L 222.956069 328.824056 
L 226.652711 327.582955 
L 229.821261 326.737346 
L 232.989812 326.116368 
L 236.158362 325.73865 
L 238.798821 325.623883 
L 241.439279 325.704882 
L 244.079738 325.996373 
L 246.720197 326.51465 
L 249.360655 327.27753 
L 252.001114 328.304273 
L 254.641572 329.615432 
L 257.282031 331.225849 
L 259.92249 333.135084 
L 262.562948 335.350958 
L 265.203407 337.876712 
L 267.843866 340.710404 
L 270.484324 343.845174 
L 273.652875 347.987927 
L 276.821425 352.519935 
L 280.518067 358.251939 
L 284.214709 364.393833 
L 288.967535 372.73676 
L 297.417002 388.153941 
L 303.226011 398.555757 
L 307.450745 405.688235 
L 311.147387 411.474074 
L 314.315938 416.008626 
L 316.956396 419.441035 
L 319.596855 422.525117 
L 322.237314 425.233851 
L 324.349681 427.115432 
L 326.462048 428.73424 
L 328.574414 430.083837 
L 330.686781 431.159852 
L 332.799148 431.960305 
L 334.911515 432.485461 
L 337.023882 432.737705 
L 339.136249 432.721439 
L 341.248616 432.443001 
L 343.360983 431.910612 
L 345.47335 431.134111 
L 347.585717 430.124671 
L 349.698084 428.895113 
L 352.338542 427.070028 
L 354.979001 424.952153 
L 357.619459 422.57207 
L 360.78801 419.413804 
L 364.484652 415.380303 
L 368.709386 410.412493 
L 373.990303 403.841238 
L 384.024046 390.90329 
L 394.057789 378.079432 
L 401.979165 368.308481 
L 410.428632 358.248793 
L 418.8781 348.538934 
L 426.271384 340.366999 
L 431.552301 334.82389 
L 435.777035 330.668887 
L 439.473677 327.311325 
L 442.642228 324.686669 
L 445.810778 322.337743 
L 448.451237 320.62172 
L 451.091695 319.15326 
L 453.732154 317.960351 
L 455.844521 317.22426 
L 457.956888 316.699343 
L 460.069255 316.402156 
L 462.181622 316.342006 
L 464.293989 316.523018 
L 466.406355 316.955498 
L 468.518722 317.647357 
L 470.631089 318.604095 
L 472.743456 319.828833 
L 474.855823 321.322385 
L 476.96819 323.083345 
L 479.080557 325.108207 
L 481.721016 328.001886 
L 484.361474 331.284606 
L 487.001933 334.937502 
L 490.170483 339.765709 
L 493.339034 345.029143 
L 497.035676 351.642761 
L 501.26041 359.690529 
L 507.59751 372.338507 
L 516.046978 389.178718 
L 520.271712 397.145697 
L 523.968354 403.680592 
L 527.136904 408.875017 
L 530.305455 413.633284 
L 532.945913 417.229808 
L 535.586372 420.466358 
L 538.22683 423.328485 
L 540.867289 425.804322 
L 542.979656 427.502062 
L 545.092023 428.947102 
L 547.20439 430.140493 
L 549.316757 431.085116 
L 551.429124 431.785514 
L 553.541491 432.247735 
L 555.653857 432.479194 
L 557.766224 432.488511 
L 559.878591 432.284935 
L 561.990958 431.878643 
L 564.103325 431.280611 
L 566.743784 430.280945 
L 569.384242 429.022509 
L 572.024701 427.528016 
L 575.193251 425.453647 
L 578.361802 423.105247 
L 582.058444 420.059979 
L 585.755086 416.728192 
L 589.97982 412.616289 
L 594.732645 407.650624 
L 599.485471 402.356589 
L 604.238296 396.742913 
L 609.519214 390.138633 
L 614.800131 383.141081 
L 620.081048 375.757364 
L 625.890057 367.230956 
L 633.283342 355.933218 
L 645.957543 336.484699 
L 647.541818 334.167664 
L 647.541818 334.167664 
" style="fill:none;stroke:#ff7f0e;stroke-linecap:square;stroke-width:2.275;"/>
   </g>
   <g id="line2d_15">
    <path clip-path="url(#p67c4b0e8b9)" d="M 119.978182 432.783 
L 122.090549 432.641515 
L 124.202916 432.218193 
L 126.315283 431.516421 
L 128.427649 430.541786 
L 130.540016 429.301972 
L 132.652383 427.806771 
L 134.76475 426.067917 
L 137.405209 423.572348 
L 140.045667 420.746833 
L 142.686126 417.624102 
L 145.854676 413.534914 
L 149.551319 408.376944 
L 154.304144 401.299205 
L 161.697428 389.788851 
L 169.618804 377.571082 
L 174.37163 370.630724 
L 178.596364 364.829234 
L 182.293006 360.081142 
L 185.989648 355.66722 
L 189.68629 351.600361 
L 193.382932 347.883424 
L 197.079574 344.508389 
L 200.776216 341.455628 
L 204.472858 338.697244 
L 208.1695 336.224215 
L 211.866143 334.013802 
L 215.562785 332.047375 
L 219.259427 330.316636 
L 222.956069 328.824056 
L 226.652711 327.582955 
L 229.821261 326.737346 
L 232.989812 326.116368 
L 236.158362 325.73865 
L 238.798821 325.623883 
L 241.439279 325.704882 
L 244.079738 325.996373 
L 246.720197 326.51465 
L 249.360655 327.27753 
L 252.001114 328.304273 
L 254.641572 329.615432 
L 257.282031 331.225849 
L 259.92249 333.135084 
L 262.562948 335.350958 
L 265.203407 337.876712 
L 267.843866 340.710404 
L 270.484324 343.845174 
L 273.652875 347.987927 
L 276.821425 352.519935 
L 280.518067 358.251939 
L 284.214709 364.393833 
L 288.967535 372.73676 
L 297.417002 388.153941 
L 303.226011 398.555757 
L 307.450745 405.688235 
L 311.147387 411.474074 
L 314.315938 416.008626 
L 316.956396 419.441035 
L 319.596855 422.525117 
L 322.237314 425.233851 
L 324.349681 427.115432 
L 326.462048 428.73424 
L 328.574414 430.083837 
L 330.686781 431.159852 
L 332.799148 431.960305 
L 334.911515 432.485461 
L 337.023882 432.737705 
L 339.136249 432.721439 
L 341.248616 432.443001 
L 343.360983 431.910612 
L 345.47335 431.134111 
L 347.585717 430.124671 
L 349.698084 428.895113 
L 352.338542 427.070028 
L 354.979001 424.952153 
L 357.619459 422.57207 
L 360.78801 419.413804 
L 364.484652 415.380303 
L 368.709386 410.412493 
L 373.990303 403.841238 
L 384.024046 390.90329 
L 394.057789 378.079432 
L 401.979165 368.308481 
L 410.428632 358.248793 
L 418.8781 348.538934 
L 426.271384 340.366999 
L 431.552301 334.82389 
L 435.777035 330.668887 
L 439.473677 327.311325 
L 442.642228 324.686669 
L 445.810778 322.337743 
L 448.451237 320.62172 
L 451.091695 319.15326 
L 453.732154 317.960351 
L 455.844521 317.22426 
L 457.956888 316.699343 
L 460.069255 316.402156 
L 462.181622 316.342006 
L 464.293989 316.523018 
L 466.406355 316.955498 
L 468.518722 317.647357 
L 470.631089 318.604095 
L 472.743456 319.828833 
L 474.855823 321.322385 
L 476.96819 323.083345 
L 479.080557 325.108207 
L 481.721016 328.001886 
L 484.361474 331.284606 
L 487.001933 334.937502 
L 490.170483 339.765709 
L 493.339034 345.029143 
L 497.035676 351.642761 
L 501.26041 359.690529 
L 507.59751 372.338507 
L 516.046978 389.178718 
L 520.271712 397.145697 
L 523.968354 403.680592 
L 527.136904 408.875017 
L 530.305455 413.633284 
L 532.945913 417.229808 
L 535.586372 420.466358 
L 538.22683 423.328485 
L 540.867289 425.804322 
L 542.979656 427.502062 
L 545.092023 428.947102 
L 547.20439 430.140493 
L 549.316757 431.085116 
L 551.429124 431.785514 
L 553.541491 432.247735 
L 555.653857 432.479194 
L 557.766224 432.488511 
L 559.878591 432.284935 
L 561.990958 431.878643 
L 564.103325 431.280611 
L 566.743784 430.280945 
L 569.384242 429.022509 
L 572.024701 427.528016 
L 575.193251 425.453647 
L 578.361802 423.105247 
L 582.058444 420.059979 
L 585.755086 416.728192 
L 589.97982 412.616289 
L 594.732645 407.650624 
L 599.485471 402.356589 
L 604.238296 396.742913 
L 609.519214 390.138633 
L 614.800131 383.141081 
L 620.081048 375.757364 
L 625.890057 367.230956 
L 633.283342 355.933218 
L 645.957543 336.484699 
L 647.541818 334.167664 
L 647.541818 334.167664 
" style="fill:none;stroke:#2ca02c;stroke-dasharray:8.4175,3.64;stroke-dashoffset:0;stroke-width:2.275;"/>
   </g>
   <g id="line2d_16">
    <path clip-path="url(#p67c4b0e8b9)" d="M 119.978182 432.783 
L 133.708567 432.684647 
L 138.989484 432.430971 
L 143.214218 432.01902 
L 146.91086 431.443744 
L 150.07941 430.751673 
L 153.247961 429.845012 
L 156.416511 428.699039 
L 159.585061 427.295427 
L 162.753612 425.620906 
L 165.922162 423.670734 
L 169.090713 421.446639 
L 172.259263 418.958303 
L 175.955905 415.749284 
L 180.180639 411.748407 
L 185.461556 406.386727 
L 197.607666 393.896914 
L 201.304308 390.44675 
L 204.472858 387.764028 
L 207.641409 385.37787 
L 210.281867 383.662592 
L 212.922326 382.232146 
L 215.034693 381.31075 
L 217.14706 380.598227 
L 219.259427 380.100907 
L 221.371794 379.822007 
L 223.484161 379.762011 
L 225.596527 379.919183 
L 227.708894 380.290186 
L 229.821261 380.869838 
L 231.933628 381.646785 
L 234.574087 382.886703 
L 237.214545 384.414199 
L 239.855004 386.21243 
L 242.495463 388.25818 
L 245.664013 390.996952 
L 249.360655 394.500502 
L 255.169664 400.387663 
L 264.675315 410.036714 
L 268.900049 414.02 
L 272.596691 417.233921 
L 276.293333 420.134678 
L 279.461884 422.334453 
L 282.630434 424.244554 
L 285.798984 425.871225 
L 288.967535 427.221127 
L 292.136085 428.305052 
L 295.304636 429.142901 
L 298.473186 429.761062 
L 302.169828 430.246185 
L 306.394562 430.556281 
L 311.675479 430.690888 
L 320.653038 430.634449 
L 331.742965 430.624574 
L 344.945258 430.641042 
L 349.698084 430.398946 
L 353.394726 430.015299 
L 357.091368 429.404363 
L 360.259918 428.662961 
L 363.428468 427.69489 
L 366.597019 426.479897 
L 369.765569 425.005431 
L 372.93412 423.267522 
L 376.10267 421.267884 
L 379.27122 419.015959 
L 382.967862 416.097972 
L 387.192596 412.443941 
L 392.473514 407.535698 
L 404.091532 396.621938 
L 407.788174 393.472282 
L 411.484816 390.63647 
L 414.653366 388.514513 
L 417.293825 387.012434 
L 419.934283 385.784291 
L 422.04665 385.014102 
L 424.159017 384.441092 
L 426.271384 384.069589 
L 428.383751 383.900863 
L 430.496118 383.933494 
L 432.608485 384.163852 
L 434.720852 384.586503 
L 437.36131 385.374263 
L 440.001769 386.440888 
L 442.642228 387.774502 
L 445.282686 389.358607 
L 448.451237 391.5582 
L 451.619787 394.034721 
L 455.844521 397.653772 
L 472.743456 412.579098 
L 476.440098 415.408778 
L 479.608649 417.595889 
L 482.777199 419.530642 
L 485.945749 421.188317 
L 489.1143 422.562822 
L 492.28285 423.666162 
L 495.4514 424.502784 
L 498.619951 425.08803 
L 501.788501 425.446151 
L 505.485143 425.619297 
L 509.709877 425.570056 
L 515.518886 425.250561 
L 528.193088 424.452962 
L 533.474005 424.36488 
L 538.754922 424.49898 
L 545.092023 424.899961 
L 557.766224 425.796586 
L 561.990958 425.839893 
L 565.6876 425.666396 
L 568.856151 425.322704 
L 572.024701 424.769131 
L 575.193251 423.982795 
L 578.361802 422.950924 
L 581.530352 421.669874 
L 584.698903 420.140656 
L 587.867453 418.381053 
L 591.564095 416.068405 
L 595.788829 413.139748 
L 601.069746 409.185263 
L 612.159672 400.798824 
L 615.856314 398.321255 
L 619.024865 396.437028 
L 622.193415 394.818429 
L 624.833874 393.698538 
L 627.474333 392.80618 
L 630.114791 392.156213 
L 632.75525 391.763562 
L 635.395708 391.638595 
L 638.036167 391.785314 
L 640.676626 392.200286 
L 643.317084 392.87213 
L 645.957543 393.781536 
L 647.541818 394.430377 
L 647.541818 394.430377 
" style="fill:none;stroke:#d62728;stroke-linecap:square;stroke-width:2.275;"/>
   </g>
   <g id="line2d_17">
    <path clip-path="url(#p67c4b0e8b9)" d="M 119.978182 79.543747 
L 647.541818 79.453056 
L 647.541818 79.453056 
" style="fill:none;stroke:#9467bd;stroke-linecap:square;stroke-width:2.275;"/>
   </g>
   <g id="patch_3">
    <path d="M 93.6 450.45 
L 93.6 61.776 
" style="fill:none;stroke:#000000;stroke-linecap:square;stroke-linejoin:miter;stroke-width:0.8;"/>
   </g>
   <g id="patch_4">
    <path d="M 673.92 450.45 
L 673.92 61.776 
" style="fill:none;stroke:#000000;stroke-linecap:square;stroke-linejoin:miter;stroke-width:0.8;"/>
   </g>
   <g id="patch_5">
    <path d="M 93.6 450.45 
L 673.92 450.45 
" style="fill:none;stroke:#000000;stroke-linecap:square;stroke-linejoin:miter;stroke-width:0.8;"/>
   </g>
   <g id="patch_6">
    <path d="M 93.6 61.776 
L 673.92 61.776 
" style="fill:none;stroke:#000000;stroke-linecap:square;stroke-linejoin:miter;stroke-width:0.8;"/>
   </g>
   <g id="text_15">
    <!-- V=0.5 -->
    <defs>
     <path d="M 17.484375 67.671875 
L 39.015625 11.71875 
L 60.5 67.671875 
L 52.296875 67.671875 
L 52.296875 72.90625 
L 73.6875 72.90625 
L 73.6875 67.671875 
L 66.609375 67.671875 
L 40.578125 0 
L 32.171875 0 
L 6.296875 67.671875 
L -0.984375 67.671875 
L -0.984375 72.90625 
L 25.59375 72.90625 
L 25.59375 67.671875 
z
" id="DejaVuSerif-86"/>
     <path d="M 10.59375 45.21875 
L 73.1875 45.21875 
L 73.1875 37.40625 
L 10.59375 37.40625 
z
M 10.59375 25.296875 
L 73.1875 25.296875 
L 73.1875 17.484375 
L 10.59375 17.484375 
z
" id="DejaVuSerif-61"/>
     <path d="M 50.296875 72.90625 
L 50.296875 64.890625 
L 16.890625 64.890625 
L 16.890625 44 
Q 19.4375 45.75 22.828125 46.625 
Q 26.21875 47.515625 30.421875 47.515625 
Q 42.234375 47.515625 49.0625 40.96875 
Q 55.90625 34.421875 55.90625 23.09375 
Q 55.90625 11.53125 49 5.046875 
Q 42.09375 -1.421875 29.59375 -1.421875 
Q 24.5625 -1.421875 19.28125 -0.1875 
Q 14.015625 1.03125 8.5 3.515625 
L 8.5 17.671875 
L 14.015625 17.671875 
Q 14.453125 10.75 18.421875 7.078125 
Q 22.40625 3.421875 29.59375 3.421875 
Q 37.3125 3.421875 41.453125 8.5 
Q 45.609375 13.578125 45.609375 23.09375 
Q 45.609375 32.5625 41.484375 37.609375 
Q 37.359375 42.671875 29.59375 42.671875 
Q 25.203125 42.671875 21.84375 41.109375 
Q 18.5 39.546875 15.921875 36.28125 
L 11.71875 36.28125 
L 11.71875 72.90625 
z
" id="DejaVuSerif-53"/>
    </defs>
    <g style="opacity:0.75;" transform="translate(119.978182 256.163373)scale(0.18 -0.18)">
     <use xlink:href="#DejaVuSerif-86"/>
     <use x="72.216797" xlink:href="#DejaVuSerif-61"/>
     <use x="156.005859" xlink:href="#DejaVuSerif-48"/>
     <use x="219.628906" xlink:href="#DejaVuSerif-46"/>
     <use x="251.416016" xlink:href="#DejaVuSerif-53"/>
    </g>
   </g>
   <g id="legend_1">
    <g id="line2d_18">
     <path d="M 129.633359 22.4549 
L 155.633359 22.4549 
" style="fill:none;stroke:#1f77b4;stroke-linecap:square;stroke-width:2.275;"/>
    </g>
    <g id="line2d_19"/>
    <g id="text_16">
     <!-- $|c_{11}|^2$ -->
     <defs>
      <path d="M 21 76.421875 
L 21 -23.578125 
L 12.703125 -23.578125 
L 12.703125 76.421875 
z
" id="DejaVuSans-124"/>
      <path d="M 53.609375 52.59375 
L 51.8125 43.703125 
Q 48.578125 46.046875 44.9375 47.21875 
Q 41.3125 48.390625 37.40625 48.390625 
Q 33.109375 48.390625 29.21875 46.875 
Q 25.34375 45.359375 22.703125 42.578125 
Q 18.5 38.328125 16.203125 32.609375 
Q 13.921875 26.90625 13.921875 20.796875 
Q 13.921875 13.421875 17.609375 9.8125 
Q 21.296875 6.203125 28.8125 6.203125 
Q 32.515625 6.203125 36.6875 7.328125 
Q 40.875 8.453125 45.40625 10.6875 
L 43.703125 1.8125 
Q 39.796875 0.203125 35.671875 -0.609375 
Q 31.546875 -1.421875 27.203125 -1.421875 
Q 16.3125 -1.421875 10.453125 4.015625 
Q 4.59375 9.46875 4.59375 19.578125 
Q 4.59375 28.078125 7.640625 35.234375 
Q 10.6875 42.390625 16.703125 48.09375 
Q 20.796875 52 26.3125 54 
Q 31.84375 56 38.375 56 
Q 42.1875 56 45.9375 55.140625 
Q 49.703125 54.296875 53.609375 52.59375 
z
" id="DejaVuSans-Oblique-99"/>
      <path d="M 12.40625 8.296875 
L 28.515625 8.296875 
L 28.515625 63.921875 
L 10.984375 60.40625 
L 10.984375 69.390625 
L 28.421875 72.90625 
L 38.28125 72.90625 
L 38.28125 8.296875 
L 54.390625 8.296875 
L 54.390625 0 
L 12.40625 0 
z
" id="DejaVuSans-49"/>
      <path d="M 19.1875 8.296875 
L 53.609375 8.296875 
L 53.609375 0 
L 7.328125 0 
L 7.328125 8.296875 
Q 12.9375 14.109375 22.625 23.890625 
Q 32.328125 33.6875 34.8125 36.53125 
Q 39.546875 41.84375 41.421875 45.53125 
Q 43.3125 49.21875 43.3125 52.78125 
Q 43.3125 58.59375 39.234375 62.25 
Q 35.15625 65.921875 28.609375 65.921875 
Q 23.96875 65.921875 18.8125 64.3125 
Q 13.671875 62.703125 7.8125 59.421875 
L 7.8125 69.390625 
Q 13.765625 71.78125 18.9375 73 
Q 24.125 74.21875 28.421875 74.21875 
Q 39.75 74.21875 46.484375 68.546875 
Q 53.21875 62.890625 53.21875 53.421875 
Q 53.21875 48.921875 51.53125 44.890625 
Q 49.859375 40.875 45.40625 35.40625 
Q 44.1875 33.984375 37.640625 27.21875 
Q 31.109375 20.453125 19.1875 8.296875 
z
" id="DejaVuSans-50"/>
     </defs>
     <g transform="translate(166.033359 27.0049)scale(0.13 -0.13)">
      <use transform="translate(0 0.765625)" xlink:href="#DejaVuSans-124"/>
      <use transform="translate(33.691406 0.765625)" xlink:href="#DejaVuSans-Oblique-99"/>
      <use transform="translate(88.671875 -15.640625)scale(0.7)" xlink:href="#DejaVuSans-49"/>
      <use transform="translate(133.208008 -15.640625)scale(0.7)" xlink:href="#DejaVuSans-49"/>
      <use transform="translate(180.478516 0.765625)" xlink:href="#DejaVuSans-124"/>
      <use transform="translate(215.126953 39.046875)scale(0.7)" xlink:href="#DejaVuSans-50"/>
     </g>
    </g>
    <g id="line2d_20">
     <path d="M 226.223359 22.4549 
L 252.223359 22.4549 
" style="fill:none;stroke:#ff7f0e;stroke-linecap:square;stroke-width:2.275;"/>
    </g>
    <g id="line2d_21"/>
    <g id="text_17">
     <!-- $|c_{1r}|^2$ -->
     <defs>
      <path d="M 44.578125 46.390625 
Q 43.21875 47.125 41.453125 47.515625 
Q 39.703125 47.90625 37.703125 47.90625 
Q 30.515625 47.90625 25.140625 42.453125 
Q 19.78125 37.015625 18.015625 27.875 
L 12.5 0 
L 3.515625 0 
L 14.203125 54.6875 
L 23.1875 54.6875 
L 21.484375 46.1875 
Q 25.046875 50.921875 30 53.453125 
Q 34.96875 56 40.578125 56 
Q 42.046875 56 43.453125 55.828125 
Q 44.875 55.671875 46.296875 55.28125 
z
" id="DejaVuSans-Oblique-114"/>
     </defs>
     <g transform="translate(262.623359 27.0049)scale(0.13 -0.13)">
      <use transform="translate(0 0.765625)" xlink:href="#DejaVuSans-124"/>
      <use transform="translate(33.691406 0.765625)" xlink:href="#DejaVuSans-Oblique-99"/>
      <use transform="translate(88.671875 -15.640625)scale(0.7)" xlink:href="#DejaVuSans-49"/>
      <use transform="translate(133.208008 -15.640625)scale(0.7)" xlink:href="#DejaVuSans-Oblique-114"/>
      <use transform="translate(164.72168 0.765625)" xlink:href="#DejaVuSans-124"/>
      <use transform="translate(199.370117 39.046875)scale(0.7)" xlink:href="#DejaVuSans-50"/>
     </g>
    </g>
    <g id="line2d_22">
     <path d="M 320.733359 22.4549 
L 346.733359 22.4549 
" style="fill:none;stroke:#2ca02c;stroke-dasharray:8.4175,3.64;stroke-dashoffset:0;stroke-width:2.275;"/>
    </g>
    <g id="line2d_23"/>
    <g id="text_18">
     <!-- $|c_{r1}|^2$ -->
     <g transform="translate(357.133359 27.0049)scale(0.13 -0.13)">
      <use transform="translate(0 0.765625)" xlink:href="#DejaVuSans-124"/>
      <use transform="translate(33.691406 0.765625)" xlink:href="#DejaVuSans-Oblique-99"/>
      <use transform="translate(88.671875 -15.640625)scale(0.7)" xlink:href="#DejaVuSans-Oblique-114"/>
      <use transform="translate(117.451172 -15.640625)scale(0.7)" xlink:href="#DejaVuSans-49"/>
      <use transform="translate(164.72168 0.765625)" xlink:href="#DejaVuSans-124"/>
      <use transform="translate(199.370117 39.046875)scale(0.7)" xlink:href="#DejaVuSans-50"/>
     </g>
    </g>
    <g id="line2d_24">
     <path d="M 415.243359 22.4549 
L 441.243359 22.4549 
" style="fill:none;stroke:#d62728;stroke-linecap:square;stroke-width:2.275;"/>
    </g>
    <g id="line2d_25"/>
    <g id="text_19">
     <!-- $|c_{rr}|^2$ -->
     <g transform="translate(451.643359 27.0049)scale(0.13 -0.13)">
      <use transform="translate(0 0.765625)" xlink:href="#DejaVuSans-124"/>
      <use transform="translate(33.691406 0.765625)" xlink:href="#DejaVuSans-Oblique-99"/>
      <use transform="translate(88.671875 -15.640625)scale(0.7)" xlink:href="#DejaVuSans-Oblique-114"/>
      <use transform="translate(117.451172 -15.640625)scale(0.7)" xlink:href="#DejaVuSans-Oblique-114"/>
      <use transform="translate(148.964844 0.765625)" xlink:href="#DejaVuSans-124"/>
      <use transform="translate(183.613281 39.046875)scale(0.7)" xlink:href="#DejaVuSans-50"/>
     </g>
    </g>
    <g id="line2d_26">
     <path d="M 507.673359 22.4549 
L 533.673359 22.4549 
" style="fill:none;stroke:#9467bd;stroke-linecap:square;stroke-width:2.275;"/>
    </g>
    <g id="line2d_27"/>
    <g id="text_20">
     <!-- Normalisation -->
     <defs>
      <path d="M 4.890625 0 
L 4.890625 5.171875 
L 14.703125 5.171875 
L 14.703125 67.671875 
L 4.890625 67.671875 
L 4.890625 72.90625 
L 23.578125 72.90625 
L 67.28125 15.375 
L 67.28125 67.671875 
L 57.515625 67.671875 
L 57.515625 72.90625 
L 83.109375 72.90625 
L 83.109375 67.671875 
L 73.296875 67.671875 
L 73.296875 -1.421875 
L 67.390625 -1.421875 
L 20.703125 60.015625 
L 20.703125 5.171875 
L 30.515625 5.171875 
L 30.515625 0 
z
" id="DejaVuSerif-78"/>
      <path d="M 5.609375 2.875 
L 5.609375 14.984375 
L 10.796875 14.984375 
Q 10.984375 9.1875 14.421875 6.296875 
Q 17.875 3.421875 24.609375 3.421875 
Q 30.671875 3.421875 33.84375 5.6875 
Q 37.015625 7.953125 37.015625 12.3125 
Q 37.015625 15.71875 34.6875 17.8125 
Q 32.375 19.921875 24.90625 22.3125 
L 18.40625 24.515625 
Q 11.71875 26.65625 8.71875 29.875 
Q 5.71875 33.109375 5.71875 38.09375 
Q 5.71875 45.21875 10.9375 49.265625 
Q 16.15625 53.328125 25.390625 53.328125 
Q 29.5 53.328125 34.03125 52.25 
Q 38.578125 51.171875 43.40625 49.125 
L 43.40625 37.796875 
L 38.234375 37.796875 
Q 38.03125 42.828125 34.703125 45.65625 
Q 31.390625 48.484375 25.6875 48.484375 
Q 20.015625 48.484375 17.109375 46.484375 
Q 14.203125 44.484375 14.203125 40.484375 
Q 14.203125 37.203125 16.40625 35.21875 
Q 18.609375 33.25 25.203125 31.203125 
L 32.328125 29 
Q 39.703125 26.703125 42.9375 23.265625 
Q 46.1875 19.828125 46.1875 14.40625 
Q 46.1875 7.03125 40.546875 2.796875 
Q 34.90625 -1.421875 25 -1.421875 
Q 19.96875 -1.421875 15.1875 -0.34375 
Q 10.40625 0.734375 5.609375 2.875 
z
" id="DejaVuSerif-115"/>
      <path d="M 4.109375 0 
L 4.109375 5.171875 
L 12.203125 5.171875 
L 12.203125 46.6875 
L 3.609375 46.6875 
L 3.609375 51.90625 
L 21.1875 51.90625 
L 21.1875 42.671875 
Q 23.6875 47.953125 27.65625 50.640625 
Q 31.640625 53.328125 36.921875 53.328125 
Q 45.515625 53.328125 49.5625 48.390625 
Q 53.609375 43.453125 53.609375 33.015625 
L 53.609375 5.171875 
L 61.625 5.171875 
L 61.625 0 
L 36.8125 0 
L 36.8125 5.171875 
L 44.578125 5.171875 
L 44.578125 30.171875 
Q 44.578125 39.703125 42.234375 43.234375 
Q 39.890625 46.78125 33.984375 46.78125 
Q 27.734375 46.78125 24.453125 42.203125 
Q 21.1875 37.640625 21.1875 28.90625 
L 21.1875 5.171875 
L 29 5.171875 
L 29 0 
z
" id="DejaVuSerif-110"/>
     </defs>
     <g transform="translate(544.073359 27.0049)scale(0.13 -0.13)">
      <use xlink:href="#DejaVuSerif-78"/>
      <use x="87.5" xlink:href="#DejaVuSerif-111"/>
      <use x="147.705078" xlink:href="#DejaVuSerif-114"/>
      <use x="195.507812" xlink:href="#DejaVuSerif-109"/>
      <use x="290.332031" xlink:href="#DejaVuSerif-97"/>
      <use x="349.951172" xlink:href="#DejaVuSerif-108"/>
      <use x="381.933594" xlink:href="#DejaVuSerif-105"/>
      <use x="413.916016" xlink:href="#DejaVuSerif-115"/>
      <use x="465.234375" xlink:href="#DejaVuSerif-97"/>
      <use x="524.853516" xlink:href="#DejaVuSerif-116"/>
      <use x="565.039062" xlink:href="#DejaVuSerif-105"/>
      <use x="597.021484" xlink:href="#DejaVuSerif-111"/>
      <use x="657.226562" xlink:href="#DejaVuSerif-110"/>
     </g>
    </g>
   </g>
  </g>
 </g>
 <defs>
  <clipPath id="p67c4b0e8b9">
   <rect height="388.674" width="580.32" x="93.6" y="61.776"/>
  </clipPath>
 </defs>
</svg>
