<?xml version="1.0" encoding="utf-8" standalone="no"?>
<!DOCTYPE svg PUBLIC "-//W3C//DTD SVG 1.1//EN"
  "http://www.w3.org/Graphics/SVG/1.1/DTD/svg11.dtd">
<!-- Created with matplotlib (https://matplotlib.org/) -->
<svg height="514.8pt" version="1.1" viewBox="0 0 748.8 514.8" width="748.8pt" xmlns="http://www.w3.org/2000/svg" xmlns:xlink="http://www.w3.org/1999/xlink">
 <defs>
  <style type="text/css">
*{stroke-linecap:butt;stroke-linejoin:round;}
  </style>
 </defs>
 <g id="figure_1">
  <g id="patch_1">
   <path d="M 0 514.8 
L 748.8 514.8 
L 748.8 0 
L 0 0 
z
" style="fill:#ffffff;"/>
  </g>
  <g id="axes_1">
   <g id="patch_2">
    <path d="M 93.6 450.45 
L 673.92 450.45 
L 673.92 61.776 
L 93.6 61.776 
z
" style="fill:#ffffff;"/>
   </g>
   <g id="matplotlib.axis_1">
    <g id="xtick_1">
     <g id="line2d_1">
      <defs>
       <path d="M 0 0 
L 0 3.5 
" id="m9d1ee82c19" style="stroke:#000000;stroke-width:1.3;"/>
      </defs>
      <g>
       <use style="stroke:#000000;stroke-width:1.3;" x="119.978182" xlink:href="#m9d1ee82c19" y="450.45"/>
      </g>
     </g>
     <g id="text_1">
      <!-- 0 -->
      <defs>
       <path d="M 31.78125 3.421875 
Q 39.265625 3.421875 42.96875 11.625 
Q 46.6875 19.828125 46.6875 36.375 
Q 46.6875 52.984375 42.96875 61.1875 
Q 39.265625 69.390625 31.78125 69.390625 
Q 24.3125 69.390625 20.59375 61.1875 
Q 16.890625 52.984375 16.890625 36.375 
Q 16.890625 19.828125 20.59375 11.625 
Q 24.3125 3.421875 31.78125 3.421875 
z
M 31.78125 -1.421875 
Q 19.921875 -1.421875 13.25 8.53125 
Q 6.59375 18.5 6.59375 36.375 
Q 6.59375 54.296875 13.25 64.25 
Q 19.921875 74.21875 31.78125 74.21875 
Q 43.703125 74.21875 50.34375 64.25 
Q 56.984375 54.296875 56.984375 36.375 
Q 56.984375 18.5 50.34375 8.53125 
Q 43.703125 -1.421875 31.78125 -1.421875 
z
" id="DejaVuSerif-48"/>
      </defs>
      <g transform="translate(115.842557 472.927969)scale(0.13 -0.13)">
       <use xlink:href="#DejaVuSerif-48"/>
      </g>
     </g>
    </g>
    <g id="xtick_2">
     <g id="line2d_2">
      <g>
       <use style="stroke:#000000;stroke-width:1.3;" x="225.490909" xlink:href="#m9d1ee82c19" y="450.45"/>
      </g>
     </g>
     <g id="text_2">
      <!-- 2 -->
      <defs>
       <path d="M 12.796875 55.515625 
L 7.328125 55.515625 
L 7.328125 68.5 
Q 12.546875 71.296875 17.84375 72.75 
Q 23.140625 74.21875 28.21875 74.21875 
Q 39.59375 74.21875 46.1875 68.703125 
Q 52.78125 63.1875 52.78125 53.71875 
Q 52.78125 43.015625 37.84375 28.125 
Q 36.671875 27 36.078125 26.421875 
L 17.671875 8.015625 
L 48.09375 8.015625 
L 48.09375 17 
L 53.8125 17 
L 53.8125 0 
L 6.78125 0 
L 6.78125 5.328125 
L 28.90625 27.390625 
Q 36.234375 34.71875 39.359375 40.84375 
Q 42.484375 46.96875 42.484375 53.71875 
Q 42.484375 61.078125 38.640625 65.234375 
Q 34.8125 69.390625 28.078125 69.390625 
Q 21.09375 69.390625 17.28125 65.921875 
Q 13.484375 62.453125 12.796875 55.515625 
z
" id="DejaVuSerif-50"/>
      </defs>
      <g transform="translate(221.355284 472.927969)scale(0.13 -0.13)">
       <use xlink:href="#DejaVuSerif-50"/>
      </g>
     </g>
    </g>
    <g id="xtick_3">
     <g id="line2d_3">
      <g>
       <use style="stroke:#000000;stroke-width:1.3;" x="331.003636" xlink:href="#m9d1ee82c19" y="450.45"/>
      </g>
     </g>
     <g id="text_3">
      <!-- 4 -->
      <defs>
       <path d="M 34.90625 24.703125 
L 34.90625 63.484375 
L 10.015625 24.703125 
z
M 56.390625 0 
L 23.1875 0 
L 23.1875 5.171875 
L 34.90625 5.171875 
L 34.90625 19.484375 
L 3.078125 19.484375 
L 3.078125 24.8125 
L 35.015625 74.21875 
L 44.671875 74.21875 
L 44.671875 24.703125 
L 58.59375 24.703125 
L 58.59375 19.484375 
L 44.671875 19.484375 
L 44.671875 5.171875 
L 56.390625 5.171875 
z
" id="DejaVuSerif-52"/>
      </defs>
      <g transform="translate(326.868011 472.927969)scale(0.13 -0.13)">
       <use xlink:href="#DejaVuSerif-52"/>
      </g>
     </g>
    </g>
    <g id="xtick_4">
     <g id="line2d_4">
      <g>
       <use style="stroke:#000000;stroke-width:1.3;" x="436.516364" xlink:href="#m9d1ee82c19" y="450.45"/>
      </g>
     </g>
     <g id="text_4">
      <!-- 6 -->
      <defs>
       <path d="M 32.71875 3.421875 
Q 39.59375 3.421875 43.296875 8.46875 
Q 47.015625 13.53125 47.015625 23 
Q 47.015625 32.46875 43.296875 37.515625 
Q 39.59375 42.578125 32.71875 42.578125 
Q 25.734375 42.578125 22.0625 37.6875 
Q 18.40625 32.8125 18.40625 23.578125 
Q 18.40625 13.875 22.109375 8.640625 
Q 25.828125 3.421875 32.71875 3.421875 
z
M 16.796875 40.140625 
Q 20.125 43.796875 24.3125 45.59375 
Q 28.515625 47.40625 33.796875 47.40625 
Q 44.671875 47.40625 51 40.859375 
Q 57.328125 34.328125 57.328125 23 
Q 57.328125 11.921875 50.515625 5.25 
Q 43.703125 -1.421875 32.328125 -1.421875 
Q 19.96875 -1.421875 13.328125 7.78125 
Q 6.6875 17 6.6875 34.078125 
Q 6.6875 53.21875 14.546875 63.71875 
Q 22.40625 74.21875 36.71875 74.21875 
Q 40.578125 74.21875 44.828125 73.484375 
Q 49.078125 72.75 53.515625 71.296875 
L 53.515625 59.28125 
L 48 59.28125 
Q 47.40625 64.203125 44.234375 66.796875 
Q 41.0625 69.390625 35.6875 69.390625 
Q 26.21875 69.390625 21.578125 62.203125 
Q 16.9375 55.03125 16.796875 40.140625 
z
" id="DejaVuSerif-54"/>
      </defs>
      <g transform="translate(432.380739 472.927969)scale(0.13 -0.13)">
       <use xlink:href="#DejaVuSerif-54"/>
      </g>
     </g>
    </g>
    <g id="xtick_5">
     <g id="line2d_5">
      <g>
       <use style="stroke:#000000;stroke-width:1.3;" x="542.029091" xlink:href="#m9d1ee82c19" y="450.45"/>
      </g>
     </g>
     <g id="text_5">
      <!-- 8 -->
      <defs>
       <path d="M 46.578125 19.921875 
Q 46.578125 27.734375 42.6875 32.046875 
Q 38.8125 36.375 31.78125 36.375 
Q 24.75 36.375 20.875 32.046875 
Q 17 27.734375 17 19.921875 
Q 17 12.0625 20.875 7.734375 
Q 24.75 3.421875 31.78125 3.421875 
Q 38.8125 3.421875 42.6875 7.734375 
Q 46.578125 12.0625 46.578125 19.921875 
z
M 44.578125 55.328125 
Q 44.578125 61.96875 41.203125 65.671875 
Q 37.84375 69.390625 31.78125 69.390625 
Q 25.78125 69.390625 22.390625 65.671875 
Q 19 61.96875 19 55.328125 
Q 19 48.640625 22.390625 44.921875 
Q 25.78125 41.21875 31.78125 41.21875 
Q 37.84375 41.21875 41.203125 44.921875 
Q 44.578125 48.640625 44.578125 55.328125 
z
M 39.3125 38.8125 
Q 47.609375 37.703125 52.25 32.6875 
Q 56.890625 27.6875 56.890625 19.921875 
Q 56.890625 9.671875 50.390625 4.125 
Q 43.890625 -1.421875 31.78125 -1.421875 
Q 19.734375 -1.421875 13.203125 4.125 
Q 6.6875 9.671875 6.6875 19.921875 
Q 6.6875 27.6875 11.328125 32.6875 
Q 15.96875 37.703125 24.3125 38.8125 
Q 16.9375 40.140625 13 44.40625 
Q 9.078125 48.6875 9.078125 55.328125 
Q 9.078125 64.109375 15.125 69.15625 
Q 21.1875 74.21875 31.78125 74.21875 
Q 42.390625 74.21875 48.4375 69.15625 
Q 54.5 64.109375 54.5 55.328125 
Q 54.5 48.6875 50.5625 44.40625 
Q 46.625 40.140625 39.3125 38.8125 
z
" id="DejaVuSerif-56"/>
      </defs>
      <g transform="translate(537.893466 472.927969)scale(0.13 -0.13)">
       <use xlink:href="#DejaVuSerif-56"/>
      </g>
     </g>
    </g>
    <g id="xtick_6">
     <g id="line2d_6">
      <g>
       <use style="stroke:#000000;stroke-width:1.3;" x="647.541818" xlink:href="#m9d1ee82c19" y="450.45"/>
      </g>
     </g>
     <g id="text_6">
      <!-- 10 -->
      <defs>
       <path d="M 14.203125 0 
L 14.203125 5.171875 
L 26.90625 5.171875 
L 26.90625 65.828125 
L 12.203125 56.296875 
L 12.203125 62.703125 
L 29.984375 74.21875 
L 36.71875 74.21875 
L 36.71875 5.171875 
L 49.421875 5.171875 
L 49.421875 0 
z
" id="DejaVuSerif-49"/>
      </defs>
      <g transform="translate(639.270568 472.927969)scale(0.13 -0.13)">
       <use xlink:href="#DejaVuSerif-49"/>
       <use x="63.623047" xlink:href="#DejaVuSerif-48"/>
      </g>
     </g>
    </g>
    <g id="text_7">
     <!-- Time, $t$ -->
     <defs>
      <path d="M 19.09375 0 
L 19.09375 5.171875 
L 28.421875 5.171875 
L 28.421875 67.09375 
L 6.984375 67.09375 
L 6.984375 55.71875 
L 0.984375 55.71875 
L 0.984375 72.90625 
L 65.71875 72.90625 
L 65.71875 55.71875 
L 59.71875 55.71875 
L 59.71875 67.09375 
L 38.28125 67.09375 
L 38.28125 5.171875 
L 47.609375 5.171875 
L 47.609375 0 
z
" id="DejaVuSerif-84"/>
      <path d="M 9.71875 68.015625 
Q 9.71875 70.265625 11.34375 71.921875 
Q 12.984375 73.578125 15.28125 73.578125 
Q 17.53125 73.578125 19.15625 71.921875 
Q 20.796875 70.265625 20.796875 68.015625 
Q 20.796875 65.71875 19.1875 64.109375 
Q 17.578125 62.5 15.28125 62.5 
Q 12.984375 62.5 11.34375 64.109375 
Q 9.71875 65.71875 9.71875 68.015625 
z
M 21.1875 5.171875 
L 29.6875 5.171875 
L 29.6875 0 
L 3.609375 0 
L 3.609375 5.171875 
L 12.203125 5.171875 
L 12.203125 46.6875 
L 3.609375 46.6875 
L 3.609375 51.90625 
L 21.1875 51.90625 
z
" id="DejaVuSerif-105"/>
      <path d="M 51.8125 41.796875 
Q 54.390625 47.515625 58.421875 50.421875 
Q 62.453125 53.328125 67.828125 53.328125 
Q 75.984375 53.328125 79.984375 48.265625 
Q 83.984375 43.21875 83.984375 33.015625 
L 83.984375 5.171875 
L 92.09375 5.171875 
L 92.09375 0 
L 67.1875 0 
L 67.1875 5.171875 
L 75 5.171875 
L 75 31.984375 
Q 75 39.9375 72.65625 43.3125 
Q 70.3125 46.6875 64.890625 46.6875 
Q 58.890625 46.6875 55.734375 42.140625 
Q 52.59375 37.59375 52.59375 28.90625 
L 52.59375 5.171875 
L 60.40625 5.171875 
L 60.40625 0 
L 35.796875 0 
L 35.796875 5.171875 
L 43.609375 5.171875 
L 43.609375 32.328125 
Q 43.609375 40.09375 41.265625 43.390625 
Q 38.921875 46.6875 33.5 46.6875 
Q 27.484375 46.6875 24.328125 42.140625 
Q 21.1875 37.59375 21.1875 28.90625 
L 21.1875 5.171875 
L 29 5.171875 
L 29 0 
L 4.109375 0 
L 4.109375 5.171875 
L 12.203125 5.171875 
L 12.203125 46.78125 
L 3.609375 46.78125 
L 3.609375 51.90625 
L 21.1875 51.90625 
L 21.1875 42.671875 
Q 23.6875 47.859375 27.53125 50.59375 
Q 31.390625 53.328125 36.28125 53.328125 
Q 42.328125 53.328125 46.375 50.3125 
Q 50.4375 47.3125 51.8125 41.796875 
z
" id="DejaVuSerif-109"/>
      <path d="M 54.203125 25 
L 15.484375 25 
L 15.484375 24.609375 
Q 15.484375 14.109375 19.4375 8.765625 
Q 23.390625 3.421875 31.109375 3.421875 
Q 37.015625 3.421875 40.796875 6.515625 
Q 44.578125 9.625 46.09375 15.71875 
L 53.328125 15.71875 
Q 51.171875 7.171875 45.375 2.875 
Q 39.59375 -1.421875 30.171875 -1.421875 
Q 18.796875 -1.421875 11.890625 6.078125 
Q 4.984375 13.578125 4.984375 25.984375 
Q 4.984375 38.28125 11.765625 45.796875 
Q 18.5625 53.328125 29.59375 53.328125 
Q 41.359375 53.328125 47.65625 46.0625 
Q 53.953125 38.8125 54.203125 25 
z
M 43.609375 30.171875 
Q 43.3125 39.265625 39.765625 43.875 
Q 36.234375 48.484375 29.59375 48.484375 
Q 23.390625 48.484375 19.828125 43.84375 
Q 16.265625 39.203125 15.484375 30.171875 
z
" id="DejaVuSerif-101"/>
      <path d="M 3.609375 -9.71875 
Q 8.203125 -6.34375 10.34375 -1.78125 
Q 12.5 2.78125 12.5 9.28125 
L 12.5 11.078125 
L 22.125 11.078125 
Q 21.734375 2.734375 18.1875 -3.25 
Q 14.65625 -9.234375 7.515625 -13.625 
z
" id="DejaVuSerif-44"/>
      <path id="DejaVuSerif-32"/>
      <path d="M 42.28125 54.6875 
L 40.921875 47.703125 
L 23 47.703125 
L 17.1875 18.015625 
Q 16.890625 16.359375 16.75 15.234375 
Q 16.609375 14.109375 16.609375 13.484375 
Q 16.609375 10.359375 18.484375 8.9375 
Q 20.359375 7.515625 24.515625 7.515625 
L 33.59375 7.515625 
L 32.078125 0 
L 23.484375 0 
Q 15.484375 0 11.546875 3.125 
Q 7.625 6.25 7.625 12.59375 
Q 7.625 13.71875 7.765625 15.0625 
Q 7.90625 16.40625 8.203125 18.015625 
L 14.015625 47.703125 
L 6.390625 47.703125 
L 7.8125 54.6875 
L 15.28125 54.6875 
L 18.3125 70.21875 
L 27.296875 70.21875 
L 24.3125 54.6875 
z
" id="DejaVuSans-Oblique-116"/>
     </defs>
     <g transform="translate(358.306 490.497328)scale(0.143 -0.143)">
      <use transform="translate(0 0.421875)" xlink:href="#DejaVuSerif-84"/>
      <use transform="translate(66.699219 0.421875)" xlink:href="#DejaVuSerif-105"/>
      <use transform="translate(98.681641 0.421875)" xlink:href="#DejaVuSerif-109"/>
      <use transform="translate(193.505859 0.421875)" xlink:href="#DejaVuSerif-101"/>
      <use transform="translate(252.685547 0.421875)" xlink:href="#DejaVuSerif-44"/>
      <use transform="translate(284.472656 0.421875)" xlink:href="#DejaVuSerif-32"/>
      <use transform="translate(316.259766 0.421875)" xlink:href="#DejaVuSans-Oblique-116"/>
     </g>
    </g>
   </g>
   <g id="matplotlib.axis_2">
    <g id="ytick_1">
     <g id="line2d_7">
      <defs>
       <path d="M 0 0 
L -3.5 0 
" id="ma787420ce1" style="stroke:#000000;stroke-width:1.3;"/>
      </defs>
      <g>
       <use style="stroke:#000000;stroke-width:1.3;" x="93.6" xlink:href="#ma787420ce1" y="432.783"/>
      </g>
     </g>
     <g id="text_8">
      <!-- 0.0 -->
      <defs>
       <path d="M 9.421875 5.078125 
Q 9.421875 7.8125 11.28125 9.71875 
Q 13.140625 11.625 15.921875 11.625 
Q 18.609375 11.625 20.5 9.71875 
Q 22.40625 7.8125 22.40625 5.078125 
Q 22.40625 2.390625 20.5 0.484375 
Q 18.609375 -1.421875 15.921875 -1.421875 
Q 13.140625 -1.421875 11.28125 0.453125 
Q 9.421875 2.34375 9.421875 5.078125 
z
" id="DejaVuSerif-46"/>
      </defs>
      <g transform="translate(60.325938 437.721984)scale(0.13 -0.13)">
       <use xlink:href="#DejaVuSerif-48"/>
       <use x="63.623047" xlink:href="#DejaVuSerif-46"/>
       <use x="95.410156" xlink:href="#DejaVuSerif-48"/>
      </g>
     </g>
    </g>
    <g id="ytick_2">
     <g id="line2d_8">
      <g>
       <use style="stroke:#000000;stroke-width:1.3;" x="93.6" xlink:href="#ma787420ce1" y="362.14578"/>
      </g>
     </g>
     <g id="text_9">
      <!-- 0.2 -->
      <g transform="translate(60.325938 367.084764)scale(0.13 -0.13)">
       <use xlink:href="#DejaVuSerif-48"/>
       <use x="63.623047" xlink:href="#DejaVuSerif-46"/>
       <use x="95.410156" xlink:href="#DejaVuSerif-50"/>
      </g>
     </g>
    </g>
    <g id="ytick_3">
     <g id="line2d_9">
      <g>
       <use style="stroke:#000000;stroke-width:1.3;" x="93.6" xlink:href="#ma787420ce1" y="291.50856"/>
      </g>
     </g>
     <g id="text_10">
      <!-- 0.4 -->
      <g transform="translate(60.325938 296.447544)scale(0.13 -0.13)">
       <use xlink:href="#DejaVuSerif-48"/>
       <use x="63.623047" xlink:href="#DejaVuSerif-46"/>
       <use x="95.410156" xlink:href="#DejaVuSerif-52"/>
      </g>
     </g>
    </g>
    <g id="ytick_4">
     <g id="line2d_10">
      <g>
       <use style="stroke:#000000;stroke-width:1.3;" x="93.6" xlink:href="#ma787420ce1" y="220.87134"/>
      </g>
     </g>
     <g id="text_11">
      <!-- 0.6 -->
      <g transform="translate(60.325938 225.810325)scale(0.13 -0.13)">
       <use xlink:href="#DejaVuSerif-48"/>
       <use x="63.623047" xlink:href="#DejaVuSerif-46"/>
       <use x="95.410156" xlink:href="#DejaVuSerif-54"/>
      </g>
     </g>
    </g>
    <g id="ytick_5">
     <g id="line2d_11">
      <g>
       <use style="stroke:#000000;stroke-width:1.3;" x="93.6" xlink:href="#ma787420ce1" y="150.23412"/>
      </g>
     </g>
     <g id="text_12">
      <!-- 0.8 -->
      <g transform="translate(60.325938 155.173105)scale(0.13 -0.13)">
       <use xlink:href="#DejaVuSerif-48"/>
       <use x="63.623047" xlink:href="#DejaVuSerif-46"/>
       <use x="95.410156" xlink:href="#DejaVuSerif-56"/>
      </g>
     </g>
    </g>
    <g id="ytick_6">
     <g id="line2d_12">
      <g>
       <use style="stroke:#000000;stroke-width:1.3;" x="93.6" xlink:href="#ma787420ce1" y="79.5969"/>
      </g>
     </g>
     <g id="text_13">
      <!-- 1.0 -->
      <g transform="translate(60.325938 84.535885)scale(0.13 -0.13)">
       <use xlink:href="#DejaVuSerif-49"/>
       <use x="63.623047" xlink:href="#DejaVuSerif-46"/>
       <use x="95.410156" xlink:href="#DejaVuSerif-48"/>
      </g>
     </g>
    </g>
    <g id="text_14">
     <!-- Probability -->
     <defs>
      <path d="M 24.703125 37.109375 
L 37.59375 37.109375 
Q 44.875 37.109375 48.671875 41.03125 
Q 52.484375 44.96875 52.484375 52.390625 
Q 52.484375 59.859375 48.671875 63.765625 
Q 44.875 67.671875 37.59375 67.671875 
L 24.703125 67.671875 
z
M 5.515625 0 
L 5.515625 5.171875 
L 14.796875 5.171875 
L 14.796875 67.671875 
L 5.515625 67.671875 
L 5.515625 72.90625 
L 39.984375 72.90625 
Q 50.921875 72.90625 57.3125 67.359375 
Q 63.71875 61.8125 63.71875 52.390625 
Q 63.71875 43.015625 57.3125 37.453125 
Q 50.921875 31.890625 39.984375 31.890625 
L 24.703125 31.890625 
L 24.703125 5.171875 
L 35.984375 5.171875 
L 35.984375 0 
z
" id="DejaVuSerif-80"/>
      <path d="M 47.796875 52 
L 47.796875 39.015625 
L 42.625 39.015625 
Q 42.390625 42.875 40.484375 44.78125 
Q 38.578125 46.6875 34.90625 46.6875 
Q 28.265625 46.6875 24.71875 42.09375 
Q 21.1875 37.5 21.1875 28.90625 
L 21.1875 5.171875 
L 31.59375 5.171875 
L 31.59375 0 
L 4.109375 0 
L 4.109375 5.171875 
L 12.203125 5.171875 
L 12.203125 46.78125 
L 3.609375 46.78125 
L 3.609375 51.90625 
L 21.1875 51.90625 
L 21.1875 42.671875 
Q 23.828125 48.09375 27.96875 50.703125 
Q 32.125 53.328125 38.09375 53.328125 
Q 40.28125 53.328125 42.703125 52.984375 
Q 45.125 52.640625 47.796875 52 
z
" id="DejaVuSerif-114"/>
      <path d="M 30.078125 3.421875 
Q 37.3125 3.421875 40.984375 9.125 
Q 44.671875 14.84375 44.671875 25.984375 
Q 44.671875 37.109375 40.984375 42.796875 
Q 37.3125 48.484375 30.078125 48.484375 
Q 22.859375 48.484375 19.171875 42.796875 
Q 15.484375 37.109375 15.484375 25.984375 
Q 15.484375 14.84375 19.1875 9.125 
Q 22.90625 3.421875 30.078125 3.421875 
z
M 30.078125 -1.421875 
Q 18.75 -1.421875 11.859375 6.078125 
Q 4.984375 13.578125 4.984375 25.984375 
Q 4.984375 38.375 11.84375 45.84375 
Q 18.703125 53.328125 30.078125 53.328125 
Q 41.453125 53.328125 48.3125 45.84375 
Q 55.171875 38.375 55.171875 25.984375 
Q 55.171875 13.578125 48.3125 6.078125 
Q 41.453125 -1.421875 30.078125 -1.421875 
z
" id="DejaVuSerif-111"/>
      <path d="M 11.53125 5.171875 
L 11.53125 70.796875 
L 2.875 70.796875 
L 2.875 75.984375 
L 20.515625 75.984375 
L 20.515625 43.796875 
Q 23.140625 48.6875 27.21875 51 
Q 31.296875 53.328125 37.3125 53.328125 
Q 46.875 53.328125 52.921875 45.75 
Q 58.984375 38.1875 58.984375 25.984375 
Q 58.984375 13.765625 52.921875 6.171875 
Q 46.875 -1.421875 37.3125 -1.421875 
Q 31.296875 -1.421875 27.21875 0.890625 
Q 23.140625 3.21875 20.515625 8.109375 
L 20.515625 0 
L 2.875 0 
L 2.875 5.171875 
z
M 20.515625 23.390625 
Q 20.515625 14.015625 24.09375 9.109375 
Q 27.6875 4.203125 34.515625 4.203125 
Q 41.40625 4.203125 44.9375 9.71875 
Q 48.484375 15.234375 48.484375 25.984375 
Q 48.484375 36.765625 44.9375 42.234375 
Q 41.40625 47.703125 34.515625 47.703125 
Q 27.6875 47.703125 24.09375 42.765625 
Q 20.515625 37.84375 20.515625 28.515625 
z
" id="DejaVuSerif-98"/>
      <path d="M 39.796875 16.3125 
L 39.796875 27.296875 
L 28.21875 27.296875 
Q 21.53125 27.296875 18.25 24.40625 
Q 14.984375 21.53125 14.984375 15.578125 
Q 14.984375 10.15625 18.296875 6.984375 
Q 21.625 3.8125 27.296875 3.8125 
Q 32.90625 3.8125 36.34375 7.28125 
Q 39.796875 10.75 39.796875 16.3125 
z
M 48.78125 32.421875 
L 48.78125 5.171875 
L 56.78125 5.171875 
L 56.78125 0 
L 39.796875 0 
L 39.796875 5.609375 
Q 36.8125 2 32.90625 0.28125 
Q 29 -1.421875 23.78125 -1.421875 
Q 15.140625 -1.421875 10.0625 3.171875 
Q 4.984375 7.765625 4.984375 15.578125 
Q 4.984375 23.640625 10.796875 28.078125 
Q 16.609375 32.515625 27.203125 32.515625 
L 39.796875 32.515625 
L 39.796875 36.078125 
Q 39.796875 42 36.203125 45.234375 
Q 32.625 48.484375 26.125 48.484375 
Q 20.75 48.484375 17.578125 46.046875 
Q 14.40625 43.609375 13.625 38.8125 
L 8.984375 38.8125 
L 8.984375 49.3125 
Q 13.671875 51.3125 18.09375 52.3125 
Q 22.515625 53.328125 26.703125 53.328125 
Q 37.5 53.328125 43.140625 47.96875 
Q 48.78125 42.625 48.78125 32.421875 
z
" id="DejaVuSerif-97"/>
      <path d="M 20.515625 5.171875 
L 29 5.171875 
L 29 0 
L 2.875 0 
L 2.875 5.171875 
L 11.53125 5.171875 
L 11.53125 70.796875 
L 2.875 70.796875 
L 2.875 75.984375 
L 20.515625 75.984375 
z
" id="DejaVuSerif-108"/>
      <path d="M 10.796875 46.6875 
L 2.875 46.6875 
L 2.875 51.90625 
L 10.796875 51.90625 
L 10.796875 68.015625 
L 19.828125 68.015625 
L 19.828125 51.90625 
L 36.71875 51.90625 
L 36.71875 46.6875 
L 19.828125 46.6875 
L 19.828125 13.71875 
Q 19.828125 7.125 21.09375 5.265625 
Q 22.359375 3.421875 25.78125 3.421875 
Q 29.296875 3.421875 30.90625 5.484375 
Q 32.515625 7.5625 32.625 12.203125 
L 39.40625 12.203125 
Q 39.015625 5.125 35.546875 1.84375 
Q 32.078125 -1.421875 25 -1.421875 
Q 17.234375 -1.421875 14.015625 2.015625 
Q 10.796875 5.46875 10.796875 13.71875 
z
" id="DejaVuSerif-116"/>
      <path d="M 21.578125 -9.515625 
L 25 -0.875 
L 5.609375 46.6875 
L -0.296875 46.6875 
L -0.296875 51.90625 
L 23.578125 51.90625 
L 23.578125 46.6875 
L 15.28125 46.6875 
L 29.890625 10.984375 
L 44.484375 46.6875 
L 36.71875 46.6875 
L 36.71875 51.90625 
L 56.203125 51.90625 
L 56.203125 46.6875 
L 50.390625 46.6875 
L 26.609375 -11.71875 
Q 24.171875 -17.78125 21.1875 -20 
Q 18.21875 -22.21875 12.796875 -22.21875 
Q 10.5 -22.21875 8.078125 -21.828125 
Q 5.671875 -21.4375 3.21875 -20.703125 
L 3.21875 -10.796875 
L 7.8125 -10.796875 
Q 8.109375 -14.109375 9.5 -15.546875 
Q 10.890625 -17 13.8125 -17 
Q 16.5 -17 18.140625 -15.5 
Q 19.78125 -14.015625 21.578125 -9.515625 
z
" id="DejaVuSerif-121"/>
     </defs>
     <g transform="translate(53.148656 295.836836)rotate(-90)scale(0.143 -0.143)">
      <use xlink:href="#DejaVuSerif-80"/>
      <use x="67.285156" xlink:href="#DejaVuSerif-114"/>
      <use x="115.087891" xlink:href="#DejaVuSerif-111"/>
      <use x="175.292969" xlink:href="#DejaVuSerif-98"/>
      <use x="239.306641" xlink:href="#DejaVuSerif-97"/>
      <use x="298.925781" xlink:href="#DejaVuSerif-98"/>
      <use x="362.939453" xlink:href="#DejaVuSerif-105"/>
      <use x="394.921875" xlink:href="#DejaVuSerif-108"/>
      <use x="426.904297" xlink:href="#DejaVuSerif-105"/>
      <use x="458.886719" xlink:href="#DejaVuSerif-116"/>
      <use x="499.072266" xlink:href="#DejaVuSerif-121"/>
     </g>
    </g>
   </g>
   <g id="line2d_13">
    <path clip-path="url(#pd2e5044365)" d="M 119.978182 79.5969 
L 121.562457 79.756109 
L 123.146732 80.233232 
L 124.731007 81.026772 
L 126.315283 82.134236 
L 127.899558 83.552136 
L 129.483833 85.276006 
L 131.068108 87.300441 
L 132.652383 89.619141 
L 134.76475 93.155986 
L 136.877117 97.183828 
L 138.989484 101.680767 
L 141.629943 107.924231 
L 144.270401 114.810403 
L 146.91086 122.2826 
L 150.07941 131.937325 
L 153.776052 144.010997 
L 158.000786 158.654872 
L 163.281704 177.820717 
L 179.652547 237.923855 
L 184.405373 254.195342 
L 188.630106 267.820871 
L 192.326749 278.981936 
L 195.495299 287.921451 
L 198.663849 296.243221 
L 201.8324 303.920704 
L 205.00095 310.936501 
L 207.641409 316.270821 
L 210.281867 321.13813 
L 212.922326 325.539714 
L 215.562785 329.472636 
L 218.203243 332.938821 
L 220.31561 335.378235 
L 222.427977 337.523468 
L 224.540344 339.376721 
L 226.652711 340.940174 
L 228.765078 342.215891 
L 230.877445 343.205728 
L 232.989812 343.911237 
L 235.102179 344.33357 
L 237.214545 344.473381 
L 239.326912 344.330734 
L 241.439279 343.904977 
L 243.551646 343.193891 
L 245.664013 342.196338 
L 247.77638 340.911557 
L 249.888747 339.338411 
L 252.001114 337.475465 
L 254.113481 335.321074 
L 256.225848 332.873466 
L 258.338215 330.130822 
L 260.978673 326.284916 
L 263.619132 321.97203 
L 266.25959 317.189473 
L 268.900049 311.93529 
L 271.540508 306.208901 
L 274.709058 298.729242 
L 277.877609 290.6034 
L 281.046159 281.852542 
L 284.742801 270.894124 
L 288.439443 259.191248 
L 292.664177 245.01336 
L 297.417002 228.229948 
L 303.754103 204.95141 
L 315.900213 160.136062 
L 320.653038 143.602619 
L 324.349681 131.528246 
L 327.518231 121.884131 
L 330.686781 113.003662 
L 333.32724 106.261438 
L 335.967699 100.177912 
L 338.080066 95.819738 
L 340.192432 91.939179 
L 342.304799 88.557108 
L 343.889075 86.358781 
L 345.47335 84.457915 
L 347.057625 82.860372 
L 348.6419 81.571133 
L 350.226175 80.594318 
L 351.81045 79.933074 
L 353.394726 79.589512 
L 354.979001 79.564702 
L 356.563276 79.85867 
L 358.147551 80.4704 
L 359.731826 81.397831 
L 361.316102 82.637913 
L 362.900377 84.186801 
L 364.484652 86.039632 
L 366.068927 88.190611 
L 368.181294 91.510657 
L 370.293661 95.330397 
L 372.406028 99.628785 
L 374.518395 104.382369 
L 377.158853 110.925363 
L 379.799312 118.08501 
L 382.967862 127.408216 
L 386.136413 137.428219 
L 389.833055 149.848023 
L 394.58588 166.687039 
L 401.451073 191.991183 
L 411.484816 228.925656 
L 416.765733 247.426086 
L 420.990467 261.430732 
L 424.687109 272.969103 
L 428.383751 283.752145 
L 431.552301 292.345502 
L 434.720852 300.309073 
L 437.889402 307.624018 
L 440.529861 313.216997 
L 443.170319 318.347402 
L 445.810778 323.010783 
L 448.451237 327.206984 
L 451.091695 330.937423 
L 453.204062 333.588183 
L 455.316429 335.944337 
L 457.428796 338.007934 
L 459.541163 339.781162 
L 461.65353 341.266228 
L 463.765897 342.465244 
L 465.878264 343.380105 
L 467.990631 344.012372 
L 470.102998 344.363002 
L 472.215364 344.429882 
L 474.327731 344.212725 
L 476.440098 343.711856 
L 478.552465 342.927032 
L 480.664832 341.857497 
L 482.777199 340.502031 
L 484.889566 338.859006 
L 487.001933 336.926438 
L 489.1143 334.702038 
L 491.226667 332.183264 
L 493.339034 329.36737 
L 495.979492 325.425248 
L 498.619951 321.008445 
L 501.26041 316.114476 
L 503.900868 310.750026 
L 506.541327 304.917784 
L 509.709877 297.309579 
L 512.878428 289.052213 
L 516.046978 280.170308 
L 519.74362 269.064127 
L 523.440262 257.224215 
L 527.664996 242.910165 
L 532.417821 226.010666 
L 539.283014 200.667627 
L 549.844848 161.614165 
L 554.597674 144.956504 
L 558.294316 132.773564 
L 561.462867 123.025331 
L 564.631417 114.028695 
L 567.271876 107.182755 
L 569.912334 100.989354 
L 572.024701 96.53912 
L 574.137068 92.563183 
L 576.249435 89.082905 
L 578.361802 86.117178 
L 579.946077 84.240476 
L 581.530352 82.668211 
L 583.114627 81.405345 
L 584.698903 80.455879 
L 586.283178 79.822785 
L 587.867453 79.507996 
L 589.451728 79.512399 
L 591.036003 79.835838 
L 592.620278 80.477109 
L 594.204554 81.434053 
L 595.788829 82.703662 
L 597.373104 84.281906 
L 598.957379 86.163802 
L 600.541654 88.343427 
L 602.654021 91.700765 
L 604.766388 95.556399 
L 606.878755 99.888868 
L 608.991122 104.674655 
L 611.631581 111.254675 
L 614.272039 118.447592 
L 617.44059 127.805365 
L 620.60914 137.853425 
L 624.305782 150.296632 
L 629.058608 167.152564 
L 635.9238 192.450866 
L 645.429451 227.432999 
L 647.541818 234.962309 
L 647.541818 234.962309 
" style="fill:none;stroke:#1f77b4;stroke-linecap:square;stroke-width:2.275;"/>
   </g>
   <g id="line2d_14">
    <path clip-path="url(#pd2e5044365)" d="M 119.978182 432.783 
L 122.090549 432.641537 
L 124.202916 432.218279 
L 126.315283 431.516617 
L 128.427649 430.542148 
L 130.540016 429.302582 
L 132.652383 427.807774 
L 134.76475 426.069582 
L 137.405209 423.575526 
L 140.045667 420.752841 
L 143.214218 416.979503 
L 146.382768 412.845342 
L 150.07941 407.659773 
L 154.832236 400.597813 
L 169.618804 378.299019 
L 173.843538 372.490259 
L 177.54018 367.799142 
L 180.708731 364.113062 
L 183.877281 360.759234 
L 187.045831 357.750391 
L 190.214382 355.095985 
L 192.85484 353.154859 
L 195.495299 351.456181 
L 198.135758 349.992747 
L 200.776216 348.753771 
L 203.416675 347.72482 
L 206.585225 346.741589 
L 209.753776 345.996457 
L 213.450418 345.372291 
L 217.14706 344.973418 
L 221.899885 344.696491 
L 228.765078 344.556867 
L 246.720197 344.519182 
L 253.585389 344.695223 
L 258.338215 345.017459 
L 262.562948 345.53635 
L 265.731499 346.126174 
L 268.900049 346.937024 
L 271.540508 347.815792 
L 274.180966 348.891548 
L 276.821425 350.177878 
L 279.461884 351.690594 
L 282.102342 353.441324 
L 284.742801 355.437538 
L 287.38326 357.682639 
L 290.55181 360.704296 
L 293.72036 364.07546 
L 296.888911 367.781033 
L 300.585553 372.497662 
L 304.282195 377.580438 
L 309.03502 384.527297 
L 315.900213 395.029283 
L 323.293497 406.248206 
L 327.518231 412.26047 
L 331.214873 417.11121 
L 334.383423 420.877968 
L 337.023882 423.692246 
L 339.664341 426.1753 
L 341.776708 427.902808 
L 343.889075 429.38521 
L 346.001441 430.610648 
L 348.113808 431.569372 
L 350.226175 432.254106 
L 352.338542 432.659483 
L 354.450909 432.782356 
L 356.563276 432.621842 
L 358.675643 432.179309 
L 360.78801 431.458384 
L 362.900377 430.464895 
L 365.012744 429.206867 
L 367.125111 427.694408 
L 369.237477 425.939544 
L 371.877936 423.42629 
L 374.518395 420.586495 
L 377.686945 416.79587 
L 380.855495 412.649784 
L 384.552138 407.456804 
L 389.833055 399.592287 
L 403.035348 379.66838 
L 407.260082 373.79578 
L 410.956724 369.029402 
L 414.125274 365.264306 
L 417.293825 361.82228 
L 420.462375 358.723449 
L 423.630925 355.979646 
L 426.271384 353.967122 
L 428.911843 352.201012 
L 431.552301 350.67411 
L 434.19276 349.374602 
L 437.36131 348.091829 
L 440.529861 347.075257 
L 443.698411 346.295143 
L 447.395053 345.644154 
L 451.619787 345.165946 
L 456.372613 344.867491 
L 463.237805 344.689285 
L 481.721016 344.538154 
L 488.586208 344.645662 
L 493.339034 344.935416 
L 497.035676 345.377766 
L 500.204226 345.969952 
L 503.372776 346.79031 
L 506.541327 347.869634 
L 509.181785 348.990105 
L 511.822244 350.327982 
L 514.462703 351.895625 
L 517.103161 353.702477 
L 519.74362 355.755115 
L 522.384079 358.057337 
L 525.552629 361.150845 
L 528.721179 364.602277 
L 531.88973 368.390975 
L 535.586372 373.186945 
L 539.283014 378.33846 
L 544.035839 385.367498 
L 552.485307 398.393332 
L 558.294316 407.152615 
L 562.51905 413.114851 
L 565.6876 417.245073 
L 568.856151 421.006265 
L 571.496609 423.812554 
L 574.137068 426.284431 
L 576.249435 428.000646 
L 578.361802 429.469707 
L 580.474169 430.679995 
L 582.586536 431.622429 
L 584.698903 432.289694 
L 586.811269 432.676634 
L 588.923636 432.780343 
L 591.036003 432.600166 
L 593.14837 432.137726 
L 595.260737 431.39689 
L 597.373104 430.383782 
L 599.485471 429.106705 
L 601.597838 427.575993 
L 603.710205 425.803886 
L 606.350663 423.270855 
L 608.991122 420.413513 
L 612.159672 416.60581 
L 615.328223 412.447362 
L 619.024865 407.246108 
L 624.305782 399.381521 
L 636.979984 380.279159 
L 641.204717 374.393294 
L 644.90136 369.607648 
L 647.541818 366.430805 
L 647.541818 366.430805 
" style="fill:none;stroke:#ff7f0e;stroke-linecap:square;stroke-width:2.275;"/>
   </g>
   <g id="line2d_15">
    <path clip-path="url(#pd2e5044365)" d="M 119.978182 432.783 
L 122.090549 432.641537 
L 124.202916 432.218279 
L 126.315283 431.516617 
L 128.427649 430.542148 
L 130.540016 429.302582 
L 132.652383 427.807774 
L 134.76475 426.069582 
L 137.405209 423.575526 
L 140.045667 420.752841 
L 143.214218 416.979503 
L 146.382768 412.845342 
L 150.07941 407.659773 
L 154.832236 400.597813 
L 169.618804 378.299019 
L 173.843538 372.490259 
L 177.54018 367.799142 
L 180.708731 364.113062 
L 183.877281 360.759234 
L 187.045831 357.750391 
L 190.214382 355.095985 
L 192.85484 353.154859 
L 195.495299 351.456181 
L 198.135758 349.992747 
L 200.776216 348.753771 
L 203.416675 347.72482 
L 206.585225 346.741589 
L 209.753776 345.996457 
L 213.450418 345.372291 
L 217.14706 344.973418 
L 221.899885 344.696491 
L 228.765078 344.556867 
L 246.720197 344.519182 
L 253.585389 344.695223 
L 258.338215 345.017459 
L 262.562948 345.53635 
L 265.731499 346.126174 
L 268.900049 346.937024 
L 271.540508 347.815792 
L 274.180966 348.891548 
L 276.821425 350.177878 
L 279.461884 351.690594 
L 282.102342 353.441324 
L 284.742801 355.437538 
L 287.38326 357.682639 
L 290.55181 360.704296 
L 293.72036 364.07546 
L 296.888911 367.781033 
L 300.585553 372.497662 
L 304.282195 377.580438 
L 309.03502 384.527297 
L 315.900213 395.029283 
L 323.293497 406.248206 
L 327.518231 412.26047 
L 331.214873 417.11121 
L 334.383423 420.877968 
L 337.023882 423.692246 
L 339.664341 426.1753 
L 341.776708 427.902808 
L 343.889075 429.38521 
L 346.001441 430.610648 
L 348.113808 431.569372 
L 350.226175 432.254106 
L 352.338542 432.659483 
L 354.450909 432.782356 
L 356.563276 432.621842 
L 358.675643 432.179309 
L 360.78801 431.458384 
L 362.900377 430.464895 
L 365.012744 429.206867 
L 367.125111 427.694408 
L 369.237477 425.939544 
L 371.877936 423.42629 
L 374.518395 420.586495 
L 377.686945 416.79587 
L 380.855495 412.649784 
L 384.552138 407.456804 
L 389.833055 399.592287 
L 403.035348 379.66838 
L 407.260082 373.79578 
L 410.956724 369.029402 
L 414.125274 365.264306 
L 417.293825 361.82228 
L 420.462375 358.723449 
L 423.630925 355.979646 
L 426.271384 353.967122 
L 428.911843 352.201012 
L 431.552301 350.67411 
L 434.19276 349.374602 
L 437.36131 348.091829 
L 440.529861 347.075257 
L 443.698411 346.295143 
L 447.395053 345.644154 
L 451.619787 345.165946 
L 456.372613 344.867491 
L 463.237805 344.689285 
L 481.721016 344.538154 
L 488.586208 344.645662 
L 493.339034 344.935416 
L 497.035676 345.377766 
L 500.204226 345.969952 
L 503.372776 346.79031 
L 506.541327 347.869634 
L 509.181785 348.990105 
L 511.822244 350.327982 
L 514.462703 351.895625 
L 517.103161 353.702477 
L 519.74362 355.755115 
L 522.384079 358.057337 
L 525.552629 361.150845 
L 528.721179 364.602277 
L 531.88973 368.390975 
L 535.586372 373.186945 
L 539.283014 378.33846 
L 544.035839 385.367498 
L 552.485307 398.393332 
L 558.294316 407.152615 
L 562.51905 413.114851 
L 565.6876 417.245073 
L 568.856151 421.006265 
L 571.496609 423.812554 
L 574.137068 426.284431 
L 576.249435 428.000646 
L 578.361802 429.469707 
L 580.474169 430.679995 
L 582.586536 431.622429 
L 584.698903 432.289694 
L 586.811269 432.676634 
L 588.923636 432.780343 
L 591.036003 432.600166 
L 593.14837 432.137726 
L 595.260737 431.39689 
L 597.373104 430.383782 
L 599.485471 429.106705 
L 601.597838 427.575993 
L 603.710205 425.803886 
L 606.350663 423.270855 
L 608.991122 420.413513 
L 612.159672 416.60581 
L 615.328223 412.447362 
L 619.024865 407.246108 
L 624.305782 399.381521 
L 636.979984 380.279159 
L 641.204717 374.393294 
L 644.90136 369.607648 
L 647.541818 366.430805 
L 647.541818 366.430805 
" style="fill:none;stroke:#2ca02c;stroke-dasharray:8.4175,3.64;stroke-dashoffset:0;stroke-width:2.275;"/>
   </g>
   <g id="line2d_16">
    <path clip-path="url(#pd2e5044365)" d="M 119.978182 432.783 
L 133.708567 432.684009 
L 138.989484 432.426553 
L 143.214218 432.004451 
L 146.91086 431.409118 
L 150.07941 430.685902 
L 153.247961 429.728491 
L 156.416511 428.503185 
L 159.05697 427.256012 
L 161.697428 425.788395 
L 164.337887 424.087829 
L 166.978346 422.14606 
L 169.618804 419.957946 
L 172.259263 417.521343 
L 175.427813 414.27179 
L 178.596364 410.678025 
L 181.764914 406.763413 
L 185.461556 401.841739 
L 189.68629 395.821319 
L 195.495299 387.086364 
L 207.113317 369.4902 
L 211.338051 363.585395 
L 215.034693 358.854805 
L 218.203243 355.195453 
L 220.843702 352.485406 
L 223.484161 350.125354 
L 225.596527 348.510592 
L 227.708894 347.15258 
L 229.821261 346.060911 
L 231.933628 345.24239 
L 234.045995 344.701372 
L 236.158362 344.440191 
L 238.270729 344.459687 
L 240.383096 344.759797 
L 242.495463 345.336343 
L 244.60783 346.176768 
L 246.720197 347.278577 
L 248.832563 348.638187 
L 250.94493 350.249582 
L 253.057297 352.103975 
L 255.697756 354.745458 
L 258.338215 357.718309 
L 261.506765 361.67072 
L 265.203407 366.715649 
L 269.428141 372.883968 
L 276.821425 384.149243 
L 284.214709 395.319291 
L 288.967535 402.106663 
L 292.664177 407.037969 
L 296.360819 411.581165 
L 299.529369 415.114519 
L 302.69792 418.285188 
L 305.86647 421.099352 
L 308.506929 423.169052 
L 311.147387 424.991411 
L 313.787846 426.574342 
L 316.428305 427.929311 
L 319.068763 429.070388 
L 322.237314 430.17992 
L 325.405864 431.034714 
L 328.574414 431.668274 
L 332.271057 432.177535 
L 336.49579 432.524584 
L 341.776708 432.721568 
L 350.754267 432.782363 
L 368.181294 432.681291 
L 373.462211 432.415905 
L 377.686945 431.982233 
L 381.383587 431.371983 
L 384.552138 430.631782 
L 387.720688 429.653593 
L 390.889238 428.404836 
L 393.529697 427.136372 
L 396.170156 425.64517 
L 398.810614 423.919679 
L 401.451073 421.950832 
L 404.091532 419.732659 
L 406.73199 417.263127 
L 409.900541 413.97251 
L 413.069091 410.341864 
L 416.237641 406.39691 
L 419.934283 401.435644 
L 424.159017 395.38339 
L 429.968026 386.614495 
L 441.057952 369.741135 
L 445.282686 363.782048 
L 448.451237 359.645831 
L 451.619787 355.885392 
L 454.260246 353.08869 
L 456.900704 350.633959 
L 459.013071 348.934841 
L 461.125438 347.483545 
L 463.237805 346.289741 
L 465.350172 345.361758 
L 467.462539 344.707109 
L 469.574906 344.333069 
L 471.687273 344.235585 
L 473.79964 344.410324 
L 475.912007 344.861659 
L 478.024373 345.59137 
L 480.13674 346.598221 
L 482.249107 347.877661 
L 484.361474 349.421661 
L 486.473841 351.218692 
L 489.1143 353.797786 
L 491.754758 356.712815 
L 494.923309 360.594377 
L 498.619951 365.547513 
L 502.844685 371.615482 
L 508.653694 380.397995 
L 519.74362 397.242565 
L 523.968354 403.231654 
L 527.664996 408.095272 
L 530.833546 411.919402 
L 534.002097 415.413686 
L 537.170647 418.557479 
L 540.339197 421.340441 
L 542.979656 423.384472 
L 545.620115 425.183711 
L 548.260573 426.746353 
L 550.901032 428.082977 
L 553.541491 429.206158 
L 556.710041 430.292663 
L 559.878591 431.122391 
L 563.047142 431.734792 
L 566.743784 432.222443 
L 570.968518 432.550024 
L 576.249435 432.730844 
L 585.755086 432.780509 
L 602.654021 432.676988 
L 607.934939 432.403285 
L 612.159672 431.957275 
L 615.856314 431.331177 
L 619.024865 430.573324 
L 622.193415 429.573878 
L 624.833874 428.533097 
L 627.474333 427.284731 
L 630.114791 425.814199 
L 632.75525 424.109278 
L 635.395708 422.1603 
L 638.036167 419.960872 
L 640.676626 417.508821 
L 643.845176 414.237866 
L 647.013726 410.626412 
L 647.541818 409.993047 
L 647.541818 409.993047 
" style="fill:none;stroke:#d62728;stroke-linecap:square;stroke-width:2.275;"/>
   </g>
   <g id="line2d_17">
    <path clip-path="url(#pd2e5044365)" d="M 119.978182 79.5969 
L 478.024373 79.48711 
L 511.822244 79.457192 
L 592.092187 79.46748 
L 647.541818 79.467967 
L 647.541818 79.467967 
" style="fill:none;stroke:#9467bd;stroke-linecap:square;stroke-width:2.275;"/>
   </g>
   <g id="patch_3">
    <path d="M 93.6 450.45 
L 93.6 61.776 
" style="fill:none;stroke:#000000;stroke-linecap:square;stroke-linejoin:miter;stroke-width:0.8;"/>
   </g>
   <g id="patch_4">
    <path d="M 673.92 450.45 
L 673.92 61.776 
" style="fill:none;stroke:#000000;stroke-linecap:square;stroke-linejoin:miter;stroke-width:0.8;"/>
   </g>
   <g id="patch_5">
    <path d="M 93.6 450.45 
L 673.92 450.45 
" style="fill:none;stroke:#000000;stroke-linecap:square;stroke-linejoin:miter;stroke-width:0.8;"/>
   </g>
   <g id="patch_6">
    <path d="M 93.6 61.776 
L 673.92 61.776 
" style="fill:none;stroke:#000000;stroke-linecap:square;stroke-linejoin:miter;stroke-width:0.8;"/>
   </g>
   <g id="text_15">
    <!-- V=0 -->
    <defs>
     <path d="M 17.484375 67.671875 
L 39.015625 11.71875 
L 60.5 67.671875 
L 52.296875 67.671875 
L 52.296875 72.90625 
L 73.6875 72.90625 
L 73.6875 67.671875 
L 66.609375 67.671875 
L 40.578125 0 
L 32.171875 0 
L 6.296875 67.671875 
L -0.984375 67.671875 
L -0.984375 72.90625 
L 25.59375 72.90625 
L 25.59375 67.671875 
z
" id="DejaVuSerif-86"/>
     <path d="M 10.59375 45.21875 
L 73.1875 45.21875 
L 73.1875 37.40625 
L 10.59375 37.40625 
z
M 10.59375 25.296875 
L 73.1875 25.296875 
L 73.1875 17.484375 
L 10.59375 17.484375 
z
" id="DejaVuSerif-61"/>
    </defs>
    <g style="opacity:0.75;" transform="translate(119.978182 256.18995)scale(0.18 -0.18)">
     <use xlink:href="#DejaVuSerif-86"/>
     <use x="72.216797" xlink:href="#DejaVuSerif-61"/>
     <use x="156.005859" xlink:href="#DejaVuSerif-48"/>
    </g>
   </g>
   <g id="legend_1">
    <g id="line2d_18">
     <path d="M 129.633359 22.4549 
L 155.633359 22.4549 
" style="fill:none;stroke:#1f77b4;stroke-linecap:square;stroke-width:2.275;"/>
    </g>
    <g id="line2d_19"/>
    <g id="text_16">
     <!-- $|c_{11}|^2$ -->
     <defs>
      <path d="M 21 76.421875 
L 21 -23.578125 
L 12.703125 -23.578125 
L 12.703125 76.421875 
z
" id="DejaVuSans-124"/>
      <path d="M 53.609375 52.59375 
L 51.8125 43.703125 
Q 48.578125 46.046875 44.9375 47.21875 
Q 41.3125 48.390625 37.40625 48.390625 
Q 33.109375 48.390625 29.21875 46.875 
Q 25.34375 45.359375 22.703125 42.578125 
Q 18.5 38.328125 16.203125 32.609375 
Q 13.921875 26.90625 13.921875 20.796875 
Q 13.921875 13.421875 17.609375 9.8125 
Q 21.296875 6.203125 28.8125 6.203125 
Q 32.515625 6.203125 36.6875 7.328125 
Q 40.875 8.453125 45.40625 10.6875 
L 43.703125 1.8125 
Q 39.796875 0.203125 35.671875 -0.609375 
Q 31.546875 -1.421875 27.203125 -1.421875 
Q 16.3125 -1.421875 10.453125 4.015625 
Q 4.59375 9.46875 4.59375 19.578125 
Q 4.59375 28.078125 7.640625 35.234375 
Q 10.6875 42.390625 16.703125 48.09375 
Q 20.796875 52 26.3125 54 
Q 31.84375 56 38.375 56 
Q 42.1875 56 45.9375 55.140625 
Q 49.703125 54.296875 53.609375 52.59375 
z
" id="DejaVuSans-Oblique-99"/>
      <path d="M 12.40625 8.296875 
L 28.515625 8.296875 
L 28.515625 63.921875 
L 10.984375 60.40625 
L 10.984375 69.390625 
L 28.421875 72.90625 
L 38.28125 72.90625 
L 38.28125 8.296875 
L 54.390625 8.296875 
L 54.390625 0 
L 12.40625 0 
z
" id="DejaVuSans-49"/>
      <path d="M 19.1875 8.296875 
L 53.609375 8.296875 
L 53.609375 0 
L 7.328125 0 
L 7.328125 8.296875 
Q 12.9375 14.109375 22.625 23.890625 
Q 32.328125 33.6875 34.8125 36.53125 
Q 39.546875 41.84375 41.421875 45.53125 
Q 43.3125 49.21875 43.3125 52.78125 
Q 43.3125 58.59375 39.234375 62.25 
Q 35.15625 65.921875 28.609375 65.921875 
Q 23.96875 65.921875 18.8125 64.3125 
Q 13.671875 62.703125 7.8125 59.421875 
L 7.8125 69.390625 
Q 13.765625 71.78125 18.9375 73 
Q 24.125 74.21875 28.421875 74.21875 
Q 39.75 74.21875 46.484375 68.546875 
Q 53.21875 62.890625 53.21875 53.421875 
Q 53.21875 48.921875 51.53125 44.890625 
Q 49.859375 40.875 45.40625 35.40625 
Q 44.1875 33.984375 37.640625 27.21875 
Q 31.109375 20.453125 19.1875 8.296875 
z
" id="DejaVuSans-50"/>
     </defs>
     <g transform="translate(166.033359 27.0049)scale(0.13 -0.13)">
      <use transform="translate(0 0.765625)" xlink:href="#DejaVuSans-124"/>
      <use transform="translate(33.691406 0.765625)" xlink:href="#DejaVuSans-Oblique-99"/>
      <use transform="translate(88.671875 -15.640625)scale(0.7)" xlink:href="#DejaVuSans-49"/>
      <use transform="translate(133.208008 -15.640625)scale(0.7)" xlink:href="#DejaVuSans-49"/>
      <use transform="translate(180.478516 0.765625)" xlink:href="#DejaVuSans-124"/>
      <use transform="translate(215.126953 39.046875)scale(0.7)" xlink:href="#DejaVuSans-50"/>
     </g>
    </g>
    <g id="line2d_20">
     <path d="M 226.223359 22.4549 
L 252.223359 22.4549 
" style="fill:none;stroke:#ff7f0e;stroke-linecap:square;stroke-width:2.275;"/>
    </g>
    <g id="line2d_21"/>
    <g id="text_17">
     <!-- $|c_{1r}|^2$ -->
     <defs>
      <path d="M 44.578125 46.390625 
Q 43.21875 47.125 41.453125 47.515625 
Q 39.703125 47.90625 37.703125 47.90625 
Q 30.515625 47.90625 25.140625 42.453125 
Q 19.78125 37.015625 18.015625 27.875 
L 12.5 0 
L 3.515625 0 
L 14.203125 54.6875 
L 23.1875 54.6875 
L 21.484375 46.1875 
Q 25.046875 50.921875 30 53.453125 
Q 34.96875 56 40.578125 56 
Q 42.046875 56 43.453125 55.828125 
Q 44.875 55.671875 46.296875 55.28125 
z
" id="DejaVuSans-Oblique-114"/>
     </defs>
     <g transform="translate(262.623359 27.0049)scale(0.13 -0.13)">
      <use transform="translate(0 0.765625)" xlink:href="#DejaVuSans-124"/>
      <use transform="translate(33.691406 0.765625)" xlink:href="#DejaVuSans-Oblique-99"/>
      <use transform="translate(88.671875 -15.640625)scale(0.7)" xlink:href="#DejaVuSans-49"/>
      <use transform="translate(133.208008 -15.640625)scale(0.7)" xlink:href="#DejaVuSans-Oblique-114"/>
      <use transform="translate(164.72168 0.765625)" xlink:href="#DejaVuSans-124"/>
      <use transform="translate(199.370117 39.046875)scale(0.7)" xlink:href="#DejaVuSans-50"/>
     </g>
    </g>
    <g id="line2d_22">
     <path d="M 320.733359 22.4549 
L 346.733359 22.4549 
" style="fill:none;stroke:#2ca02c;stroke-dasharray:8.4175,3.64;stroke-dashoffset:0;stroke-width:2.275;"/>
    </g>
    <g id="line2d_23"/>
    <g id="text_18">
     <!-- $|c_{r1}|^2$ -->
     <g transform="translate(357.133359 27.0049)scale(0.13 -0.13)">
      <use transform="translate(0 0.765625)" xlink:href="#DejaVuSans-124"/>
      <use transform="translate(33.691406 0.765625)" xlink:href="#DejaVuSans-Oblique-99"/>
      <use transform="translate(88.671875 -15.640625)scale(0.7)" xlink:href="#DejaVuSans-Oblique-114"/>
      <use transform="translate(117.451172 -15.640625)scale(0.7)" xlink:href="#DejaVuSans-49"/>
      <use transform="translate(164.72168 0.765625)" xlink:href="#DejaVuSans-124"/>
      <use transform="translate(199.370117 39.046875)scale(0.7)" xlink:href="#DejaVuSans-50"/>
     </g>
    </g>
    <g id="line2d_24">
     <path d="M 415.243359 22.4549 
L 441.243359 22.4549 
" style="fill:none;stroke:#d62728;stroke-linecap:square;stroke-width:2.275;"/>
    </g>
    <g id="line2d_25"/>
    <g id="text_19">
     <!-- $|c_{rr}|^2$ -->
     <g transform="translate(451.643359 27.0049)scale(0.13 -0.13)">
      <use transform="translate(0 0.765625)" xlink:href="#DejaVuSans-124"/>
      <use transform="translate(33.691406 0.765625)" xlink:href="#DejaVuSans-Oblique-99"/>
      <use transform="translate(88.671875 -15.640625)scale(0.7)" xlink:href="#DejaVuSans-Oblique-114"/>
      <use transform="translate(117.451172 -15.640625)scale(0.7)" xlink:href="#DejaVuSans-Oblique-114"/>
      <use transform="translate(148.964844 0.765625)" xlink:href="#DejaVuSans-124"/>
      <use transform="translate(183.613281 39.046875)scale(0.7)" xlink:href="#DejaVuSans-50"/>
     </g>
    </g>
    <g id="line2d_26">
     <path d="M 507.673359 22.4549 
L 533.673359 22.4549 
" style="fill:none;stroke:#9467bd;stroke-linecap:square;stroke-width:2.275;"/>
    </g>
    <g id="line2d_27"/>
    <g id="text_20">
     <!-- Normalisation -->
     <defs>
      <path d="M 4.890625 0 
L 4.890625 5.171875 
L 14.703125 5.171875 
L 14.703125 67.671875 
L 4.890625 67.671875 
L 4.890625 72.90625 
L 23.578125 72.90625 
L 67.28125 15.375 
L 67.28125 67.671875 
L 57.515625 67.671875 
L 57.515625 72.90625 
L 83.109375 72.90625 
L 83.109375 67.671875 
L 73.296875 67.671875 
L 73.296875 -1.421875 
L 67.390625 -1.421875 
L 20.703125 60.015625 
L 20.703125 5.171875 
L 30.515625 5.171875 
L 30.515625 0 
z
" id="DejaVuSerif-78"/>
      <path d="M 5.609375 2.875 
L 5.609375 14.984375 
L 10.796875 14.984375 
Q 10.984375 9.1875 14.421875 6.296875 
Q 17.875 3.421875 24.609375 3.421875 
Q 30.671875 3.421875 33.84375 5.6875 
Q 37.015625 7.953125 37.015625 12.3125 
Q 37.015625 15.71875 34.6875 17.8125 
Q 32.375 19.921875 24.90625 22.3125 
L 18.40625 24.515625 
Q 11.71875 26.65625 8.71875 29.875 
Q 5.71875 33.109375 5.71875 38.09375 
Q 5.71875 45.21875 10.9375 49.265625 
Q 16.15625 53.328125 25.390625 53.328125 
Q 29.5 53.328125 34.03125 52.25 
Q 38.578125 51.171875 43.40625 49.125 
L 43.40625 37.796875 
L 38.234375 37.796875 
Q 38.03125 42.828125 34.703125 45.65625 
Q 31.390625 48.484375 25.6875 48.484375 
Q 20.015625 48.484375 17.109375 46.484375 
Q 14.203125 44.484375 14.203125 40.484375 
Q 14.203125 37.203125 16.40625 35.21875 
Q 18.609375 33.25 25.203125 31.203125 
L 32.328125 29 
Q 39.703125 26.703125 42.9375 23.265625 
Q 46.1875 19.828125 46.1875 14.40625 
Q 46.1875 7.03125 40.546875 2.796875 
Q 34.90625 -1.421875 25 -1.421875 
Q 19.96875 -1.421875 15.1875 -0.34375 
Q 10.40625 0.734375 5.609375 2.875 
z
" id="DejaVuSerif-115"/>
      <path d="M 4.109375 0 
L 4.109375 5.171875 
L 12.203125 5.171875 
L 12.203125 46.6875 
L 3.609375 46.6875 
L 3.609375 51.90625 
L 21.1875 51.90625 
L 21.1875 42.671875 
Q 23.6875 47.953125 27.65625 50.640625 
Q 31.640625 53.328125 36.921875 53.328125 
Q 45.515625 53.328125 49.5625 48.390625 
Q 53.609375 43.453125 53.609375 33.015625 
L 53.609375 5.171875 
L 61.625 5.171875 
L 61.625 0 
L 36.8125 0 
L 36.8125 5.171875 
L 44.578125 5.171875 
L 44.578125 30.171875 
Q 44.578125 39.703125 42.234375 43.234375 
Q 39.890625 46.78125 33.984375 46.78125 
Q 27.734375 46.78125 24.453125 42.203125 
Q 21.1875 37.640625 21.1875 28.90625 
L 21.1875 5.171875 
L 29 5.171875 
L 29 0 
z
" id="DejaVuSerif-110"/>
     </defs>
     <g transform="translate(544.073359 27.0049)scale(0.13 -0.13)">
      <use xlink:href="#DejaVuSerif-78"/>
      <use x="87.5" xlink:href="#DejaVuSerif-111"/>
      <use x="147.705078" xlink:href="#DejaVuSerif-114"/>
      <use x="195.507812" xlink:href="#DejaVuSerif-109"/>
      <use x="290.332031" xlink:href="#DejaVuSerif-97"/>
      <use x="349.951172" xlink:href="#DejaVuSerif-108"/>
      <use x="381.933594" xlink:href="#DejaVuSerif-105"/>
      <use x="413.916016" xlink:href="#DejaVuSerif-115"/>
      <use x="465.234375" xlink:href="#DejaVuSerif-97"/>
      <use x="524.853516" xlink:href="#DejaVuSerif-116"/>
      <use x="565.039062" xlink:href="#DejaVuSerif-105"/>
      <use x="597.021484" xlink:href="#DejaVuSerif-111"/>
      <use x="657.226562" xlink:href="#DejaVuSerif-110"/>
     </g>
    </g>
   </g>
  </g>
 </g>
 <defs>
  <clipPath id="pd2e5044365">
   <rect height="388.674" width="580.32" x="93.6" y="61.776"/>
  </clipPath>
 </defs>
</svg>
