<?xml version="1.0" encoding="utf-8" standalone="no"?>
<!DOCTYPE svg PUBLIC "-//W3C//DTD SVG 1.1//EN"
  "http://www.w3.org/Graphics/SVG/1.1/DTD/svg11.dtd">
<!-- Created with matplotlib (https://matplotlib.org/) -->
<svg height="514.8pt" version="1.1" viewBox="0 0 748.8 514.8" width="748.8pt" xmlns="http://www.w3.org/2000/svg" xmlns:xlink="http://www.w3.org/1999/xlink">
 <defs>
  <style type="text/css">
*{stroke-linecap:butt;stroke-linejoin:round;}
  </style>
 </defs>
 <g id="figure_1">
  <g id="patch_1">
   <path d="M 0 514.8 
L 748.8 514.8 
L 748.8 0 
L 0 0 
z
" style="fill:#ffffff;"/>
  </g>
  <g id="axes_1">
   <g id="patch_2">
    <path d="M 93.6 450.45 
L 673.92 450.45 
L 673.92 61.776 
L 93.6 61.776 
z
" style="fill:#ffffff;"/>
   </g>
   <g id="matplotlib.axis_1">
    <g id="xtick_1">
     <g id="line2d_1">
      <defs>
       <path d="M 0 0 
L 0 3.5 
" id="mc1f4914d8e" style="stroke:#000000;stroke-width:1.3;"/>
      </defs>
      <g>
       <use style="stroke:#000000;stroke-width:1.3;" x="119.978182" xlink:href="#mc1f4914d8e" y="450.45"/>
      </g>
     </g>
     <g id="text_1">
      <!-- 0 -->
      <defs>
       <path d="M 31.78125 3.421875 
Q 39.265625 3.421875 42.96875 11.625 
Q 46.6875 19.828125 46.6875 36.375 
Q 46.6875 52.984375 42.96875 61.1875 
Q 39.265625 69.390625 31.78125 69.390625 
Q 24.3125 69.390625 20.59375 61.1875 
Q 16.890625 52.984375 16.890625 36.375 
Q 16.890625 19.828125 20.59375 11.625 
Q 24.3125 3.421875 31.78125 3.421875 
z
M 31.78125 -1.421875 
Q 19.921875 -1.421875 13.25 8.53125 
Q 6.59375 18.5 6.59375 36.375 
Q 6.59375 54.296875 13.25 64.25 
Q 19.921875 74.21875 31.78125 74.21875 
Q 43.703125 74.21875 50.34375 64.25 
Q 56.984375 54.296875 56.984375 36.375 
Q 56.984375 18.5 50.34375 8.53125 
Q 43.703125 -1.421875 31.78125 -1.421875 
z
" id="DejaVuSerif-48"/>
      </defs>
      <g transform="translate(115.842557 472.927969)scale(0.13 -0.13)">
       <use xlink:href="#DejaVuSerif-48"/>
      </g>
     </g>
    </g>
    <g id="xtick_2">
     <g id="line2d_2">
      <g>
       <use style="stroke:#000000;stroke-width:1.3;" x="225.490909" xlink:href="#mc1f4914d8e" y="450.45"/>
      </g>
     </g>
     <g id="text_2">
      <!-- 2 -->
      <defs>
       <path d="M 12.796875 55.515625 
L 7.328125 55.515625 
L 7.328125 68.5 
Q 12.546875 71.296875 17.84375 72.75 
Q 23.140625 74.21875 28.21875 74.21875 
Q 39.59375 74.21875 46.1875 68.703125 
Q 52.78125 63.1875 52.78125 53.71875 
Q 52.78125 43.015625 37.84375 28.125 
Q 36.671875 27 36.078125 26.421875 
L 17.671875 8.015625 
L 48.09375 8.015625 
L 48.09375 17 
L 53.8125 17 
L 53.8125 0 
L 6.78125 0 
L 6.78125 5.328125 
L 28.90625 27.390625 
Q 36.234375 34.71875 39.359375 40.84375 
Q 42.484375 46.96875 42.484375 53.71875 
Q 42.484375 61.078125 38.640625 65.234375 
Q 34.8125 69.390625 28.078125 69.390625 
Q 21.09375 69.390625 17.28125 65.921875 
Q 13.484375 62.453125 12.796875 55.515625 
z
" id="DejaVuSerif-50"/>
      </defs>
      <g transform="translate(221.355284 472.927969)scale(0.13 -0.13)">
       <use xlink:href="#DejaVuSerif-50"/>
      </g>
     </g>
    </g>
    <g id="xtick_3">
     <g id="line2d_3">
      <g>
       <use style="stroke:#000000;stroke-width:1.3;" x="331.003636" xlink:href="#mc1f4914d8e" y="450.45"/>
      </g>
     </g>
     <g id="text_3">
      <!-- 4 -->
      <defs>
       <path d="M 34.90625 24.703125 
L 34.90625 63.484375 
L 10.015625 24.703125 
z
M 56.390625 0 
L 23.1875 0 
L 23.1875 5.171875 
L 34.90625 5.171875 
L 34.90625 19.484375 
L 3.078125 19.484375 
L 3.078125 24.8125 
L 35.015625 74.21875 
L 44.671875 74.21875 
L 44.671875 24.703125 
L 58.59375 24.703125 
L 58.59375 19.484375 
L 44.671875 19.484375 
L 44.671875 5.171875 
L 56.390625 5.171875 
z
" id="DejaVuSerif-52"/>
      </defs>
      <g transform="translate(326.868011 472.927969)scale(0.13 -0.13)">
       <use xlink:href="#DejaVuSerif-52"/>
      </g>
     </g>
    </g>
    <g id="xtick_4">
     <g id="line2d_4">
      <g>
       <use style="stroke:#000000;stroke-width:1.3;" x="436.516364" xlink:href="#mc1f4914d8e" y="450.45"/>
      </g>
     </g>
     <g id="text_4">
      <!-- 6 -->
      <defs>
       <path d="M 32.71875 3.421875 
Q 39.59375 3.421875 43.296875 8.46875 
Q 47.015625 13.53125 47.015625 23 
Q 47.015625 32.46875 43.296875 37.515625 
Q 39.59375 42.578125 32.71875 42.578125 
Q 25.734375 42.578125 22.0625 37.6875 
Q 18.40625 32.8125 18.40625 23.578125 
Q 18.40625 13.875 22.109375 8.640625 
Q 25.828125 3.421875 32.71875 3.421875 
z
M 16.796875 40.140625 
Q 20.125 43.796875 24.3125 45.59375 
Q 28.515625 47.40625 33.796875 47.40625 
Q 44.671875 47.40625 51 40.859375 
Q 57.328125 34.328125 57.328125 23 
Q 57.328125 11.921875 50.515625 5.25 
Q 43.703125 -1.421875 32.328125 -1.421875 
Q 19.96875 -1.421875 13.328125 7.78125 
Q 6.6875 17 6.6875 34.078125 
Q 6.6875 53.21875 14.546875 63.71875 
Q 22.40625 74.21875 36.71875 74.21875 
Q 40.578125 74.21875 44.828125 73.484375 
Q 49.078125 72.75 53.515625 71.296875 
L 53.515625 59.28125 
L 48 59.28125 
Q 47.40625 64.203125 44.234375 66.796875 
Q 41.0625 69.390625 35.6875 69.390625 
Q 26.21875 69.390625 21.578125 62.203125 
Q 16.9375 55.03125 16.796875 40.140625 
z
" id="DejaVuSerif-54"/>
      </defs>
      <g transform="translate(432.380739 472.927969)scale(0.13 -0.13)">
       <use xlink:href="#DejaVuSerif-54"/>
      </g>
     </g>
    </g>
    <g id="xtick_5">
     <g id="line2d_5">
      <g>
       <use style="stroke:#000000;stroke-width:1.3;" x="542.029091" xlink:href="#mc1f4914d8e" y="450.45"/>
      </g>
     </g>
     <g id="text_5">
      <!-- 8 -->
      <defs>
       <path d="M 46.578125 19.921875 
Q 46.578125 27.734375 42.6875 32.046875 
Q 38.8125 36.375 31.78125 36.375 
Q 24.75 36.375 20.875 32.046875 
Q 17 27.734375 17 19.921875 
Q 17 12.0625 20.875 7.734375 
Q 24.75 3.421875 31.78125 3.421875 
Q 38.8125 3.421875 42.6875 7.734375 
Q 46.578125 12.0625 46.578125 19.921875 
z
M 44.578125 55.328125 
Q 44.578125 61.96875 41.203125 65.671875 
Q 37.84375 69.390625 31.78125 69.390625 
Q 25.78125 69.390625 22.390625 65.671875 
Q 19 61.96875 19 55.328125 
Q 19 48.640625 22.390625 44.921875 
Q 25.78125 41.21875 31.78125 41.21875 
Q 37.84375 41.21875 41.203125 44.921875 
Q 44.578125 48.640625 44.578125 55.328125 
z
M 39.3125 38.8125 
Q 47.609375 37.703125 52.25 32.6875 
Q 56.890625 27.6875 56.890625 19.921875 
Q 56.890625 9.671875 50.390625 4.125 
Q 43.890625 -1.421875 31.78125 -1.421875 
Q 19.734375 -1.421875 13.203125 4.125 
Q 6.6875 9.671875 6.6875 19.921875 
Q 6.6875 27.6875 11.328125 32.6875 
Q 15.96875 37.703125 24.3125 38.8125 
Q 16.9375 40.140625 13 44.40625 
Q 9.078125 48.6875 9.078125 55.328125 
Q 9.078125 64.109375 15.125 69.15625 
Q 21.1875 74.21875 31.78125 74.21875 
Q 42.390625 74.21875 48.4375 69.15625 
Q 54.5 64.109375 54.5 55.328125 
Q 54.5 48.6875 50.5625 44.40625 
Q 46.625 40.140625 39.3125 38.8125 
z
" id="DejaVuSerif-56"/>
      </defs>
      <g transform="translate(537.893466 472.927969)scale(0.13 -0.13)">
       <use xlink:href="#DejaVuSerif-56"/>
      </g>
     </g>
    </g>
    <g id="xtick_6">
     <g id="line2d_6">
      <g>
       <use style="stroke:#000000;stroke-width:1.3;" x="647.541818" xlink:href="#mc1f4914d8e" y="450.45"/>
      </g>
     </g>
     <g id="text_6">
      <!-- 10 -->
      <defs>
       <path d="M 14.203125 0 
L 14.203125 5.171875 
L 26.90625 5.171875 
L 26.90625 65.828125 
L 12.203125 56.296875 
L 12.203125 62.703125 
L 29.984375 74.21875 
L 36.71875 74.21875 
L 36.71875 5.171875 
L 49.421875 5.171875 
L 49.421875 0 
z
" id="DejaVuSerif-49"/>
      </defs>
      <g transform="translate(639.270568 472.927969)scale(0.13 -0.13)">
       <use xlink:href="#DejaVuSerif-49"/>
       <use x="63.623047" xlink:href="#DejaVuSerif-48"/>
      </g>
     </g>
    </g>
    <g id="text_7">
     <!-- Time, $t$ -->
     <defs>
      <path d="M 19.09375 0 
L 19.09375 5.171875 
L 28.421875 5.171875 
L 28.421875 67.09375 
L 6.984375 67.09375 
L 6.984375 55.71875 
L 0.984375 55.71875 
L 0.984375 72.90625 
L 65.71875 72.90625 
L 65.71875 55.71875 
L 59.71875 55.71875 
L 59.71875 67.09375 
L 38.28125 67.09375 
L 38.28125 5.171875 
L 47.609375 5.171875 
L 47.609375 0 
z
" id="DejaVuSerif-84"/>
      <path d="M 9.71875 68.015625 
Q 9.71875 70.265625 11.34375 71.921875 
Q 12.984375 73.578125 15.28125 73.578125 
Q 17.53125 73.578125 19.15625 71.921875 
Q 20.796875 70.265625 20.796875 68.015625 
Q 20.796875 65.71875 19.1875 64.109375 
Q 17.578125 62.5 15.28125 62.5 
Q 12.984375 62.5 11.34375 64.109375 
Q 9.71875 65.71875 9.71875 68.015625 
z
M 21.1875 5.171875 
L 29.6875 5.171875 
L 29.6875 0 
L 3.609375 0 
L 3.609375 5.171875 
L 12.203125 5.171875 
L 12.203125 46.6875 
L 3.609375 46.6875 
L 3.609375 51.90625 
L 21.1875 51.90625 
z
" id="DejaVuSerif-105"/>
      <path d="M 51.8125 41.796875 
Q 54.390625 47.515625 58.421875 50.421875 
Q 62.453125 53.328125 67.828125 53.328125 
Q 75.984375 53.328125 79.984375 48.265625 
Q 83.984375 43.21875 83.984375 33.015625 
L 83.984375 5.171875 
L 92.09375 5.171875 
L 92.09375 0 
L 67.1875 0 
L 67.1875 5.171875 
L 75 5.171875 
L 75 31.984375 
Q 75 39.9375 72.65625 43.3125 
Q 70.3125 46.6875 64.890625 46.6875 
Q 58.890625 46.6875 55.734375 42.140625 
Q 52.59375 37.59375 52.59375 28.90625 
L 52.59375 5.171875 
L 60.40625 5.171875 
L 60.40625 0 
L 35.796875 0 
L 35.796875 5.171875 
L 43.609375 5.171875 
L 43.609375 32.328125 
Q 43.609375 40.09375 41.265625 43.390625 
Q 38.921875 46.6875 33.5 46.6875 
Q 27.484375 46.6875 24.328125 42.140625 
Q 21.1875 37.59375 21.1875 28.90625 
L 21.1875 5.171875 
L 29 5.171875 
L 29 0 
L 4.109375 0 
L 4.109375 5.171875 
L 12.203125 5.171875 
L 12.203125 46.78125 
L 3.609375 46.78125 
L 3.609375 51.90625 
L 21.1875 51.90625 
L 21.1875 42.671875 
Q 23.6875 47.859375 27.53125 50.59375 
Q 31.390625 53.328125 36.28125 53.328125 
Q 42.328125 53.328125 46.375 50.3125 
Q 50.4375 47.3125 51.8125 41.796875 
z
" id="DejaVuSerif-109"/>
      <path d="M 54.203125 25 
L 15.484375 25 
L 15.484375 24.609375 
Q 15.484375 14.109375 19.4375 8.765625 
Q 23.390625 3.421875 31.109375 3.421875 
Q 37.015625 3.421875 40.796875 6.515625 
Q 44.578125 9.625 46.09375 15.71875 
L 53.328125 15.71875 
Q 51.171875 7.171875 45.375 2.875 
Q 39.59375 -1.421875 30.171875 -1.421875 
Q 18.796875 -1.421875 11.890625 6.078125 
Q 4.984375 13.578125 4.984375 25.984375 
Q 4.984375 38.28125 11.765625 45.796875 
Q 18.5625 53.328125 29.59375 53.328125 
Q 41.359375 53.328125 47.65625 46.0625 
Q 53.953125 38.8125 54.203125 25 
z
M 43.609375 30.171875 
Q 43.3125 39.265625 39.765625 43.875 
Q 36.234375 48.484375 29.59375 48.484375 
Q 23.390625 48.484375 19.828125 43.84375 
Q 16.265625 39.203125 15.484375 30.171875 
z
" id="DejaVuSerif-101"/>
      <path d="M 3.609375 -9.71875 
Q 8.203125 -6.34375 10.34375 -1.78125 
Q 12.5 2.78125 12.5 9.28125 
L 12.5 11.078125 
L 22.125 11.078125 
Q 21.734375 2.734375 18.1875 -3.25 
Q 14.65625 -9.234375 7.515625 -13.625 
z
" id="DejaVuSerif-44"/>
      <path id="DejaVuSerif-32"/>
      <path d="M 42.28125 54.6875 
L 40.921875 47.703125 
L 23 47.703125 
L 17.1875 18.015625 
Q 16.890625 16.359375 16.75 15.234375 
Q 16.609375 14.109375 16.609375 13.484375 
Q 16.609375 10.359375 18.484375 8.9375 
Q 20.359375 7.515625 24.515625 7.515625 
L 33.59375 7.515625 
L 32.078125 0 
L 23.484375 0 
Q 15.484375 0 11.546875 3.125 
Q 7.625 6.25 7.625 12.59375 
Q 7.625 13.71875 7.765625 15.0625 
Q 7.90625 16.40625 8.203125 18.015625 
L 14.015625 47.703125 
L 6.390625 47.703125 
L 7.8125 54.6875 
L 15.28125 54.6875 
L 18.3125 70.21875 
L 27.296875 70.21875 
L 24.3125 54.6875 
z
" id="DejaVuSans-Oblique-116"/>
     </defs>
     <g transform="translate(358.306 490.497328)scale(0.143 -0.143)">
      <use transform="translate(0 0.421875)" xlink:href="#DejaVuSerif-84"/>
      <use transform="translate(66.699219 0.421875)" xlink:href="#DejaVuSerif-105"/>
      <use transform="translate(98.681641 0.421875)" xlink:href="#DejaVuSerif-109"/>
      <use transform="translate(193.505859 0.421875)" xlink:href="#DejaVuSerif-101"/>
      <use transform="translate(252.685547 0.421875)" xlink:href="#DejaVuSerif-44"/>
      <use transform="translate(284.472656 0.421875)" xlink:href="#DejaVuSerif-32"/>
      <use transform="translate(316.259766 0.421875)" xlink:href="#DejaVuSans-Oblique-116"/>
     </g>
    </g>
   </g>
   <g id="matplotlib.axis_2">
    <g id="ytick_1">
     <g id="line2d_7">
      <defs>
       <path d="M 0 0 
L -3.5 0 
" id="mcbce052b5b" style="stroke:#000000;stroke-width:1.3;"/>
      </defs>
      <g>
       <use style="stroke:#000000;stroke-width:1.3;" x="93.6" xlink:href="#mcbce052b5b" y="432.783"/>
      </g>
     </g>
     <g id="text_8">
      <!-- 0.0 -->
      <defs>
       <path d="M 9.421875 5.078125 
Q 9.421875 7.8125 11.28125 9.71875 
Q 13.140625 11.625 15.921875 11.625 
Q 18.609375 11.625 20.5 9.71875 
Q 22.40625 7.8125 22.40625 5.078125 
Q 22.40625 2.390625 20.5 0.484375 
Q 18.609375 -1.421875 15.921875 -1.421875 
Q 13.140625 -1.421875 11.28125 0.453125 
Q 9.421875 2.34375 9.421875 5.078125 
z
" id="DejaVuSerif-46"/>
      </defs>
      <g transform="translate(60.325938 437.721984)scale(0.13 -0.13)">
       <use xlink:href="#DejaVuSerif-48"/>
       <use x="63.623047" xlink:href="#DejaVuSerif-46"/>
       <use x="95.410156" xlink:href="#DejaVuSerif-48"/>
      </g>
     </g>
    </g>
    <g id="ytick_2">
     <g id="line2d_8">
      <g>
       <use style="stroke:#000000;stroke-width:1.3;" x="93.6" xlink:href="#mcbce052b5b" y="362.129575"/>
      </g>
     </g>
     <g id="text_9">
      <!-- 0.2 -->
      <g transform="translate(60.325938 367.068559)scale(0.13 -0.13)">
       <use xlink:href="#DejaVuSerif-48"/>
       <use x="63.623047" xlink:href="#DejaVuSerif-46"/>
       <use x="95.410156" xlink:href="#DejaVuSerif-50"/>
      </g>
     </g>
    </g>
    <g id="ytick_3">
     <g id="line2d_9">
      <g>
       <use style="stroke:#000000;stroke-width:1.3;" x="93.6" xlink:href="#mcbce052b5b" y="291.47615"/>
      </g>
     </g>
     <g id="text_10">
      <!-- 0.4 -->
      <g transform="translate(60.325938 296.415135)scale(0.13 -0.13)">
       <use xlink:href="#DejaVuSerif-48"/>
       <use x="63.623047" xlink:href="#DejaVuSerif-46"/>
       <use x="95.410156" xlink:href="#DejaVuSerif-52"/>
      </g>
     </g>
    </g>
    <g id="ytick_4">
     <g id="line2d_10">
      <g>
       <use style="stroke:#000000;stroke-width:1.3;" x="93.6" xlink:href="#mcbce052b5b" y="220.822725"/>
      </g>
     </g>
     <g id="text_11">
      <!-- 0.6 -->
      <g transform="translate(60.325938 225.76171)scale(0.13 -0.13)">
       <use xlink:href="#DejaVuSerif-48"/>
       <use x="63.623047" xlink:href="#DejaVuSerif-46"/>
       <use x="95.410156" xlink:href="#DejaVuSerif-54"/>
      </g>
     </g>
    </g>
    <g id="ytick_5">
     <g id="line2d_11">
      <g>
       <use style="stroke:#000000;stroke-width:1.3;" x="93.6" xlink:href="#mcbce052b5b" y="150.1693"/>
      </g>
     </g>
     <g id="text_12">
      <!-- 0.8 -->
      <g transform="translate(60.325938 155.108285)scale(0.13 -0.13)">
       <use xlink:href="#DejaVuSerif-48"/>
       <use x="63.623047" xlink:href="#DejaVuSerif-46"/>
       <use x="95.410156" xlink:href="#DejaVuSerif-56"/>
      </g>
     </g>
    </g>
    <g id="ytick_6">
     <g id="line2d_12">
      <g>
       <use style="stroke:#000000;stroke-width:1.3;" x="93.6" xlink:href="#mcbce052b5b" y="79.515875"/>
      </g>
     </g>
     <g id="text_13">
      <!-- 1.0 -->
      <g transform="translate(60.325938 84.45486)scale(0.13 -0.13)">
       <use xlink:href="#DejaVuSerif-49"/>
       <use x="63.623047" xlink:href="#DejaVuSerif-46"/>
       <use x="95.410156" xlink:href="#DejaVuSerif-48"/>
      </g>
     </g>
    </g>
    <g id="text_14">
     <!-- Probability -->
     <defs>
      <path d="M 24.703125 37.109375 
L 37.59375 37.109375 
Q 44.875 37.109375 48.671875 41.03125 
Q 52.484375 44.96875 52.484375 52.390625 
Q 52.484375 59.859375 48.671875 63.765625 
Q 44.875 67.671875 37.59375 67.671875 
L 24.703125 67.671875 
z
M 5.515625 0 
L 5.515625 5.171875 
L 14.796875 5.171875 
L 14.796875 67.671875 
L 5.515625 67.671875 
L 5.515625 72.90625 
L 39.984375 72.90625 
Q 50.921875 72.90625 57.3125 67.359375 
Q 63.71875 61.8125 63.71875 52.390625 
Q 63.71875 43.015625 57.3125 37.453125 
Q 50.921875 31.890625 39.984375 31.890625 
L 24.703125 31.890625 
L 24.703125 5.171875 
L 35.984375 5.171875 
L 35.984375 0 
z
" id="DejaVuSerif-80"/>
      <path d="M 47.796875 52 
L 47.796875 39.015625 
L 42.625 39.015625 
Q 42.390625 42.875 40.484375 44.78125 
Q 38.578125 46.6875 34.90625 46.6875 
Q 28.265625 46.6875 24.71875 42.09375 
Q 21.1875 37.5 21.1875 28.90625 
L 21.1875 5.171875 
L 31.59375 5.171875 
L 31.59375 0 
L 4.109375 0 
L 4.109375 5.171875 
L 12.203125 5.171875 
L 12.203125 46.78125 
L 3.609375 46.78125 
L 3.609375 51.90625 
L 21.1875 51.90625 
L 21.1875 42.671875 
Q 23.828125 48.09375 27.96875 50.703125 
Q 32.125 53.328125 38.09375 53.328125 
Q 40.28125 53.328125 42.703125 52.984375 
Q 45.125 52.640625 47.796875 52 
z
" id="DejaVuSerif-114"/>
      <path d="M 30.078125 3.421875 
Q 37.3125 3.421875 40.984375 9.125 
Q 44.671875 14.84375 44.671875 25.984375 
Q 44.671875 37.109375 40.984375 42.796875 
Q 37.3125 48.484375 30.078125 48.484375 
Q 22.859375 48.484375 19.171875 42.796875 
Q 15.484375 37.109375 15.484375 25.984375 
Q 15.484375 14.84375 19.1875 9.125 
Q 22.90625 3.421875 30.078125 3.421875 
z
M 30.078125 -1.421875 
Q 18.75 -1.421875 11.859375 6.078125 
Q 4.984375 13.578125 4.984375 25.984375 
Q 4.984375 38.375 11.84375 45.84375 
Q 18.703125 53.328125 30.078125 53.328125 
Q 41.453125 53.328125 48.3125 45.84375 
Q 55.171875 38.375 55.171875 25.984375 
Q 55.171875 13.578125 48.3125 6.078125 
Q 41.453125 -1.421875 30.078125 -1.421875 
z
" id="DejaVuSerif-111"/>
      <path d="M 11.53125 5.171875 
L 11.53125 70.796875 
L 2.875 70.796875 
L 2.875 75.984375 
L 20.515625 75.984375 
L 20.515625 43.796875 
Q 23.140625 48.6875 27.21875 51 
Q 31.296875 53.328125 37.3125 53.328125 
Q 46.875 53.328125 52.921875 45.75 
Q 58.984375 38.1875 58.984375 25.984375 
Q 58.984375 13.765625 52.921875 6.171875 
Q 46.875 -1.421875 37.3125 -1.421875 
Q 31.296875 -1.421875 27.21875 0.890625 
Q 23.140625 3.21875 20.515625 8.109375 
L 20.515625 0 
L 2.875 0 
L 2.875 5.171875 
z
M 20.515625 23.390625 
Q 20.515625 14.015625 24.09375 9.109375 
Q 27.6875 4.203125 34.515625 4.203125 
Q 41.40625 4.203125 44.9375 9.71875 
Q 48.484375 15.234375 48.484375 25.984375 
Q 48.484375 36.765625 44.9375 42.234375 
Q 41.40625 47.703125 34.515625 47.703125 
Q 27.6875 47.703125 24.09375 42.765625 
Q 20.515625 37.84375 20.515625 28.515625 
z
" id="DejaVuSerif-98"/>
      <path d="M 39.796875 16.3125 
L 39.796875 27.296875 
L 28.21875 27.296875 
Q 21.53125 27.296875 18.25 24.40625 
Q 14.984375 21.53125 14.984375 15.578125 
Q 14.984375 10.15625 18.296875 6.984375 
Q 21.625 3.8125 27.296875 3.8125 
Q 32.90625 3.8125 36.34375 7.28125 
Q 39.796875 10.75 39.796875 16.3125 
z
M 48.78125 32.421875 
L 48.78125 5.171875 
L 56.78125 5.171875 
L 56.78125 0 
L 39.796875 0 
L 39.796875 5.609375 
Q 36.8125 2 32.90625 0.28125 
Q 29 -1.421875 23.78125 -1.421875 
Q 15.140625 -1.421875 10.0625 3.171875 
Q 4.984375 7.765625 4.984375 15.578125 
Q 4.984375 23.640625 10.796875 28.078125 
Q 16.609375 32.515625 27.203125 32.515625 
L 39.796875 32.515625 
L 39.796875 36.078125 
Q 39.796875 42 36.203125 45.234375 
Q 32.625 48.484375 26.125 48.484375 
Q 20.75 48.484375 17.578125 46.046875 
Q 14.40625 43.609375 13.625 38.8125 
L 8.984375 38.8125 
L 8.984375 49.3125 
Q 13.671875 51.3125 18.09375 52.3125 
Q 22.515625 53.328125 26.703125 53.328125 
Q 37.5 53.328125 43.140625 47.96875 
Q 48.78125 42.625 48.78125 32.421875 
z
" id="DejaVuSerif-97"/>
      <path d="M 20.515625 5.171875 
L 29 5.171875 
L 29 0 
L 2.875 0 
L 2.875 5.171875 
L 11.53125 5.171875 
L 11.53125 70.796875 
L 2.875 70.796875 
L 2.875 75.984375 
L 20.515625 75.984375 
z
" id="DejaVuSerif-108"/>
      <path d="M 10.796875 46.6875 
L 2.875 46.6875 
L 2.875 51.90625 
L 10.796875 51.90625 
L 10.796875 68.015625 
L 19.828125 68.015625 
L 19.828125 51.90625 
L 36.71875 51.90625 
L 36.71875 46.6875 
L 19.828125 46.6875 
L 19.828125 13.71875 
Q 19.828125 7.125 21.09375 5.265625 
Q 22.359375 3.421875 25.78125 3.421875 
Q 29.296875 3.421875 30.90625 5.484375 
Q 32.515625 7.5625 32.625 12.203125 
L 39.40625 12.203125 
Q 39.015625 5.125 35.546875 1.84375 
Q 32.078125 -1.421875 25 -1.421875 
Q 17.234375 -1.421875 14.015625 2.015625 
Q 10.796875 5.46875 10.796875 13.71875 
z
" id="DejaVuSerif-116"/>
      <path d="M 21.578125 -9.515625 
L 25 -0.875 
L 5.609375 46.6875 
L -0.296875 46.6875 
L -0.296875 51.90625 
L 23.578125 51.90625 
L 23.578125 46.6875 
L 15.28125 46.6875 
L 29.890625 10.984375 
L 44.484375 46.6875 
L 36.71875 46.6875 
L 36.71875 51.90625 
L 56.203125 51.90625 
L 56.203125 46.6875 
L 50.390625 46.6875 
L 26.609375 -11.71875 
Q 24.171875 -17.78125 21.1875 -20 
Q 18.21875 -22.21875 12.796875 -22.21875 
Q 10.5 -22.21875 8.078125 -21.828125 
Q 5.671875 -21.4375 3.21875 -20.703125 
L 3.21875 -10.796875 
L 7.8125 -10.796875 
Q 8.109375 -14.109375 9.5 -15.546875 
Q 10.890625 -17 13.8125 -17 
Q 16.5 -17 18.140625 -15.5 
Q 19.78125 -14.015625 21.578125 -9.515625 
z
" id="DejaVuSerif-121"/>
     </defs>
     <g transform="translate(53.148656 295.836836)rotate(-90)scale(0.143 -0.143)">
      <use xlink:href="#DejaVuSerif-80"/>
      <use x="67.285156" xlink:href="#DejaVuSerif-114"/>
      <use x="115.087891" xlink:href="#DejaVuSerif-111"/>
      <use x="175.292969" xlink:href="#DejaVuSerif-98"/>
      <use x="239.306641" xlink:href="#DejaVuSerif-97"/>
      <use x="298.925781" xlink:href="#DejaVuSerif-98"/>
      <use x="362.939453" xlink:href="#DejaVuSerif-105"/>
      <use x="394.921875" xlink:href="#DejaVuSerif-108"/>
      <use x="426.904297" xlink:href="#DejaVuSerif-105"/>
      <use x="458.886719" xlink:href="#DejaVuSerif-116"/>
      <use x="499.072266" xlink:href="#DejaVuSerif-121"/>
     </g>
    </g>
   </g>
   <g id="line2d_13">
    <path clip-path="url(#pc1d59a4cf9)" d="M 119.978182 79.515875 
L 121.562457 79.67512 
L 123.146732 80.152351 
L 124.731007 80.946073 
L 126.315283 82.053797 
L 127.899558 83.47204 
L 129.483833 85.196351 
L 131.068108 87.221357 
L 132.652383 89.540795 
L 134.76475 93.078977 
L 136.877117 97.108726 
L 138.989484 101.60838 
L 141.629943 107.8572 
L 144.270401 114.751958 
L 146.91086 122.237473 
L 150.07941 131.917788 
L 153.776052 144.039664 
L 158.000786 158.772577 
L 163.281704 178.122216 
L 173.843538 218.023749 
L 180.180639 241.491671 
L 184.933464 258.31667 
L 189.158198 272.469505 
L 192.85484 284.09541 
L 196.023391 293.416924 
L 199.191941 302.077924 
L 202.360491 310.018937 
L 205.00095 316.046807 
L 207.641409 321.506292 
L 209.753776 325.445197 
L 211.866143 328.987707 
L 213.978509 332.120276 
L 216.090876 334.829946 
L 218.203243 337.104335 
L 219.787518 338.517284 
L 221.371794 339.674023 
L 222.956069 340.570528 
L 224.540344 341.203128 
L 226.124619 341.568518 
L 227.708894 341.66379 
L 229.29317 341.486457 
L 230.877445 341.034475 
L 232.46172 340.306275 
L 234.045995 339.300779 
L 235.63027 338.017432 
L 237.214545 336.456218 
L 238.798821 334.617687 
L 240.383096 332.502973 
L 242.495463 329.257018 
L 244.60783 325.53224 
L 246.720197 321.338501 
L 248.832563 316.687399 
L 251.473022 310.252226 
L 254.113481 303.15823 
L 256.753939 295.445228 
L 259.92249 285.438073 
L 263.09104 274.698539 
L 266.787682 261.383843 
L 271.012416 245.350206 
L 277.349517 220.280512 
L 287.911351 178.364202 
L 292.664177 160.532829 
L 296.360819 147.489147 
L 299.529369 137.030242 
L 302.69792 127.340082 
L 305.338378 119.913352 
L 307.978837 113.120787 
L 310.619296 106.998621 
L 312.731663 102.605029 
L 314.844029 98.674183 
L 316.956396 95.216859 
L 319.068763 92.241245 
L 320.653038 90.329115 
L 322.237314 88.692536 
L 323.821589 87.332074 
L 325.405864 86.247475 
L 326.990139 85.437666 
L 328.574414 84.901232 
L 330.15869 84.637748 
L 331.742965 84.644951 
L 333.32724 84.920029 
L 334.911515 85.459826 
L 336.49579 86.260852 
L 338.080066 87.319287 
L 339.664341 88.631 
L 341.248616 90.191551 
L 343.360983 92.65114 
L 345.47335 95.532645 
L 347.585717 98.823192 
L 349.698084 102.510089 
L 352.338542 107.655165 
L 354.979001 113.368607 
L 357.619459 119.620053 
L 360.78801 127.788193 
L 363.95656 136.631407 
L 367.125111 146.093424 
L 370.821753 157.833773 
L 375.046486 172.044815 
L 379.799312 188.83943 
L 386.136413 212.115114 
L 399.338706 260.885264 
L 404.091532 277.441739 
L 407.788174 289.573963 
L 410.956724 299.309122 
L 414.125274 308.319385 
L 416.765733 315.203061 
L 419.406192 321.460459 
L 421.518559 325.981545 
L 423.630925 330.04597 
L 425.743292 333.632196 
L 427.855659 336.720915 
L 429.439934 338.700701 
L 431.02421 340.384889 
L 432.608485 341.76814 
L 434.19276 342.846094 
L 435.777035 343.616256 
L 437.36131 344.076304 
L 438.945586 344.224616 
L 440.529861 344.06061 
L 442.114136 343.584729 
L 443.698411 342.798434 
L 445.282686 341.704189 
L 446.866962 340.305455 
L 448.451237 338.606674 
L 450.035512 336.613267 
L 451.619787 334.331617 
L 453.732154 330.853869 
L 455.844521 326.896877 
L 457.956888 322.481464 
L 460.597346 316.352269 
L 463.237805 309.592411 
L 465.878264 302.255676 
L 469.046814 292.770204 
L 472.743456 280.894247 
L 476.96819 266.460821 
L 482.249107 247.496041 
L 491.754758 212.244122 
L 499.148043 185.248301 
L 503.900868 168.645098 
L 508.125602 154.633659 
L 511.822244 143.087194 
L 515.518886 132.315444 
L 518.687437 123.77222 
L 521.855987 115.925024 
L 524.496446 109.957652 
L 527.136904 104.545713 
L 529.777363 99.717688 
L 531.88973 96.294253 
L 534.002097 93.275905 
L 536.114464 90.675961 
L 538.22683 88.507313 
L 539.811106 87.171367 
L 541.395381 86.090101 
L 542.979656 85.268417 
L 544.563931 84.710999 
L 546.148206 84.420921 
L 547.732482 84.401056 
L 549.316757 84.654225 
L 550.901032 85.18266 
L 552.485307 85.987999 
L 554.069582 87.071272 
L 555.653857 88.432899 
L 557.238133 90.072681 
L 558.822408 91.989796 
L 560.934775 94.974758 
L 563.047142 98.444919 
L 565.159509 102.392993 
L 567.271876 106.807043 
L 569.384242 111.673668 
L 572.024701 118.369936 
L 574.66516 125.713362 
L 577.305618 133.661145 
L 580.474169 143.926369 
L 584.170811 156.782331 
L 588.395545 172.423016 
L 593.676462 192.98567 
L 610.047305 257.637138 
L 614.272039 273.001743 
L 617.968681 285.554049 
L 621.137232 295.522205 
L 623.77769 303.20255 
L 626.418149 310.265743 
L 629.058608 316.672658 
L 631.170975 321.302415 
L 633.283342 325.475627 
L 635.395708 329.180496 
L 637.508075 332.40783 
L 639.620442 335.150978 
L 641.204717 336.887988 
L 642.788993 338.349377 
L 644.373268 339.535024 
L 645.957543 340.445399 
L 647.541818 341.080613 
L 647.541818 341.080613 
" style="fill:none;stroke:#1f77b4;stroke-linecap:square;stroke-width:2.275;"/>
   </g>
   <g id="line2d_14">
    <path clip-path="url(#pc1d59a4cf9)" d="M 119.978182 432.783 
L 122.090549 432.641504 
L 124.202916 432.218148 
L 126.315283 431.516316 
L 128.427649 430.541578 
L 130.540016 429.301585 
L 132.652383 427.80605 
L 134.76475 426.066555 
L 137.405209 423.569379 
L 140.045667 420.740681 
L 142.686126 417.612095 
L 145.854676 413.510736 
L 149.551319 408.326623 
L 153.776052 401.99819 
L 159.585061 392.847827 
L 174.37163 369.326673 
L 179.652547 361.402888 
L 184.405373 354.636277 
L 189.158198 348.262821 
L 193.382932 342.948904 
L 197.607666 337.974726 
L 201.8324 333.366752 
L 205.529042 329.647723 
L 209.225684 326.240511 
L 212.394234 323.591069 
L 215.562785 321.219056 
L 218.731335 319.156778 
L 221.371794 317.700137 
L 224.012252 316.50123 
L 226.652711 315.578289 
L 228.765078 315.050908 
L 230.877445 314.721274 
L 232.989812 314.598935 
L 235.102179 314.69359 
L 237.214545 315.015117 
L 239.326912 315.573593 
L 241.439279 316.37929 
L 243.551646 317.437749 
L 245.664013 318.747034 
L 247.77638 320.310636 
L 249.888747 322.129559 
L 252.001114 324.202142 
L 254.641572 327.142918 
L 257.282031 330.459724 
L 259.92249 334.133579 
L 263.09104 338.979634 
L 266.25959 344.255451 
L 269.956233 350.867496 
L 274.180966 358.897424 
L 280.518067 371.513219 
L 288.967535 388.343132 
L 293.192269 396.31377 
L 296.888911 402.859428 
L 300.057461 408.071002 
L 303.226011 412.856778 
L 305.86647 416.486435 
L 308.506929 419.767079 
L 311.147387 422.684696 
L 313.787846 425.228132 
L 315.900213 426.988952 
L 318.01258 428.505038 
L 320.124947 429.777137 
L 322.237314 430.807528 
L 324.349681 431.599812 
L 326.462048 432.158707 
L 328.574414 432.489836 
L 330.686781 432.599293 
L 332.799148 432.493813 
L 334.911515 432.180651 
L 337.023882 431.667352 
L 339.136249 430.96153 
L 341.776708 429.81986 
L 344.417166 428.402713 
L 347.057625 426.722203 
L 349.698084 424.789011 
L 352.338542 422.613728 
L 355.507093 419.696023 
L 358.675643 416.455256 
L 361.844193 412.902476 
L 365.012744 409.046731 
L 368.709386 404.175208 
L 372.406028 398.919209 
L 376.10267 393.296262 
L 380.327404 386.451119 
L 385.080229 378.280724 
L 390.889238 367.779922 
L 408.316265 335.830389 
L 412.012907 329.677583 
L 415.181458 324.784376 
L 418.350008 320.318301 
L 420.990467 316.974687 
L 423.630925 314.014605 
L 425.743292 311.945049 
L 427.855659 310.157292 
L 429.968026 308.664822 
L 432.080393 307.479593 
L 434.19276 306.611861 
L 435.777035 306.171259 
L 437.36131 305.912554 
L 438.945586 305.837724 
L 440.529861 305.947796 
L 442.114136 306.242817 
L 443.698411 306.721847 
L 445.282686 307.382953 
L 447.395053 308.542462 
L 449.50742 310.010724 
L 451.619787 311.775112 
L 453.732154 313.820136 
L 456.372613 316.743423 
L 459.013071 320.044168 
L 461.65353 323.686886 
L 464.82208 328.45479 
L 468.518722 334.475542 
L 472.743456 341.817583 
L 479.080557 353.370285 
L 490.698575 374.656682 
L 495.979492 383.809259 
L 500.732318 391.572324 
L 504.957052 398.033147 
L 508.653694 403.311091 
L 512.350336 408.215301 
L 516.046978 412.730179 
L 519.215528 416.281263 
L 522.384079 419.530906 
L 525.552629 422.466436 
L 528.721179 425.071583 
L 531.361638 426.977923 
L 534.002097 428.631297 
L 536.642555 430.018697 
L 539.283014 431.126084 
L 541.395381 431.800432 
L 543.507748 432.278188 
L 545.620115 432.551258 
L 547.732482 432.611817 
L 549.844848 432.452489 
L 551.957215 432.066264 
L 554.069582 431.446739 
L 556.181949 430.588373 
L 558.294316 429.486746 
L 560.406683 428.138819 
L 562.51905 426.543196 
L 564.631417 424.700376 
L 567.271876 422.052741 
L 569.912334 419.03019 
L 572.552793 415.645229 
L 575.193251 411.915069 
L 578.361802 407.014855 
L 581.530352 401.698453 
L 585.226994 395.05143 
L 589.451728 386.999507 
L 596.316921 373.335359 
L 604.238296 357.643421 
L 608.46303 349.727889 
L 612.159672 343.247391 
L 615.328223 338.111305 
L 618.496773 333.421801 
L 621.137232 329.887173 
L 623.77769 326.71189 
L 626.418149 323.909434 
L 628.530516 321.943786 
L 630.642883 320.22795 
L 632.75525 318.763779 
L 634.867617 317.551083 
L 636.979984 316.587513 
L 639.092351 315.868475 
L 641.204717 315.387055 
L 643.317084 315.133991 
L 645.429451 315.09769 
L 647.541818 315.269833 
L 647.541818 315.269833 
" style="fill:none;stroke:#ff7f0e;stroke-linecap:square;stroke-width:2.275;"/>
   </g>
   <g id="line2d_15">
    <path clip-path="url(#pc1d59a4cf9)" d="M 119.978182 432.783 
L 122.090549 432.641504 
L 124.202916 432.218148 
L 126.315283 431.516316 
L 128.427649 430.541578 
L 130.540016 429.301585 
L 132.652383 427.80605 
L 134.76475 426.066555 
L 137.405209 423.569379 
L 140.045667 420.740681 
L 142.686126 417.612095 
L 145.854676 413.510736 
L 149.551319 408.326623 
L 153.776052 401.99819 
L 159.585061 392.847827 
L 174.37163 369.326673 
L 179.652547 361.402888 
L 184.405373 354.636277 
L 189.158198 348.262821 
L 193.382932 342.948904 
L 197.607666 337.974726 
L 201.8324 333.366752 
L 205.529042 329.647723 
L 209.225684 326.240511 
L 212.394234 323.591069 
L 215.562785 321.219056 
L 218.731335 319.156778 
L 221.371794 317.700137 
L 224.012252 316.50123 
L 226.652711 315.578289 
L 228.765078 315.050908 
L 230.877445 314.721274 
L 232.989812 314.598935 
L 235.102179 314.69359 
L 237.214545 315.015117 
L 239.326912 315.573593 
L 241.439279 316.37929 
L 243.551646 317.437749 
L 245.664013 318.747034 
L 247.77638 320.310636 
L 249.888747 322.129559 
L 252.001114 324.202142 
L 254.641572 327.142918 
L 257.282031 330.459724 
L 259.92249 334.133579 
L 263.09104 338.979634 
L 266.25959 344.255451 
L 269.956233 350.867496 
L 274.180966 358.897424 
L 280.518067 371.513219 
L 288.967535 388.343132 
L 293.192269 396.31377 
L 296.888911 402.859428 
L 300.057461 408.071002 
L 303.226011 412.856778 
L 305.86647 416.486435 
L 308.506929 419.767079 
L 311.147387 422.684696 
L 313.787846 425.228132 
L 315.900213 426.988952 
L 318.01258 428.505038 
L 320.124947 429.777137 
L 322.237314 430.807528 
L 324.349681 431.599812 
L 326.462048 432.158707 
L 328.574414 432.489836 
L 330.686781 432.599293 
L 332.799148 432.493813 
L 334.911515 432.180651 
L 337.023882 431.667352 
L 339.136249 430.96153 
L 341.776708 429.81986 
L 344.417166 428.402713 
L 347.057625 426.722203 
L 349.698084 424.789011 
L 352.338542 422.613728 
L 355.507093 419.696023 
L 358.675643 416.455256 
L 361.844193 412.902476 
L 365.012744 409.046731 
L 368.709386 404.175208 
L 372.406028 398.919209 
L 376.10267 393.296262 
L 380.327404 386.451119 
L 385.080229 378.280724 
L 390.889238 367.779922 
L 408.316265 335.830389 
L 412.012907 329.677583 
L 415.181458 324.784376 
L 418.350008 320.318301 
L 420.990467 316.974687 
L 423.630925 314.014605 
L 425.743292 311.945049 
L 427.855659 310.157292 
L 429.968026 308.664822 
L 432.080393 307.479593 
L 434.19276 306.611861 
L 435.777035 306.171259 
L 437.36131 305.912554 
L 438.945586 305.837724 
L 440.529861 305.947796 
L 442.114136 306.242817 
L 443.698411 306.721847 
L 445.282686 307.382953 
L 447.395053 308.542462 
L 449.50742 310.010724 
L 451.619787 311.775112 
L 453.732154 313.820136 
L 456.372613 316.743423 
L 459.013071 320.044168 
L 461.65353 323.686886 
L 464.82208 328.45479 
L 468.518722 334.475542 
L 472.743456 341.817583 
L 479.080557 353.370285 
L 490.698575 374.656682 
L 495.979492 383.809259 
L 500.732318 391.572324 
L 504.957052 398.033147 
L 508.653694 403.311091 
L 512.350336 408.215301 
L 516.046978 412.730179 
L 519.215528 416.281263 
L 522.384079 419.530906 
L 525.552629 422.466436 
L 528.721179 425.071583 
L 531.361638 426.977923 
L 534.002097 428.631297 
L 536.642555 430.018697 
L 539.283014 431.126084 
L 541.395381 431.800432 
L 543.507748 432.278188 
L 545.620115 432.551258 
L 547.732482 432.611817 
L 549.844848 432.452489 
L 551.957215 432.066264 
L 554.069582 431.446739 
L 556.181949 430.588373 
L 558.294316 429.486746 
L 560.406683 428.138819 
L 562.51905 426.543196 
L 564.631417 424.700376 
L 567.271876 422.052741 
L 569.912334 419.03019 
L 572.552793 415.645229 
L 575.193251 411.915069 
L 578.361802 407.014855 
L 581.530352 401.698453 
L 585.226994 395.05143 
L 589.451728 386.999507 
L 596.316921 373.335359 
L 604.238296 357.643421 
L 608.46303 349.727889 
L 612.159672 343.247391 
L 615.328223 338.111305 
L 618.496773 333.421801 
L 621.137232 329.887173 
L 623.77769 326.71189 
L 626.418149 323.909434 
L 628.530516 321.943786 
L 630.642883 320.22795 
L 632.75525 318.763779 
L 634.867617 317.551083 
L 636.979984 316.587513 
L 639.092351 315.868475 
L 641.204717 315.387055 
L 643.317084 315.133991 
L 645.429451 315.09769 
L 647.541818 315.269833 
L 647.541818 315.269833 
" style="fill:none;stroke:#2ca02c;stroke-dasharray:8.4175,3.64;stroke-dashoffset:0;stroke-width:2.275;"/>
   </g>
   <g id="line2d_16">
    <path clip-path="url(#pc1d59a4cf9)" d="M 119.978182 432.783 
L 133.708567 432.685473 
L 138.989484 432.436627 
L 143.214218 432.037481 
L 146.91086 431.487149 
L 150.607502 430.706507 
L 153.776052 429.828956 
L 156.944603 428.744954 
L 160.113153 427.447378 
L 163.281704 425.938094 
L 166.978346 423.921736 
L 170.674988 421.658579 
L 175.427813 418.472212 
L 191.270565 407.526007 
L 194.967207 405.396481 
L 198.135758 403.834608 
L 200.776216 402.74573 
L 203.416675 401.88203 
L 206.057133 401.265909 
L 208.697592 400.911219 
L 211.338051 400.822961 
L 213.978509 400.997811 
L 216.618968 401.42537 
L 219.259427 402.089866 
L 221.899885 402.972397 
L 225.068436 404.296221 
L 228.236986 405.878734 
L 231.933628 407.996637 
L 236.686454 411.015179 
L 247.248288 417.832972 
L 251.473022 420.263758 
L 255.169664 422.13897 
L 258.338215 423.526029 
L 261.506765 424.690596 
L 264.675315 425.622107 
L 267.843866 426.325717 
L 271.012416 426.819986 
L 274.709058 427.153059 
L 278.4057 427.261698 
L 283.158526 427.155966 
L 292.136085 426.646816 
L 299.001278 426.354337 
L 304.810287 426.337961 
L 310.091204 426.545489 
L 316.956396 427.060462 
L 328.046323 427.931368 
L 332.799148 428.04735 
L 337.023882 427.911447 
L 340.720524 427.568143 
L 344.417166 426.989956 
L 348.113808 426.170604 
L 351.81045 425.11839 
L 356.035184 423.668213 
L 361.316102 421.583847 
L 376.10267 415.522895 
L 379.799312 414.328045 
L 382.967862 413.508296 
L 386.136413 412.901776 
L 389.304963 412.520163 
L 392.473514 412.368549 
L 395.642064 412.451756 
L 398.810614 412.768554 
L 401.979165 413.306554 
L 405.675807 414.177504 
L 410.428632 415.572148 
L 425.743292 420.297112 
L 429.439934 421.103044 
L 432.608485 421.590692 
L 435.777035 421.864004 
L 438.945586 421.918396 
L 442.114136 421.744343 
L 445.282686 421.344031 
L 448.451237 420.732388 
L 452.147879 419.789977 
L 456.900704 418.326019 
L 471.687273 413.557397 
L 475.383915 412.69266 
L 478.552465 412.167848 
L 481.721016 411.860586 
L 484.889566 411.793398 
L 488.058116 411.979752 
L 491.226667 412.416932 
L 494.395217 413.089085 
L 497.563767 413.972098 
L 501.26041 415.231137 
L 506.013235 417.109413 
L 512.878428 420.107907 
L 519.74362 423.044041 
L 523.968354 424.622111 
L 527.664996 425.788562 
L 531.361638 426.730359 
L 535.05828 427.438741 
L 538.754922 427.913463 
L 542.451564 428.163034 
L 546.676298 428.202641 
L 551.429124 428.010081 
L 559.878591 427.38241 
L 568.328059 426.84064 
L 574.137068 426.708717 
L 579.417985 426.806653 
L 587.339361 427.216592 
L 595.260737 427.58727 
L 600.013563 427.575181 
L 603.710205 427.349128 
L 607.406847 426.880463 
L 610.575397 426.256752 
L 613.743948 425.406285 
L 616.912498 424.318535 
L 620.081048 422.994752 
L 623.77769 421.174088 
L 627.474333 419.097345 
L 631.699066 416.475187 
L 638.564259 411.903001 
L 644.90136 407.754574 
L 647.541818 406.177628 
L 647.541818 406.177628 
" style="fill:none;stroke:#d62728;stroke-linecap:square;stroke-width:2.275;"/>
   </g>
   <g id="line2d_17">
    <path clip-path="url(#pc1d59a4cf9)" d="M 119.978182 79.515875 
L 647.541818 79.448907 
L 647.541818 79.448907 
" style="fill:none;stroke:#9467bd;stroke-linecap:square;stroke-width:2.275;"/>
   </g>
   <g id="patch_3">
    <path d="M 93.6 450.45 
L 93.6 61.776 
" style="fill:none;stroke:#000000;stroke-linecap:square;stroke-linejoin:miter;stroke-width:0.8;"/>
   </g>
   <g id="patch_4">
    <path d="M 673.92 450.45 
L 673.92 61.776 
" style="fill:none;stroke:#000000;stroke-linecap:square;stroke-linejoin:miter;stroke-width:0.8;"/>
   </g>
   <g id="patch_5">
    <path d="M 93.6 450.45 
L 673.92 450.45 
" style="fill:none;stroke:#000000;stroke-linecap:square;stroke-linejoin:miter;stroke-width:0.8;"/>
   </g>
   <g id="patch_6">
    <path d="M 93.6 61.776 
L 673.92 61.776 
" style="fill:none;stroke:#000000;stroke-linecap:square;stroke-linejoin:miter;stroke-width:0.8;"/>
   </g>
   <g id="text_15">
    <!-- V=1 -->
    <defs>
     <path d="M 17.484375 67.671875 
L 39.015625 11.71875 
L 60.5 67.671875 
L 52.296875 67.671875 
L 52.296875 72.90625 
L 73.6875 72.90625 
L 73.6875 67.671875 
L 66.609375 67.671875 
L 40.578125 0 
L 32.171875 0 
L 6.296875 67.671875 
L -0.984375 67.671875 
L -0.984375 72.90625 
L 25.59375 72.90625 
L 25.59375 67.671875 
z
" id="DejaVuSerif-86"/>
     <path d="M 10.59375 45.21875 
L 73.1875 45.21875 
L 73.1875 37.40625 
L 10.59375 37.40625 
z
M 10.59375 25.296875 
L 73.1875 25.296875 
L 73.1875 17.484375 
L 10.59375 17.484375 
z
" id="DejaVuSerif-61"/>
    </defs>
    <g style="opacity:0.75;" transform="translate(119.978182 256.149438)scale(0.18 -0.18)">
     <use xlink:href="#DejaVuSerif-86"/>
     <use x="72.216797" xlink:href="#DejaVuSerif-61"/>
     <use x="156.005859" xlink:href="#DejaVuSerif-49"/>
    </g>
   </g>
   <g id="legend_1">
    <g id="line2d_18">
     <path d="M 129.633359 22.4549 
L 155.633359 22.4549 
" style="fill:none;stroke:#1f77b4;stroke-linecap:square;stroke-width:2.275;"/>
    </g>
    <g id="line2d_19"/>
    <g id="text_16">
     <!-- $|c_{11}|^2$ -->
     <defs>
      <path d="M 21 76.421875 
L 21 -23.578125 
L 12.703125 -23.578125 
L 12.703125 76.421875 
z
" id="DejaVuSans-124"/>
      <path d="M 53.609375 52.59375 
L 51.8125 43.703125 
Q 48.578125 46.046875 44.9375 47.21875 
Q 41.3125 48.390625 37.40625 48.390625 
Q 33.109375 48.390625 29.21875 46.875 
Q 25.34375 45.359375 22.703125 42.578125 
Q 18.5 38.328125 16.203125 32.609375 
Q 13.921875 26.90625 13.921875 20.796875 
Q 13.921875 13.421875 17.609375 9.8125 
Q 21.296875 6.203125 28.8125 6.203125 
Q 32.515625 6.203125 36.6875 7.328125 
Q 40.875 8.453125 45.40625 10.6875 
L 43.703125 1.8125 
Q 39.796875 0.203125 35.671875 -0.609375 
Q 31.546875 -1.421875 27.203125 -1.421875 
Q 16.3125 -1.421875 10.453125 4.015625 
Q 4.59375 9.46875 4.59375 19.578125 
Q 4.59375 28.078125 7.640625 35.234375 
Q 10.6875 42.390625 16.703125 48.09375 
Q 20.796875 52 26.3125 54 
Q 31.84375 56 38.375 56 
Q 42.1875 56 45.9375 55.140625 
Q 49.703125 54.296875 53.609375 52.59375 
z
" id="DejaVuSans-Oblique-99"/>
      <path d="M 12.40625 8.296875 
L 28.515625 8.296875 
L 28.515625 63.921875 
L 10.984375 60.40625 
L 10.984375 69.390625 
L 28.421875 72.90625 
L 38.28125 72.90625 
L 38.28125 8.296875 
L 54.390625 8.296875 
L 54.390625 0 
L 12.40625 0 
z
" id="DejaVuSans-49"/>
      <path d="M 19.1875 8.296875 
L 53.609375 8.296875 
L 53.609375 0 
L 7.328125 0 
L 7.328125 8.296875 
Q 12.9375 14.109375 22.625 23.890625 
Q 32.328125 33.6875 34.8125 36.53125 
Q 39.546875 41.84375 41.421875 45.53125 
Q 43.3125 49.21875 43.3125 52.78125 
Q 43.3125 58.59375 39.234375 62.25 
Q 35.15625 65.921875 28.609375 65.921875 
Q 23.96875 65.921875 18.8125 64.3125 
Q 13.671875 62.703125 7.8125 59.421875 
L 7.8125 69.390625 
Q 13.765625 71.78125 18.9375 73 
Q 24.125 74.21875 28.421875 74.21875 
Q 39.75 74.21875 46.484375 68.546875 
Q 53.21875 62.890625 53.21875 53.421875 
Q 53.21875 48.921875 51.53125 44.890625 
Q 49.859375 40.875 45.40625 35.40625 
Q 44.1875 33.984375 37.640625 27.21875 
Q 31.109375 20.453125 19.1875 8.296875 
z
" id="DejaVuSans-50"/>
     </defs>
     <g transform="translate(166.033359 27.0049)scale(0.13 -0.13)">
      <use transform="translate(0 0.765625)" xlink:href="#DejaVuSans-124"/>
      <use transform="translate(33.691406 0.765625)" xlink:href="#DejaVuSans-Oblique-99"/>
      <use transform="translate(88.671875 -15.640625)scale(0.7)" xlink:href="#DejaVuSans-49"/>
      <use transform="translate(133.208008 -15.640625)scale(0.7)" xlink:href="#DejaVuSans-49"/>
      <use transform="translate(180.478516 0.765625)" xlink:href="#DejaVuSans-124"/>
      <use transform="translate(215.126953 39.046875)scale(0.7)" xlink:href="#DejaVuSans-50"/>
     </g>
    </g>
    <g id="line2d_20">
     <path d="M 226.223359 22.4549 
L 252.223359 22.4549 
" style="fill:none;stroke:#ff7f0e;stroke-linecap:square;stroke-width:2.275;"/>
    </g>
    <g id="line2d_21"/>
    <g id="text_17">
     <!-- $|c_{1r}|^2$ -->
     <defs>
      <path d="M 44.578125 46.390625 
Q 43.21875 47.125 41.453125 47.515625 
Q 39.703125 47.90625 37.703125 47.90625 
Q 30.515625 47.90625 25.140625 42.453125 
Q 19.78125 37.015625 18.015625 27.875 
L 12.5 0 
L 3.515625 0 
L 14.203125 54.6875 
L 23.1875 54.6875 
L 21.484375 46.1875 
Q 25.046875 50.921875 30 53.453125 
Q 34.96875 56 40.578125 56 
Q 42.046875 56 43.453125 55.828125 
Q 44.875 55.671875 46.296875 55.28125 
z
" id="DejaVuSans-Oblique-114"/>
     </defs>
     <g transform="translate(262.623359 27.0049)scale(0.13 -0.13)">
      <use transform="translate(0 0.765625)" xlink:href="#DejaVuSans-124"/>
      <use transform="translate(33.691406 0.765625)" xlink:href="#DejaVuSans-Oblique-99"/>
      <use transform="translate(88.671875 -15.640625)scale(0.7)" xlink:href="#DejaVuSans-49"/>
      <use transform="translate(133.208008 -15.640625)scale(0.7)" xlink:href="#DejaVuSans-Oblique-114"/>
      <use transform="translate(164.72168 0.765625)" xlink:href="#DejaVuSans-124"/>
      <use transform="translate(199.370117 39.046875)scale(0.7)" xlink:href="#DejaVuSans-50"/>
     </g>
    </g>
    <g id="line2d_22">
     <path d="M 320.733359 22.4549 
L 346.733359 22.4549 
" style="fill:none;stroke:#2ca02c;stroke-dasharray:8.4175,3.64;stroke-dashoffset:0;stroke-width:2.275;"/>
    </g>
    <g id="line2d_23"/>
    <g id="text_18">
     <!-- $|c_{r1}|^2$ -->
     <g transform="translate(357.133359 27.0049)scale(0.13 -0.13)">
      <use transform="translate(0 0.765625)" xlink:href="#DejaVuSans-124"/>
      <use transform="translate(33.691406 0.765625)" xlink:href="#DejaVuSans-Oblique-99"/>
      <use transform="translate(88.671875 -15.640625)scale(0.7)" xlink:href="#DejaVuSans-Oblique-114"/>
      <use transform="translate(117.451172 -15.640625)scale(0.7)" xlink:href="#DejaVuSans-49"/>
      <use transform="translate(164.72168 0.765625)" xlink:href="#DejaVuSans-124"/>
      <use transform="translate(199.370117 39.046875)scale(0.7)" xlink:href="#DejaVuSans-50"/>
     </g>
    </g>
    <g id="line2d_24">
     <path d="M 415.243359 22.4549 
L 441.243359 22.4549 
" style="fill:none;stroke:#d62728;stroke-linecap:square;stroke-width:2.275;"/>
    </g>
    <g id="line2d_25"/>
    <g id="text_19">
     <!-- $|c_{rr}|^2$ -->
     <g transform="translate(451.643359 27.0049)scale(0.13 -0.13)">
      <use transform="translate(0 0.765625)" xlink:href="#DejaVuSans-124"/>
      <use transform="translate(33.691406 0.765625)" xlink:href="#DejaVuSans-Oblique-99"/>
      <use transform="translate(88.671875 -15.640625)scale(0.7)" xlink:href="#DejaVuSans-Oblique-114"/>
      <use transform="translate(117.451172 -15.640625)scale(0.7)" xlink:href="#DejaVuSans-Oblique-114"/>
      <use transform="translate(148.964844 0.765625)" xlink:href="#DejaVuSans-124"/>
      <use transform="translate(183.613281 39.046875)scale(0.7)" xlink:href="#DejaVuSans-50"/>
     </g>
    </g>
    <g id="line2d_26">
     <path d="M 507.673359 22.4549 
L 533.673359 22.4549 
" style="fill:none;stroke:#9467bd;stroke-linecap:square;stroke-width:2.275;"/>
    </g>
    <g id="line2d_27"/>
    <g id="text_20">
     <!-- Normalisation -->
     <defs>
      <path d="M 4.890625 0 
L 4.890625 5.171875 
L 14.703125 5.171875 
L 14.703125 67.671875 
L 4.890625 67.671875 
L 4.890625 72.90625 
L 23.578125 72.90625 
L 67.28125 15.375 
L 67.28125 67.671875 
L 57.515625 67.671875 
L 57.515625 72.90625 
L 83.109375 72.90625 
L 83.109375 67.671875 
L 73.296875 67.671875 
L 73.296875 -1.421875 
L 67.390625 -1.421875 
L 20.703125 60.015625 
L 20.703125 5.171875 
L 30.515625 5.171875 
L 30.515625 0 
z
" id="DejaVuSerif-78"/>
      <path d="M 5.609375 2.875 
L 5.609375 14.984375 
L 10.796875 14.984375 
Q 10.984375 9.1875 14.421875 6.296875 
Q 17.875 3.421875 24.609375 3.421875 
Q 30.671875 3.421875 33.84375 5.6875 
Q 37.015625 7.953125 37.015625 12.3125 
Q 37.015625 15.71875 34.6875 17.8125 
Q 32.375 19.921875 24.90625 22.3125 
L 18.40625 24.515625 
Q 11.71875 26.65625 8.71875 29.875 
Q 5.71875 33.109375 5.71875 38.09375 
Q 5.71875 45.21875 10.9375 49.265625 
Q 16.15625 53.328125 25.390625 53.328125 
Q 29.5 53.328125 34.03125 52.25 
Q 38.578125 51.171875 43.40625 49.125 
L 43.40625 37.796875 
L 38.234375 37.796875 
Q 38.03125 42.828125 34.703125 45.65625 
Q 31.390625 48.484375 25.6875 48.484375 
Q 20.015625 48.484375 17.109375 46.484375 
Q 14.203125 44.484375 14.203125 40.484375 
Q 14.203125 37.203125 16.40625 35.21875 
Q 18.609375 33.25 25.203125 31.203125 
L 32.328125 29 
Q 39.703125 26.703125 42.9375 23.265625 
Q 46.1875 19.828125 46.1875 14.40625 
Q 46.1875 7.03125 40.546875 2.796875 
Q 34.90625 -1.421875 25 -1.421875 
Q 19.96875 -1.421875 15.1875 -0.34375 
Q 10.40625 0.734375 5.609375 2.875 
z
" id="DejaVuSerif-115"/>
      <path d="M 4.109375 0 
L 4.109375 5.171875 
L 12.203125 5.171875 
L 12.203125 46.6875 
L 3.609375 46.6875 
L 3.609375 51.90625 
L 21.1875 51.90625 
L 21.1875 42.671875 
Q 23.6875 47.953125 27.65625 50.640625 
Q 31.640625 53.328125 36.921875 53.328125 
Q 45.515625 53.328125 49.5625 48.390625 
Q 53.609375 43.453125 53.609375 33.015625 
L 53.609375 5.171875 
L 61.625 5.171875 
L 61.625 0 
L 36.8125 0 
L 36.8125 5.171875 
L 44.578125 5.171875 
L 44.578125 30.171875 
Q 44.578125 39.703125 42.234375 43.234375 
Q 39.890625 46.78125 33.984375 46.78125 
Q 27.734375 46.78125 24.453125 42.203125 
Q 21.1875 37.640625 21.1875 28.90625 
L 21.1875 5.171875 
L 29 5.171875 
L 29 0 
z
" id="DejaVuSerif-110"/>
     </defs>
     <g transform="translate(544.073359 27.0049)scale(0.13 -0.13)">
      <use xlink:href="#DejaVuSerif-78"/>
      <use x="87.5" xlink:href="#DejaVuSerif-111"/>
      <use x="147.705078" xlink:href="#DejaVuSerif-114"/>
      <use x="195.507812" xlink:href="#DejaVuSerif-109"/>
      <use x="290.332031" xlink:href="#DejaVuSerif-97"/>
      <use x="349.951172" xlink:href="#DejaVuSerif-108"/>
      <use x="381.933594" xlink:href="#DejaVuSerif-105"/>
      <use x="413.916016" xlink:href="#DejaVuSerif-115"/>
      <use x="465.234375" xlink:href="#DejaVuSerif-97"/>
      <use x="524.853516" xlink:href="#DejaVuSerif-116"/>
      <use x="565.039062" xlink:href="#DejaVuSerif-105"/>
      <use x="597.021484" xlink:href="#DejaVuSerif-111"/>
      <use x="657.226562" xlink:href="#DejaVuSerif-110"/>
     </g>
    </g>
   </g>
  </g>
 </g>
 <defs>
  <clipPath id="pc1d59a4cf9">
   <rect height="388.674" width="580.32" x="93.6" y="61.776"/>
  </clipPath>
 </defs>
</svg>
