<?xml version="1.0" encoding="utf-8" standalone="no"?>
<!DOCTYPE svg PUBLIC "-//W3C//DTD SVG 1.1//EN"
  "http://www.w3.org/Graphics/SVG/1.1/DTD/svg11.dtd">
<!-- Created with matplotlib (https://matplotlib.org/) -->
<svg height="514.8pt" version="1.1" viewBox="0 0 748.8 514.8" width="748.8pt" xmlns="http://www.w3.org/2000/svg" xmlns:xlink="http://www.w3.org/1999/xlink">
 <defs>
  <style type="text/css">
*{stroke-linecap:butt;stroke-linejoin:round;}
  </style>
 </defs>
 <g id="figure_1">
  <g id="patch_1">
   <path d="M 0 514.8 
L 748.8 514.8 
L 748.8 0 
L 0 0 
z
" style="fill:#ffffff;"/>
  </g>
  <g id="axes_1">
   <g id="patch_2">
    <path d="M 93.6 450.45 
L 673.92 450.45 
L 673.92 61.776 
L 93.6 61.776 
z
" style="fill:#ffffff;"/>
   </g>
   <g id="matplotlib.axis_1">
    <g id="xtick_1">
     <g id="line2d_1">
      <defs>
       <path d="M 0 0 
L 0 3.5 
" id="m42ee615022" style="stroke:#000000;stroke-width:1.3;"/>
      </defs>
      <g>
       <use style="stroke:#000000;stroke-width:1.3;" x="119.978182" xlink:href="#m42ee615022" y="450.45"/>
      </g>
     </g>
     <g id="text_1">
      <!-- 0 -->
      <defs>
       <path d="M 31.78125 3.421875 
Q 39.265625 3.421875 42.96875 11.625 
Q 46.6875 19.828125 46.6875 36.375 
Q 46.6875 52.984375 42.96875 61.1875 
Q 39.265625 69.390625 31.78125 69.390625 
Q 24.3125 69.390625 20.59375 61.1875 
Q 16.890625 52.984375 16.890625 36.375 
Q 16.890625 19.828125 20.59375 11.625 
Q 24.3125 3.421875 31.78125 3.421875 
z
M 31.78125 -1.421875 
Q 19.921875 -1.421875 13.25 8.53125 
Q 6.59375 18.5 6.59375 36.375 
Q 6.59375 54.296875 13.25 64.25 
Q 19.921875 74.21875 31.78125 74.21875 
Q 43.703125 74.21875 50.34375 64.25 
Q 56.984375 54.296875 56.984375 36.375 
Q 56.984375 18.5 50.34375 8.53125 
Q 43.703125 -1.421875 31.78125 -1.421875 
z
" id="DejaVuSerif-48"/>
      </defs>
      <g transform="translate(115.842557 472.927969)scale(0.13 -0.13)">
       <use xlink:href="#DejaVuSerif-48"/>
      </g>
     </g>
    </g>
    <g id="xtick_2">
     <g id="line2d_2">
      <g>
       <use style="stroke:#000000;stroke-width:1.3;" x="225.490909" xlink:href="#m42ee615022" y="450.45"/>
      </g>
     </g>
     <g id="text_2">
      <!-- 2 -->
      <defs>
       <path d="M 12.796875 55.515625 
L 7.328125 55.515625 
L 7.328125 68.5 
Q 12.546875 71.296875 17.84375 72.75 
Q 23.140625 74.21875 28.21875 74.21875 
Q 39.59375 74.21875 46.1875 68.703125 
Q 52.78125 63.1875 52.78125 53.71875 
Q 52.78125 43.015625 37.84375 28.125 
Q 36.671875 27 36.078125 26.421875 
L 17.671875 8.015625 
L 48.09375 8.015625 
L 48.09375 17 
L 53.8125 17 
L 53.8125 0 
L 6.78125 0 
L 6.78125 5.328125 
L 28.90625 27.390625 
Q 36.234375 34.71875 39.359375 40.84375 
Q 42.484375 46.96875 42.484375 53.71875 
Q 42.484375 61.078125 38.640625 65.234375 
Q 34.8125 69.390625 28.078125 69.390625 
Q 21.09375 69.390625 17.28125 65.921875 
Q 13.484375 62.453125 12.796875 55.515625 
z
" id="DejaVuSerif-50"/>
      </defs>
      <g transform="translate(221.355284 472.927969)scale(0.13 -0.13)">
       <use xlink:href="#DejaVuSerif-50"/>
      </g>
     </g>
    </g>
    <g id="xtick_3">
     <g id="line2d_3">
      <g>
       <use style="stroke:#000000;stroke-width:1.3;" x="331.003636" xlink:href="#m42ee615022" y="450.45"/>
      </g>
     </g>
     <g id="text_3">
      <!-- 4 -->
      <defs>
       <path d="M 34.90625 24.703125 
L 34.90625 63.484375 
L 10.015625 24.703125 
z
M 56.390625 0 
L 23.1875 0 
L 23.1875 5.171875 
L 34.90625 5.171875 
L 34.90625 19.484375 
L 3.078125 19.484375 
L 3.078125 24.8125 
L 35.015625 74.21875 
L 44.671875 74.21875 
L 44.671875 24.703125 
L 58.59375 24.703125 
L 58.59375 19.484375 
L 44.671875 19.484375 
L 44.671875 5.171875 
L 56.390625 5.171875 
z
" id="DejaVuSerif-52"/>
      </defs>
      <g transform="translate(326.868011 472.927969)scale(0.13 -0.13)">
       <use xlink:href="#DejaVuSerif-52"/>
      </g>
     </g>
    </g>
    <g id="xtick_4">
     <g id="line2d_4">
      <g>
       <use style="stroke:#000000;stroke-width:1.3;" x="436.516364" xlink:href="#m42ee615022" y="450.45"/>
      </g>
     </g>
     <g id="text_4">
      <!-- 6 -->
      <defs>
       <path d="M 32.71875 3.421875 
Q 39.59375 3.421875 43.296875 8.46875 
Q 47.015625 13.53125 47.015625 23 
Q 47.015625 32.46875 43.296875 37.515625 
Q 39.59375 42.578125 32.71875 42.578125 
Q 25.734375 42.578125 22.0625 37.6875 
Q 18.40625 32.8125 18.40625 23.578125 
Q 18.40625 13.875 22.109375 8.640625 
Q 25.828125 3.421875 32.71875 3.421875 
z
M 16.796875 40.140625 
Q 20.125 43.796875 24.3125 45.59375 
Q 28.515625 47.40625 33.796875 47.40625 
Q 44.671875 47.40625 51 40.859375 
Q 57.328125 34.328125 57.328125 23 
Q 57.328125 11.921875 50.515625 5.25 
Q 43.703125 -1.421875 32.328125 -1.421875 
Q 19.96875 -1.421875 13.328125 7.78125 
Q 6.6875 17 6.6875 34.078125 
Q 6.6875 53.21875 14.546875 63.71875 
Q 22.40625 74.21875 36.71875 74.21875 
Q 40.578125 74.21875 44.828125 73.484375 
Q 49.078125 72.75 53.515625 71.296875 
L 53.515625 59.28125 
L 48 59.28125 
Q 47.40625 64.203125 44.234375 66.796875 
Q 41.0625 69.390625 35.6875 69.390625 
Q 26.21875 69.390625 21.578125 62.203125 
Q 16.9375 55.03125 16.796875 40.140625 
z
" id="DejaVuSerif-54"/>
      </defs>
      <g transform="translate(432.380739 472.927969)scale(0.13 -0.13)">
       <use xlink:href="#DejaVuSerif-54"/>
      </g>
     </g>
    </g>
    <g id="xtick_5">
     <g id="line2d_5">
      <g>
       <use style="stroke:#000000;stroke-width:1.3;" x="542.029091" xlink:href="#m42ee615022" y="450.45"/>
      </g>
     </g>
     <g id="text_5">
      <!-- 8 -->
      <defs>
       <path d="M 46.578125 19.921875 
Q 46.578125 27.734375 42.6875 32.046875 
Q 38.8125 36.375 31.78125 36.375 
Q 24.75 36.375 20.875 32.046875 
Q 17 27.734375 17 19.921875 
Q 17 12.0625 20.875 7.734375 
Q 24.75 3.421875 31.78125 3.421875 
Q 38.8125 3.421875 42.6875 7.734375 
Q 46.578125 12.0625 46.578125 19.921875 
z
M 44.578125 55.328125 
Q 44.578125 61.96875 41.203125 65.671875 
Q 37.84375 69.390625 31.78125 69.390625 
Q 25.78125 69.390625 22.390625 65.671875 
Q 19 61.96875 19 55.328125 
Q 19 48.640625 22.390625 44.921875 
Q 25.78125 41.21875 31.78125 41.21875 
Q 37.84375 41.21875 41.203125 44.921875 
Q 44.578125 48.640625 44.578125 55.328125 
z
M 39.3125 38.8125 
Q 47.609375 37.703125 52.25 32.6875 
Q 56.890625 27.6875 56.890625 19.921875 
Q 56.890625 9.671875 50.390625 4.125 
Q 43.890625 -1.421875 31.78125 -1.421875 
Q 19.734375 -1.421875 13.203125 4.125 
Q 6.6875 9.671875 6.6875 19.921875 
Q 6.6875 27.6875 11.328125 32.6875 
Q 15.96875 37.703125 24.3125 38.8125 
Q 16.9375 40.140625 13 44.40625 
Q 9.078125 48.6875 9.078125 55.328125 
Q 9.078125 64.109375 15.125 69.15625 
Q 21.1875 74.21875 31.78125 74.21875 
Q 42.390625 74.21875 48.4375 69.15625 
Q 54.5 64.109375 54.5 55.328125 
Q 54.5 48.6875 50.5625 44.40625 
Q 46.625 40.140625 39.3125 38.8125 
z
" id="DejaVuSerif-56"/>
      </defs>
      <g transform="translate(537.893466 472.927969)scale(0.13 -0.13)">
       <use xlink:href="#DejaVuSerif-56"/>
      </g>
     </g>
    </g>
    <g id="xtick_6">
     <g id="line2d_6">
      <g>
       <use style="stroke:#000000;stroke-width:1.3;" x="647.541818" xlink:href="#m42ee615022" y="450.45"/>
      </g>
     </g>
     <g id="text_6">
      <!-- 10 -->
      <defs>
       <path d="M 14.203125 0 
L 14.203125 5.171875 
L 26.90625 5.171875 
L 26.90625 65.828125 
L 12.203125 56.296875 
L 12.203125 62.703125 
L 29.984375 74.21875 
L 36.71875 74.21875 
L 36.71875 5.171875 
L 49.421875 5.171875 
L 49.421875 0 
z
" id="DejaVuSerif-49"/>
      </defs>
      <g transform="translate(639.270568 472.927969)scale(0.13 -0.13)">
       <use xlink:href="#DejaVuSerif-49"/>
       <use x="63.623047" xlink:href="#DejaVuSerif-48"/>
      </g>
     </g>
    </g>
    <g id="text_7">
     <!-- Time, $t$ -->
     <defs>
      <path d="M 19.09375 0 
L 19.09375 5.171875 
L 28.421875 5.171875 
L 28.421875 67.09375 
L 6.984375 67.09375 
L 6.984375 55.71875 
L 0.984375 55.71875 
L 0.984375 72.90625 
L 65.71875 72.90625 
L 65.71875 55.71875 
L 59.71875 55.71875 
L 59.71875 67.09375 
L 38.28125 67.09375 
L 38.28125 5.171875 
L 47.609375 5.171875 
L 47.609375 0 
z
" id="DejaVuSerif-84"/>
      <path d="M 9.71875 68.015625 
Q 9.71875 70.265625 11.34375 71.921875 
Q 12.984375 73.578125 15.28125 73.578125 
Q 17.53125 73.578125 19.15625 71.921875 
Q 20.796875 70.265625 20.796875 68.015625 
Q 20.796875 65.71875 19.1875 64.109375 
Q 17.578125 62.5 15.28125 62.5 
Q 12.984375 62.5 11.34375 64.109375 
Q 9.71875 65.71875 9.71875 68.015625 
z
M 21.1875 5.171875 
L 29.6875 5.171875 
L 29.6875 0 
L 3.609375 0 
L 3.609375 5.171875 
L 12.203125 5.171875 
L 12.203125 46.6875 
L 3.609375 46.6875 
L 3.609375 51.90625 
L 21.1875 51.90625 
z
" id="DejaVuSerif-105"/>
      <path d="M 51.8125 41.796875 
Q 54.390625 47.515625 58.421875 50.421875 
Q 62.453125 53.328125 67.828125 53.328125 
Q 75.984375 53.328125 79.984375 48.265625 
Q 83.984375 43.21875 83.984375 33.015625 
L 83.984375 5.171875 
L 92.09375 5.171875 
L 92.09375 0 
L 67.1875 0 
L 67.1875 5.171875 
L 75 5.171875 
L 75 31.984375 
Q 75 39.9375 72.65625 43.3125 
Q 70.3125 46.6875 64.890625 46.6875 
Q 58.890625 46.6875 55.734375 42.140625 
Q 52.59375 37.59375 52.59375 28.90625 
L 52.59375 5.171875 
L 60.40625 5.171875 
L 60.40625 0 
L 35.796875 0 
L 35.796875 5.171875 
L 43.609375 5.171875 
L 43.609375 32.328125 
Q 43.609375 40.09375 41.265625 43.390625 
Q 38.921875 46.6875 33.5 46.6875 
Q 27.484375 46.6875 24.328125 42.140625 
Q 21.1875 37.59375 21.1875 28.90625 
L 21.1875 5.171875 
L 29 5.171875 
L 29 0 
L 4.109375 0 
L 4.109375 5.171875 
L 12.203125 5.171875 
L 12.203125 46.78125 
L 3.609375 46.78125 
L 3.609375 51.90625 
L 21.1875 51.90625 
L 21.1875 42.671875 
Q 23.6875 47.859375 27.53125 50.59375 
Q 31.390625 53.328125 36.28125 53.328125 
Q 42.328125 53.328125 46.375 50.3125 
Q 50.4375 47.3125 51.8125 41.796875 
z
" id="DejaVuSerif-109"/>
      <path d="M 54.203125 25 
L 15.484375 25 
L 15.484375 24.609375 
Q 15.484375 14.109375 19.4375 8.765625 
Q 23.390625 3.421875 31.109375 3.421875 
Q 37.015625 3.421875 40.796875 6.515625 
Q 44.578125 9.625 46.09375 15.71875 
L 53.328125 15.71875 
Q 51.171875 7.171875 45.375 2.875 
Q 39.59375 -1.421875 30.171875 -1.421875 
Q 18.796875 -1.421875 11.890625 6.078125 
Q 4.984375 13.578125 4.984375 25.984375 
Q 4.984375 38.28125 11.765625 45.796875 
Q 18.5625 53.328125 29.59375 53.328125 
Q 41.359375 53.328125 47.65625 46.0625 
Q 53.953125 38.8125 54.203125 25 
z
M 43.609375 30.171875 
Q 43.3125 39.265625 39.765625 43.875 
Q 36.234375 48.484375 29.59375 48.484375 
Q 23.390625 48.484375 19.828125 43.84375 
Q 16.265625 39.203125 15.484375 30.171875 
z
" id="DejaVuSerif-101"/>
      <path d="M 3.609375 -9.71875 
Q 8.203125 -6.34375 10.34375 -1.78125 
Q 12.5 2.78125 12.5 9.28125 
L 12.5 11.078125 
L 22.125 11.078125 
Q 21.734375 2.734375 18.1875 -3.25 
Q 14.65625 -9.234375 7.515625 -13.625 
z
" id="DejaVuSerif-44"/>
      <path id="DejaVuSerif-32"/>
      <path d="M 42.28125 54.6875 
L 40.921875 47.703125 
L 23 47.703125 
L 17.1875 18.015625 
Q 16.890625 16.359375 16.75 15.234375 
Q 16.609375 14.109375 16.609375 13.484375 
Q 16.609375 10.359375 18.484375 8.9375 
Q 20.359375 7.515625 24.515625 7.515625 
L 33.59375 7.515625 
L 32.078125 0 
L 23.484375 0 
Q 15.484375 0 11.546875 3.125 
Q 7.625 6.25 7.625 12.59375 
Q 7.625 13.71875 7.765625 15.0625 
Q 7.90625 16.40625 8.203125 18.015625 
L 14.015625 47.703125 
L 6.390625 47.703125 
L 7.8125 54.6875 
L 15.28125 54.6875 
L 18.3125 70.21875 
L 27.296875 70.21875 
L 24.3125 54.6875 
z
" id="DejaVuSans-Oblique-116"/>
     </defs>
     <g transform="translate(358.306 490.497328)scale(0.143 -0.143)">
      <use transform="translate(0 0.421875)" xlink:href="#DejaVuSerif-84"/>
      <use transform="translate(66.699219 0.421875)" xlink:href="#DejaVuSerif-105"/>
      <use transform="translate(98.681641 0.421875)" xlink:href="#DejaVuSerif-109"/>
      <use transform="translate(193.505859 0.421875)" xlink:href="#DejaVuSerif-101"/>
      <use transform="translate(252.685547 0.421875)" xlink:href="#DejaVuSerif-44"/>
      <use transform="translate(284.472656 0.421875)" xlink:href="#DejaVuSerif-32"/>
      <use transform="translate(316.259766 0.421875)" xlink:href="#DejaVuSans-Oblique-116"/>
     </g>
    </g>
   </g>
   <g id="matplotlib.axis_2">
    <g id="ytick_1">
     <g id="line2d_7">
      <defs>
       <path d="M 0 0 
L -3.5 0 
" id="mfa4731a8d5" style="stroke:#000000;stroke-width:1.3;"/>
      </defs>
      <g>
       <use style="stroke:#000000;stroke-width:1.3;" x="93.6" xlink:href="#mfa4731a8d5" y="432.783"/>
      </g>
     </g>
     <g id="text_8">
      <!-- 0.0 -->
      <defs>
       <path d="M 9.421875 5.078125 
Q 9.421875 7.8125 11.28125 9.71875 
Q 13.140625 11.625 15.921875 11.625 
Q 18.609375 11.625 20.5 9.71875 
Q 22.40625 7.8125 22.40625 5.078125 
Q 22.40625 2.390625 20.5 0.484375 
Q 18.609375 -1.421875 15.921875 -1.421875 
Q 13.140625 -1.421875 11.28125 0.453125 
Q 9.421875 2.34375 9.421875 5.078125 
z
" id="DejaVuSerif-46"/>
      </defs>
      <g transform="translate(60.325938 437.721984)scale(0.13 -0.13)">
       <use xlink:href="#DejaVuSerif-48"/>
       <use x="63.623047" xlink:href="#DejaVuSerif-46"/>
       <use x="95.410156" xlink:href="#DejaVuSerif-48"/>
      </g>
     </g>
    </g>
    <g id="ytick_2">
     <g id="line2d_8">
      <g>
       <use style="stroke:#000000;stroke-width:1.3;" x="93.6" xlink:href="#mfa4731a8d5" y="362.12035"/>
      </g>
     </g>
     <g id="text_9">
      <!-- 0.2 -->
      <g transform="translate(60.325938 367.059334)scale(0.13 -0.13)">
       <use xlink:href="#DejaVuSerif-48"/>
       <use x="63.623047" xlink:href="#DejaVuSerif-46"/>
       <use x="95.410156" xlink:href="#DejaVuSerif-50"/>
      </g>
     </g>
    </g>
    <g id="ytick_3">
     <g id="line2d_9">
      <g>
       <use style="stroke:#000000;stroke-width:1.3;" x="93.6" xlink:href="#mfa4731a8d5" y="291.4577"/>
      </g>
     </g>
     <g id="text_10">
      <!-- 0.4 -->
      <g transform="translate(60.325938 296.396685)scale(0.13 -0.13)">
       <use xlink:href="#DejaVuSerif-48"/>
       <use x="63.623047" xlink:href="#DejaVuSerif-46"/>
       <use x="95.410156" xlink:href="#DejaVuSerif-52"/>
      </g>
     </g>
    </g>
    <g id="ytick_4">
     <g id="line2d_10">
      <g>
       <use style="stroke:#000000;stroke-width:1.3;" x="93.6" xlink:href="#mfa4731a8d5" y="220.79505"/>
      </g>
     </g>
     <g id="text_11">
      <!-- 0.6 -->
      <g transform="translate(60.325938 225.734035)scale(0.13 -0.13)">
       <use xlink:href="#DejaVuSerif-48"/>
       <use x="63.623047" xlink:href="#DejaVuSerif-46"/>
       <use x="95.410156" xlink:href="#DejaVuSerif-54"/>
      </g>
     </g>
    </g>
    <g id="ytick_5">
     <g id="line2d_11">
      <g>
       <use style="stroke:#000000;stroke-width:1.3;" x="93.6" xlink:href="#mfa4731a8d5" y="150.1324"/>
      </g>
     </g>
     <g id="text_12">
      <!-- 0.8 -->
      <g transform="translate(60.325938 155.071385)scale(0.13 -0.13)">
       <use xlink:href="#DejaVuSerif-48"/>
       <use x="63.623047" xlink:href="#DejaVuSerif-46"/>
       <use x="95.410156" xlink:href="#DejaVuSerif-56"/>
      </g>
     </g>
    </g>
    <g id="ytick_6">
     <g id="line2d_12">
      <g>
       <use style="stroke:#000000;stroke-width:1.3;" x="93.6" xlink:href="#mfa4731a8d5" y="79.469751"/>
      </g>
     </g>
     <g id="text_13">
      <!-- 1.0 -->
      <g transform="translate(60.325938 84.408735)scale(0.13 -0.13)">
       <use xlink:href="#DejaVuSerif-49"/>
       <use x="63.623047" xlink:href="#DejaVuSerif-46"/>
       <use x="95.410156" xlink:href="#DejaVuSerif-48"/>
      </g>
     </g>
    </g>
    <g id="text_14">
     <!-- Probability -->
     <defs>
      <path d="M 24.703125 37.109375 
L 37.59375 37.109375 
Q 44.875 37.109375 48.671875 41.03125 
Q 52.484375 44.96875 52.484375 52.390625 
Q 52.484375 59.859375 48.671875 63.765625 
Q 44.875 67.671875 37.59375 67.671875 
L 24.703125 67.671875 
z
M 5.515625 0 
L 5.515625 5.171875 
L 14.796875 5.171875 
L 14.796875 67.671875 
L 5.515625 67.671875 
L 5.515625 72.90625 
L 39.984375 72.90625 
Q 50.921875 72.90625 57.3125 67.359375 
Q 63.71875 61.8125 63.71875 52.390625 
Q 63.71875 43.015625 57.3125 37.453125 
Q 50.921875 31.890625 39.984375 31.890625 
L 24.703125 31.890625 
L 24.703125 5.171875 
L 35.984375 5.171875 
L 35.984375 0 
z
" id="DejaVuSerif-80"/>
      <path d="M 47.796875 52 
L 47.796875 39.015625 
L 42.625 39.015625 
Q 42.390625 42.875 40.484375 44.78125 
Q 38.578125 46.6875 34.90625 46.6875 
Q 28.265625 46.6875 24.71875 42.09375 
Q 21.1875 37.5 21.1875 28.90625 
L 21.1875 5.171875 
L 31.59375 5.171875 
L 31.59375 0 
L 4.109375 0 
L 4.109375 5.171875 
L 12.203125 5.171875 
L 12.203125 46.78125 
L 3.609375 46.78125 
L 3.609375 51.90625 
L 21.1875 51.90625 
L 21.1875 42.671875 
Q 23.828125 48.09375 27.96875 50.703125 
Q 32.125 53.328125 38.09375 53.328125 
Q 40.28125 53.328125 42.703125 52.984375 
Q 45.125 52.640625 47.796875 52 
z
" id="DejaVuSerif-114"/>
      <path d="M 30.078125 3.421875 
Q 37.3125 3.421875 40.984375 9.125 
Q 44.671875 14.84375 44.671875 25.984375 
Q 44.671875 37.109375 40.984375 42.796875 
Q 37.3125 48.484375 30.078125 48.484375 
Q 22.859375 48.484375 19.171875 42.796875 
Q 15.484375 37.109375 15.484375 25.984375 
Q 15.484375 14.84375 19.1875 9.125 
Q 22.90625 3.421875 30.078125 3.421875 
z
M 30.078125 -1.421875 
Q 18.75 -1.421875 11.859375 6.078125 
Q 4.984375 13.578125 4.984375 25.984375 
Q 4.984375 38.375 11.84375 45.84375 
Q 18.703125 53.328125 30.078125 53.328125 
Q 41.453125 53.328125 48.3125 45.84375 
Q 55.171875 38.375 55.171875 25.984375 
Q 55.171875 13.578125 48.3125 6.078125 
Q 41.453125 -1.421875 30.078125 -1.421875 
z
" id="DejaVuSerif-111"/>
      <path d="M 11.53125 5.171875 
L 11.53125 70.796875 
L 2.875 70.796875 
L 2.875 75.984375 
L 20.515625 75.984375 
L 20.515625 43.796875 
Q 23.140625 48.6875 27.21875 51 
Q 31.296875 53.328125 37.3125 53.328125 
Q 46.875 53.328125 52.921875 45.75 
Q 58.984375 38.1875 58.984375 25.984375 
Q 58.984375 13.765625 52.921875 6.171875 
Q 46.875 -1.421875 37.3125 -1.421875 
Q 31.296875 -1.421875 27.21875 0.890625 
Q 23.140625 3.21875 20.515625 8.109375 
L 20.515625 0 
L 2.875 0 
L 2.875 5.171875 
z
M 20.515625 23.390625 
Q 20.515625 14.015625 24.09375 9.109375 
Q 27.6875 4.203125 34.515625 4.203125 
Q 41.40625 4.203125 44.9375 9.71875 
Q 48.484375 15.234375 48.484375 25.984375 
Q 48.484375 36.765625 44.9375 42.234375 
Q 41.40625 47.703125 34.515625 47.703125 
Q 27.6875 47.703125 24.09375 42.765625 
Q 20.515625 37.84375 20.515625 28.515625 
z
" id="DejaVuSerif-98"/>
      <path d="M 39.796875 16.3125 
L 39.796875 27.296875 
L 28.21875 27.296875 
Q 21.53125 27.296875 18.25 24.40625 
Q 14.984375 21.53125 14.984375 15.578125 
Q 14.984375 10.15625 18.296875 6.984375 
Q 21.625 3.8125 27.296875 3.8125 
Q 32.90625 3.8125 36.34375 7.28125 
Q 39.796875 10.75 39.796875 16.3125 
z
M 48.78125 32.421875 
L 48.78125 5.171875 
L 56.78125 5.171875 
L 56.78125 0 
L 39.796875 0 
L 39.796875 5.609375 
Q 36.8125 2 32.90625 0.28125 
Q 29 -1.421875 23.78125 -1.421875 
Q 15.140625 -1.421875 10.0625 3.171875 
Q 4.984375 7.765625 4.984375 15.578125 
Q 4.984375 23.640625 10.796875 28.078125 
Q 16.609375 32.515625 27.203125 32.515625 
L 39.796875 32.515625 
L 39.796875 36.078125 
Q 39.796875 42 36.203125 45.234375 
Q 32.625 48.484375 26.125 48.484375 
Q 20.75 48.484375 17.578125 46.046875 
Q 14.40625 43.609375 13.625 38.8125 
L 8.984375 38.8125 
L 8.984375 49.3125 
Q 13.671875 51.3125 18.09375 52.3125 
Q 22.515625 53.328125 26.703125 53.328125 
Q 37.5 53.328125 43.140625 47.96875 
Q 48.78125 42.625 48.78125 32.421875 
z
" id="DejaVuSerif-97"/>
      <path d="M 20.515625 5.171875 
L 29 5.171875 
L 29 0 
L 2.875 0 
L 2.875 5.171875 
L 11.53125 5.171875 
L 11.53125 70.796875 
L 2.875 70.796875 
L 2.875 75.984375 
L 20.515625 75.984375 
z
" id="DejaVuSerif-108"/>
      <path d="M 10.796875 46.6875 
L 2.875 46.6875 
L 2.875 51.90625 
L 10.796875 51.90625 
L 10.796875 68.015625 
L 19.828125 68.015625 
L 19.828125 51.90625 
L 36.71875 51.90625 
L 36.71875 46.6875 
L 19.828125 46.6875 
L 19.828125 13.71875 
Q 19.828125 7.125 21.09375 5.265625 
Q 22.359375 3.421875 25.78125 3.421875 
Q 29.296875 3.421875 30.90625 5.484375 
Q 32.515625 7.5625 32.625 12.203125 
L 39.40625 12.203125 
Q 39.015625 5.125 35.546875 1.84375 
Q 32.078125 -1.421875 25 -1.421875 
Q 17.234375 -1.421875 14.015625 2.015625 
Q 10.796875 5.46875 10.796875 13.71875 
z
" id="DejaVuSerif-116"/>
      <path d="M 21.578125 -9.515625 
L 25 -0.875 
L 5.609375 46.6875 
L -0.296875 46.6875 
L -0.296875 51.90625 
L 23.578125 51.90625 
L 23.578125 46.6875 
L 15.28125 46.6875 
L 29.890625 10.984375 
L 44.484375 46.6875 
L 36.71875 46.6875 
L 36.71875 51.90625 
L 56.203125 51.90625 
L 56.203125 46.6875 
L 50.390625 46.6875 
L 26.609375 -11.71875 
Q 24.171875 -17.78125 21.1875 -20 
Q 18.21875 -22.21875 12.796875 -22.21875 
Q 10.5 -22.21875 8.078125 -21.828125 
Q 5.671875 -21.4375 3.21875 -20.703125 
L 3.21875 -10.796875 
L 7.8125 -10.796875 
Q 8.109375 -14.109375 9.5 -15.546875 
Q 10.890625 -17 13.8125 -17 
Q 16.5 -17 18.140625 -15.5 
Q 19.78125 -14.015625 21.578125 -9.515625 
z
" id="DejaVuSerif-121"/>
     </defs>
     <g transform="translate(53.148656 295.836836)rotate(-90)scale(0.143 -0.143)">
      <use xlink:href="#DejaVuSerif-80"/>
      <use x="67.285156" xlink:href="#DejaVuSerif-114"/>
      <use x="115.087891" xlink:href="#DejaVuSerif-111"/>
      <use x="175.292969" xlink:href="#DejaVuSerif-98"/>
      <use x="239.306641" xlink:href="#DejaVuSerif-97"/>
      <use x="298.925781" xlink:href="#DejaVuSerif-98"/>
      <use x="362.939453" xlink:href="#DejaVuSerif-105"/>
      <use x="394.921875" xlink:href="#DejaVuSerif-108"/>
      <use x="426.904297" xlink:href="#DejaVuSerif-105"/>
      <use x="458.886719" xlink:href="#DejaVuSerif-116"/>
      <use x="499.072266" xlink:href="#DejaVuSerif-121"/>
     </g>
    </g>
   </g>
   <g id="line2d_13">
    <path clip-path="url(#pa832783229)" d="M 119.978182 79.469751 
L 121.562457 79.629017 
L 123.146732 80.106313 
L 124.731007 80.900146 
L 126.315283 82.008026 
L 127.899558 83.426483 
L 129.483833 85.151121 
L 131.068108 87.176647 
L 132.652383 89.496918 
L 134.76475 93.036919 
L 136.877117 97.069764 
L 138.989484 101.574616 
L 141.629943 107.834552 
L 144.270401 114.748235 
L 146.91086 122.264135 
L 150.07941 132.001773 
L 153.247961 142.429948 
L 156.944603 155.333724 
L 161.697428 172.838604 
L 168.034529 197.195979 
L 180.180639 244.117717 
L 184.933464 261.454963 
L 188.630106 274.154505 
L 191.798657 284.343531 
L 194.967207 293.776101 
L 197.607666 300.985583 
L 200.248124 307.544964 
L 202.360491 312.290502 
L 204.472858 316.564351 
L 206.585225 320.346517 
L 208.697592 323.619001 
L 210.281867 325.729566 
L 211.866143 327.53943 
L 213.450418 329.044227 
L 215.034693 330.240568 
L 216.618968 331.126048 
L 218.203243 331.699258 
L 219.787518 331.959749 
L 221.371794 331.907735 
L 222.956069 331.544298 
L 224.540344 330.871378 
L 226.124619 329.891723 
L 227.708894 328.608863 
L 229.29317 327.027079 
L 230.877445 325.151375 
L 232.46172 322.987446 
L 234.574087 319.66491 
L 236.686454 315.857024 
L 238.798821 311.581499 
L 240.911188 306.857839 
L 243.551646 300.354728 
L 246.192105 293.226655 
L 248.832563 285.518757 
L 252.001114 275.570966 
L 255.697756 263.115758 
L 259.92249 247.947332 
L 264.675315 229.983103 
L 272.0686 201.006752 
L 279.989975 170.11503 
L 284.742801 152.463516 
L 288.439443 139.531256 
L 291.607993 129.159752 
L 294.776544 119.563802 
L 297.417002 112.232324 
L 300.057461 105.561753 
L 302.169828 100.732592 
L 304.282195 96.376788 
L 306.394562 92.511864 
L 308.506929 89.152376 
L 310.091204 86.971993 
L 311.675479 85.087178 
L 313.259754 83.501329 
L 314.844029 82.217027 
L 316.428305 81.236033 
L 318.01258 80.559286 
L 319.596855 80.186903 
L 321.18113 80.118334 
L 322.765405 80.352819 
L 324.349681 80.888615 
L 325.933956 81.723424 
L 327.518231 82.85446 
L 329.102506 84.278446 
L 330.686781 85.991628 
L 332.271057 87.989775 
L 334.383423 91.089118 
L 336.49579 94.674265 
L 338.608157 98.730968 
L 340.720524 103.243581 
L 343.360983 109.499467 
L 346.001441 116.405004 
L 348.6419 123.919816 
L 351.81045 133.677991 
L 354.979001 144.162443 
L 358.675643 157.184943 
L 362.900377 172.905318 
L 368.709386 195.491462 
L 381.383587 245.11284 
L 385.608321 260.644242 
L 389.304963 273.425862 
L 392.473514 283.640185 
L 395.642064 293.063421 
L 398.282523 300.246731 
L 400.922981 306.772802 
L 403.035348 311.493808 
L 405.147715 315.751159 
L 407.260082 319.52883 
L 409.372449 322.813044 
L 411.484816 325.592121 
L 413.069091 327.339057 
L 414.653366 328.79306 
L 416.237641 329.951409 
L 417.821916 330.811984 
L 419.406192 331.373142 
L 420.990467 331.633366 
L 422.574742 331.592105 
L 424.159017 331.249392 
L 425.743292 330.605782 
L 427.327568 329.662349 
L 428.911843 328.420693 
L 430.496118 326.882938 
L 432.080393 325.051736 
L 433.664668 322.930263 
L 435.777035 319.656849 
L 437.889402 315.88619 
L 440.001769 311.63192 
L 442.114136 306.909937 
L 444.754595 300.377791 
L 447.395053 293.184497 
L 450.035512 285.376888 
L 453.204062 275.271826 
L 456.900704 262.597067 
L 461.125438 247.161497 
L 466.406355 226.868326 
L 482.777199 163.159416 
L 487.001933 148.003015 
L 490.698575 135.59483 
L 493.867125 125.71403 
L 497.035676 116.619363 
L 499.676134 109.698121 
L 502.316593 103.4187 
L 504.42896 98.882621 
L 506.541327 94.799037 
L 508.653694 91.184126 
L 510.766061 88.052801 
L 512.350336 86.030133 
L 513.934611 84.292426 
L 515.518886 82.844271 
L 517.103161 81.6898 
L 518.687437 80.832684 
L 520.271712 80.276123 
L 521.855987 80.022837 
L 523.440262 80.075065 
L 525.024537 80.434055 
L 526.608812 81.100182 
L 528.193088 82.073324 
L 529.777363 83.352514 
L 531.361638 84.935947 
L 532.945913 86.820975 
L 534.530188 89.004113 
L 536.642555 92.371089 
L 538.754922 96.247088 
L 540.867289 100.616366 
L 542.979656 105.460439 
L 545.620115 112.150255 
L 548.260573 119.500021 
L 550.901032 127.455342 
L 554.069582 137.717588 
L 557.766224 150.53658 
L 561.990958 166.070881 
L 567.271876 186.38217 
L 582.058444 243.834187 
L 586.283178 259.202604 
L 589.97982 271.89552 
L 593.14837 282.091954 
L 596.316921 291.560666 
L 598.957379 298.832755 
L 601.597838 305.491944 
L 604.238296 311.493546 
L 606.350663 315.792725 
L 608.46303 319.62372 
L 610.575397 322.968227 
L 612.687764 325.809556 
L 614.272039 327.601281 
L 615.856314 329.095901 
L 617.44059 330.288412 
L 619.024865 331.174465 
L 620.60914 331.750576 
L 622.193415 332.01462 
L 623.77769 331.964888 
L 625.361966 331.600567 
L 626.946241 330.921804 
L 628.530516 329.929718 
L 630.114791 328.626408 
L 631.699066 327.014964 
L 633.283342 325.099478 
L 634.867617 322.885057 
L 636.979984 319.478025 
L 639.092351 315.566804 
L 641.204717 311.170589 
L 643.317084 306.311058 
L 645.957543 299.621907 
L 647.541818 295.300322 
L 647.541818 295.300322 
" style="fill:none;stroke:#1f77b4;stroke-linecap:square;stroke-width:2.275;"/>
   </g>
   <g id="line2d_14">
    <path clip-path="url(#pa832783229)" d="M 119.978182 432.783 
L 122.090549 432.641486 
L 124.202916 432.218073 
L 126.315283 431.516119 
L 128.427649 430.541093 
L 130.540016 429.300455 
L 132.652383 427.803446 
L 134.76475 426.060763 
L 137.405209 423.555077 
L 140.045667 420.709465 
L 142.686126 417.550762 
L 145.854676 413.384941 
L 149.023227 408.852519 
L 152.719869 403.160891 
L 156.944603 396.205034 
L 161.697428 387.910307 
L 167.506437 377.270801 
L 177.54018 358.276072 
L 184.405373 345.511657 
L 188.630106 338.071933 
L 192.326749 331.990707 
L 195.495299 327.188592 
L 198.135758 323.53029 
L 200.776216 320.22505 
L 203.416675 317.308928 
L 205.529042 315.276476 
L 207.641409 313.522936 
L 209.753776 312.059596 
L 211.866143 310.894317 
L 213.978509 310.031367 
L 216.090876 309.471371 
L 218.203243 309.21131 
L 220.31561 309.245289 
L 222.427977 309.567505 
L 224.540344 310.170063 
L 226.652711 311.043527 
L 228.765078 312.176906 
L 230.877445 313.557542 
L 232.989812 315.171028 
L 235.63027 317.492598 
L 238.270729 320.132546 
L 240.911188 323.064674 
L 244.079738 326.935609 
L 247.248288 331.157979 
L 250.94493 336.488823 
L 254.641572 342.215835 
L 258.866306 349.185971 
L 263.619132 357.485721 
L 269.428141 368.142023 
L 286.327076 399.5491 
L 290.023718 405.812759 
L 293.192269 410.816461 
L 296.360819 415.412706 
L 299.001278 418.890358 
L 301.641736 422.017131 
L 304.282195 424.769912 
L 306.394562 426.690523 
L 308.506929 428.353147 
L 310.619296 429.753231 
L 312.731663 430.887782 
L 314.844029 431.755657 
L 316.956396 432.357317 
L 319.068763 432.694486 
L 321.18113 432.769807 
L 323.293497 432.586564 
L 325.405864 432.148602 
L 327.518231 431.460149 
L 329.630598 430.525606 
L 331.742965 429.349312 
L 333.855332 427.935368 
L 335.967699 426.288205 
L 338.608157 423.907942 
L 341.248616 421.179088 
L 343.889075 418.111697 
L 346.529533 414.717235 
L 349.698084 410.232592 
L 352.866634 405.326956 
L 356.035184 400.036865 
L 359.731826 393.4425 
L 363.95656 385.463381 
L 370.293661 372.95088 
L 379.27122 355.228931 
L 383.495954 347.361601 
L 387.192596 340.919654 
L 390.361147 335.80174 
L 393.529697 331.107216 
L 396.170156 327.547737 
L 398.810614 324.326599 
L 401.451073 321.452989 
L 404.091532 318.929095 
L 406.73199 316.758448 
L 408.844357 315.276296 
L 410.956724 314.01941 
L 413.069091 312.986923 
L 415.181458 312.17775 
L 417.293825 311.590462 
L 419.406192 311.223705 
L 421.518559 311.080201 
L 423.630925 311.159804 
L 425.743292 311.462439 
L 427.855659 311.989266 
L 429.968026 312.742705 
L 432.080393 313.726412 
L 434.19276 314.94523 
L 436.305127 316.402736 
L 438.417494 318.098717 
L 440.529861 320.033415 
L 443.170319 322.784985 
L 445.810778 325.900461 
L 448.451237 329.369794 
L 451.091695 333.179581 
L 454.260246 338.165246 
L 457.428796 343.556468 
L 461.125438 350.27968 
L 465.878264 359.428338 
L 483.305291 393.525296 
L 487.001933 400.06388 
L 490.698575 406.143686 
L 493.867125 410.941053 
L 497.035676 415.322898 
L 499.676134 418.637876 
L 502.316593 421.632234 
L 504.957052 424.294257 
L 507.59751 426.613611 
L 509.709877 428.215882 
L 511.822244 429.58697 
L 513.934611 430.721157 
L 516.046978 431.612856 
L 518.159345 432.256439 
L 520.271712 432.646447 
L 522.384079 432.777782 
L 524.496446 432.645887 
L 526.608812 432.247094 
L 528.721179 431.578788 
L 530.833546 430.639634 
L 532.945913 429.429917 
L 535.05828 427.951891 
L 537.170647 426.21007 
L 539.283014 424.210855 
L 541.923473 421.363188 
L 544.563931 418.14845 
L 547.20439 414.5934 
L 550.37294 409.923419 
L 553.541491 404.871067 
L 557.238133 398.584225 
L 561.990958 390.051711 
L 570.440426 374.306603 
L 578.361802 359.716123 
L 583.642719 350.432084 
L 588.395545 342.529714 
L 592.620278 335.945126 
L 596.316921 330.581316 
L 599.485471 326.320074 
L 602.654021 322.411742 
L 605.29448 319.458485 
L 607.934939 316.811604 
L 610.575397 314.498036 
L 612.687764 312.905378 
L 614.800131 311.557567 
L 616.912498 310.469183 
L 619.024865 309.655321 
L 621.137232 309.129013 
L 623.249599 308.896691 
L 624.833874 308.92049 
L 626.418149 309.11679 
L 628.002424 309.486912 
L 630.114791 310.251144 
L 632.227158 311.322701 
L 634.339525 312.696511 
L 636.451892 314.364541 
L 638.564259 316.315612 
L 640.676626 318.53694 
L 643.317084 321.670281 
L 645.957543 325.166841 
L 647.541818 327.422264 
L 647.541818 327.422264 
" style="fill:none;stroke:#ff7f0e;stroke-linecap:square;stroke-width:2.275;"/>
   </g>
   <g id="line2d_15">
    <path clip-path="url(#pa832783229)" d="M 119.978182 432.783 
L 122.090549 432.641486 
L 124.202916 432.218073 
L 126.315283 431.516119 
L 128.427649 430.541093 
L 130.540016 429.300455 
L 132.652383 427.803446 
L 134.76475 426.060763 
L 137.405209 423.555077 
L 140.045667 420.709465 
L 142.686126 417.550762 
L 145.854676 413.384941 
L 149.023227 408.852519 
L 152.719869 403.160891 
L 156.944603 396.205034 
L 161.697428 387.910307 
L 167.506437 377.270801 
L 177.54018 358.276072 
L 184.405373 345.511657 
L 188.630106 338.071933 
L 192.326749 331.990707 
L 195.495299 327.188592 
L 198.135758 323.53029 
L 200.776216 320.22505 
L 203.416675 317.308928 
L 205.529042 315.276476 
L 207.641409 313.522936 
L 209.753776 312.059596 
L 211.866143 310.894317 
L 213.978509 310.031367 
L 216.090876 309.471371 
L 218.203243 309.21131 
L 220.31561 309.245289 
L 222.427977 309.567505 
L 224.540344 310.170063 
L 226.652711 311.043527 
L 228.765078 312.176906 
L 230.877445 313.557542 
L 232.989812 315.171028 
L 235.63027 317.492598 
L 238.270729 320.132546 
L 240.911188 323.064674 
L 244.079738 326.935609 
L 247.248288 331.157979 
L 250.94493 336.488823 
L 254.641572 342.215835 
L 258.866306 349.185971 
L 263.619132 357.485721 
L 269.428141 368.142023 
L 286.327076 399.5491 
L 290.023718 405.812759 
L 293.192269 410.816461 
L 296.360819 415.412706 
L 299.001278 418.890358 
L 301.641736 422.017131 
L 304.282195 424.769912 
L 306.394562 426.690523 
L 308.506929 428.353147 
L 310.619296 429.753231 
L 312.731663 430.887782 
L 314.844029 431.755657 
L 316.956396 432.357317 
L 319.068763 432.694486 
L 321.18113 432.769807 
L 323.293497 432.586564 
L 325.405864 432.148602 
L 327.518231 431.460149 
L 329.630598 430.525606 
L 331.742965 429.349312 
L 333.855332 427.935368 
L 335.967699 426.288205 
L 338.608157 423.907942 
L 341.248616 421.179088 
L 343.889075 418.111697 
L 346.529533 414.717235 
L 349.698084 410.232592 
L 352.866634 405.326956 
L 356.035184 400.036865 
L 359.731826 393.4425 
L 363.95656 385.463381 
L 370.293661 372.95088 
L 379.27122 355.228931 
L 383.495954 347.361601 
L 387.192596 340.919654 
L 390.361147 335.80174 
L 393.529697 331.107216 
L 396.170156 327.547737 
L 398.810614 324.326599 
L 401.451073 321.452989 
L 404.091532 318.929095 
L 406.73199 316.758448 
L 408.844357 315.276296 
L 410.956724 314.01941 
L 413.069091 312.986923 
L 415.181458 312.17775 
L 417.293825 311.590462 
L 419.406192 311.223705 
L 421.518559 311.080201 
L 423.630925 311.159804 
L 425.743292 311.462439 
L 427.855659 311.989266 
L 429.968026 312.742705 
L 432.080393 313.726412 
L 434.19276 314.94523 
L 436.305127 316.402736 
L 438.417494 318.098717 
L 440.529861 320.033415 
L 443.170319 322.784985 
L 445.810778 325.900461 
L 448.451237 329.369794 
L 451.091695 333.179581 
L 454.260246 338.165246 
L 457.428796 343.556468 
L 461.125438 350.27968 
L 465.878264 359.428338 
L 483.305291 393.525296 
L 487.001933 400.06388 
L 490.698575 406.143686 
L 493.867125 410.941053 
L 497.035676 415.322898 
L 499.676134 418.637876 
L 502.316593 421.632234 
L 504.957052 424.294257 
L 507.59751 426.613611 
L 509.709877 428.215882 
L 511.822244 429.58697 
L 513.934611 430.721157 
L 516.046978 431.612856 
L 518.159345 432.256439 
L 520.271712 432.646447 
L 522.384079 432.777782 
L 524.496446 432.645887 
L 526.608812 432.247094 
L 528.721179 431.578788 
L 530.833546 430.639634 
L 532.945913 429.429917 
L 535.05828 427.951891 
L 537.170647 426.21007 
L 539.283014 424.210855 
L 541.923473 421.363188 
L 544.563931 418.14845 
L 547.20439 414.5934 
L 550.37294 409.923419 
L 553.541491 404.871067 
L 557.238133 398.584225 
L 561.990958 390.051711 
L 570.440426 374.306603 
L 578.361802 359.716123 
L 583.642719 350.432084 
L 588.395545 342.529714 
L 592.620278 335.945126 
L 596.316921 330.581316 
L 599.485471 326.320074 
L 602.654021 322.411742 
L 605.29448 319.458485 
L 607.934939 316.811604 
L 610.575397 314.498036 
L 612.687764 312.905378 
L 614.800131 311.557567 
L 616.912498 310.469183 
L 619.024865 309.655321 
L 621.137232 309.129013 
L 623.249599 308.896691 
L 624.833874 308.92049 
L 626.418149 309.11679 
L 628.002424 309.486912 
L 630.114791 310.251144 
L 632.227158 311.322701 
L 634.339525 312.696511 
L 636.451892 314.364541 
L 638.564259 316.315612 
L 640.676626 318.53694 
L 643.317084 321.670281 
L 645.957543 325.166841 
L 647.541818 327.422264 
L 647.541818 327.422264 
" style="fill:none;stroke:#2ca02c;stroke-dasharray:8.4175,3.64;stroke-dashoffset:0;stroke-width:2.275;"/>
   </g>
   <g id="line2d_16">
    <path clip-path="url(#pa832783229)" d="M 119.978182 432.783 
L 134.236658 432.676141 
L 140.045667 432.402592 
L 145.326585 431.921613 
L 150.607502 431.197783 
L 156.944603 430.07475 
L 168.034529 428.054644 
L 172.787355 427.458882 
L 177.012088 427.159648 
L 181.236822 427.102371 
L 185.461556 427.276913 
L 191.270565 427.760899 
L 201.304308 428.621509 
L 205.529042 428.744563 
L 209.753776 428.635755 
L 213.978509 428.274371 
L 218.731335 427.609164 
L 235.102179 425.051983 
L 238.798821 424.837928 
L 242.495463 424.869961 
L 246.192105 425.158978 
L 249.888747 425.681861 
L 254.113481 426.503575 
L 259.92249 427.880192 
L 268.371957 429.884019 
L 273.124783 430.765706 
L 277.349517 431.334545 
L 281.574251 431.695141 
L 286.855168 431.89919 
L 294.248452 431.911063 
L 306.922654 431.924098 
L 324.877772 432.111283 
L 330.686781 431.882472 
L 337.023882 431.40656 
L 353.394726 430.030818 
L 358.675643 429.886864 
L 364.484652 429.948915 
L 379.799312 430.274334 
L 384.024046 430.058357 
L 388.24878 429.605823 
L 392.473514 428.921491 
L 397.226339 427.920061 
L 410.956724 424.82043 
L 414.653366 424.29383 
L 417.821916 424.037228 
L 420.990467 423.981041 
L 424.159017 424.124747 
L 427.327568 424.467804 
L 431.02421 425.087818 
L 436.305127 426.237565 
L 447.395053 428.737013 
L 451.619787 429.422141 
L 455.844521 429.866683 
L 460.069255 430.065233 
L 464.82208 430.041998 
L 472.743456 429.724612 
L 480.13674 429.510355 
L 485.417658 429.595439 
L 490.698575 429.916947 
L 497.563767 430.591441 
L 509.181785 431.770016 
L 514.990794 432.107741 
L 521.327895 432.235389 
L 530.305455 432.151307 
L 541.923473 432.090829 
L 555.125766 432.057872 
L 559.878591 431.808474 
L 564.103325 431.387857 
L 568.328059 430.756888 
L 573.080885 429.807721 
L 579.417985 428.286432 
L 587.339361 426.400629 
L 591.564095 425.620699 
L 595.260737 425.158295 
L 598.429287 424.962546 
L 602.12593 424.976239 
L 605.822572 425.226824 
L 610.047305 425.749353 
L 615.856314 426.738361 
L 623.249599 427.98329 
L 627.474333 428.477807 
L 631.170975 428.709156 
L 634.867617 428.735212 
L 639.092351 428.533317 
L 644.373268 428.022629 
L 647.541818 427.647959 
L 647.541818 427.647959 
" style="fill:none;stroke:#d62728;stroke-linecap:square;stroke-width:2.275;"/>
   </g>
   <g id="line2d_17">
    <path clip-path="url(#pa832783229)" d="M 119.978182 79.469751 
L 647.541818 79.44381 
L 647.541818 79.44381 
" style="fill:none;stroke:#9467bd;stroke-linecap:square;stroke-width:2.275;"/>
   </g>
   <g id="patch_3">
    <path d="M 93.6 450.45 
L 93.6 61.776 
" style="fill:none;stroke:#000000;stroke-linecap:square;stroke-linejoin:miter;stroke-width:0.8;"/>
   </g>
   <g id="patch_4">
    <path d="M 673.92 450.45 
L 673.92 61.776 
" style="fill:none;stroke:#000000;stroke-linecap:square;stroke-linejoin:miter;stroke-width:0.8;"/>
   </g>
   <g id="patch_5">
    <path d="M 93.6 450.45 
L 673.92 450.45 
" style="fill:none;stroke:#000000;stroke-linecap:square;stroke-linejoin:miter;stroke-width:0.8;"/>
   </g>
   <g id="patch_6">
    <path d="M 93.6 61.776 
L 673.92 61.776 
" style="fill:none;stroke:#000000;stroke-linecap:square;stroke-linejoin:miter;stroke-width:0.8;"/>
   </g>
   <g id="text_15">
    <!-- V=3 -->
    <defs>
     <path d="M 17.484375 67.671875 
L 39.015625 11.71875 
L 60.5 67.671875 
L 52.296875 67.671875 
L 52.296875 72.90625 
L 73.6875 72.90625 
L 73.6875 67.671875 
L 66.609375 67.671875 
L 40.578125 0 
L 32.171875 0 
L 6.296875 67.671875 
L -0.984375 67.671875 
L -0.984375 72.90625 
L 25.59375 72.90625 
L 25.59375 67.671875 
z
" id="DejaVuSerif-86"/>
     <path d="M 10.59375 45.21875 
L 73.1875 45.21875 
L 73.1875 37.40625 
L 10.59375 37.40625 
z
M 10.59375 25.296875 
L 73.1875 25.296875 
L 73.1875 17.484375 
L 10.59375 17.484375 
z
" id="DejaVuSerif-61"/>
     <path d="M 9.71875 69.828125 
Q 15.4375 71.96875 20.671875 73.09375 
Q 25.921875 74.21875 30.515625 74.21875 
Q 41.21875 74.21875 47.21875 69.59375 
Q 53.21875 64.984375 53.21875 56.78125 
Q 53.21875 50.203125 49.0625 45.78125 
Q 44.921875 41.359375 37.3125 39.796875 
Q 46.296875 38.53125 51.25 33.28125 
Q 56.203125 28.03125 56.203125 19.671875 
Q 56.203125 9.46875 49.34375 4.015625 
Q 42.484375 -1.421875 29.59375 -1.421875 
Q 23.875 -1.421875 18.421875 -0.1875 
Q 12.984375 1.03125 7.625 3.515625 
L 7.625 17.671875 
L 13.09375 17.671875 
Q 13.578125 10.640625 17.828125 7.03125 
Q 22.078125 3.421875 29.78125 3.421875 
Q 37.25 3.421875 41.578125 7.734375 
Q 45.90625 12.0625 45.90625 19.578125 
Q 45.90625 28.171875 41.453125 32.59375 
Q 37.015625 37.015625 28.421875 37.015625 
L 23.78125 37.015625 
L 23.78125 42 
L 26.21875 42 
Q 34.765625 42 39.03125 45.53125 
Q 43.3125 49.078125 43.3125 56.203125 
Q 43.3125 62.59375 39.796875 65.984375 
Q 36.28125 69.390625 29.6875 69.390625 
Q 23.09375 69.390625 19.453125 66.265625 
Q 15.828125 63.140625 15.1875 56.984375 
L 9.71875 56.984375 
z
" id="DejaVuSerif-51"/>
    </defs>
    <g style="opacity:0.75;" transform="translate(119.978182 256.126375)scale(0.18 -0.18)">
     <use xlink:href="#DejaVuSerif-86"/>
     <use x="72.216797" xlink:href="#DejaVuSerif-61"/>
     <use x="156.005859" xlink:href="#DejaVuSerif-51"/>
    </g>
   </g>
   <g id="legend_1">
    <g id="line2d_18">
     <path d="M 129.633359 22.4549 
L 155.633359 22.4549 
" style="fill:none;stroke:#1f77b4;stroke-linecap:square;stroke-width:2.275;"/>
    </g>
    <g id="line2d_19"/>
    <g id="text_16">
     <!-- $|c_{11}|^2$ -->
     <defs>
      <path d="M 21 76.421875 
L 21 -23.578125 
L 12.703125 -23.578125 
L 12.703125 76.421875 
z
" id="DejaVuSans-124"/>
      <path d="M 53.609375 52.59375 
L 51.8125 43.703125 
Q 48.578125 46.046875 44.9375 47.21875 
Q 41.3125 48.390625 37.40625 48.390625 
Q 33.109375 48.390625 29.21875 46.875 
Q 25.34375 45.359375 22.703125 42.578125 
Q 18.5 38.328125 16.203125 32.609375 
Q 13.921875 26.90625 13.921875 20.796875 
Q 13.921875 13.421875 17.609375 9.8125 
Q 21.296875 6.203125 28.8125 6.203125 
Q 32.515625 6.203125 36.6875 7.328125 
Q 40.875 8.453125 45.40625 10.6875 
L 43.703125 1.8125 
Q 39.796875 0.203125 35.671875 -0.609375 
Q 31.546875 -1.421875 27.203125 -1.421875 
Q 16.3125 -1.421875 10.453125 4.015625 
Q 4.59375 9.46875 4.59375 19.578125 
Q 4.59375 28.078125 7.640625 35.234375 
Q 10.6875 42.390625 16.703125 48.09375 
Q 20.796875 52 26.3125 54 
Q 31.84375 56 38.375 56 
Q 42.1875 56 45.9375 55.140625 
Q 49.703125 54.296875 53.609375 52.59375 
z
" id="DejaVuSans-Oblique-99"/>
      <path d="M 12.40625 8.296875 
L 28.515625 8.296875 
L 28.515625 63.921875 
L 10.984375 60.40625 
L 10.984375 69.390625 
L 28.421875 72.90625 
L 38.28125 72.90625 
L 38.28125 8.296875 
L 54.390625 8.296875 
L 54.390625 0 
L 12.40625 0 
z
" id="DejaVuSans-49"/>
      <path d="M 19.1875 8.296875 
L 53.609375 8.296875 
L 53.609375 0 
L 7.328125 0 
L 7.328125 8.296875 
Q 12.9375 14.109375 22.625 23.890625 
Q 32.328125 33.6875 34.8125 36.53125 
Q 39.546875 41.84375 41.421875 45.53125 
Q 43.3125 49.21875 43.3125 52.78125 
Q 43.3125 58.59375 39.234375 62.25 
Q 35.15625 65.921875 28.609375 65.921875 
Q 23.96875 65.921875 18.8125 64.3125 
Q 13.671875 62.703125 7.8125 59.421875 
L 7.8125 69.390625 
Q 13.765625 71.78125 18.9375 73 
Q 24.125 74.21875 28.421875 74.21875 
Q 39.75 74.21875 46.484375 68.546875 
Q 53.21875 62.890625 53.21875 53.421875 
Q 53.21875 48.921875 51.53125 44.890625 
Q 49.859375 40.875 45.40625 35.40625 
Q 44.1875 33.984375 37.640625 27.21875 
Q 31.109375 20.453125 19.1875 8.296875 
z
" id="DejaVuSans-50"/>
     </defs>
     <g transform="translate(166.033359 27.0049)scale(0.13 -0.13)">
      <use transform="translate(0 0.765625)" xlink:href="#DejaVuSans-124"/>
      <use transform="translate(33.691406 0.765625)" xlink:href="#DejaVuSans-Oblique-99"/>
      <use transform="translate(88.671875 -15.640625)scale(0.7)" xlink:href="#DejaVuSans-49"/>
      <use transform="translate(133.208008 -15.640625)scale(0.7)" xlink:href="#DejaVuSans-49"/>
      <use transform="translate(180.478516 0.765625)" xlink:href="#DejaVuSans-124"/>
      <use transform="translate(215.126953 39.046875)scale(0.7)" xlink:href="#DejaVuSans-50"/>
     </g>
    </g>
    <g id="line2d_20">
     <path d="M 226.223359 22.4549 
L 252.223359 22.4549 
" style="fill:none;stroke:#ff7f0e;stroke-linecap:square;stroke-width:2.275;"/>
    </g>
    <g id="line2d_21"/>
    <g id="text_17">
     <!-- $|c_{1r}|^2$ -->
     <defs>
      <path d="M 44.578125 46.390625 
Q 43.21875 47.125 41.453125 47.515625 
Q 39.703125 47.90625 37.703125 47.90625 
Q 30.515625 47.90625 25.140625 42.453125 
Q 19.78125 37.015625 18.015625 27.875 
L 12.5 0 
L 3.515625 0 
L 14.203125 54.6875 
L 23.1875 54.6875 
L 21.484375 46.1875 
Q 25.046875 50.921875 30 53.453125 
Q 34.96875 56 40.578125 56 
Q 42.046875 56 43.453125 55.828125 
Q 44.875 55.671875 46.296875 55.28125 
z
" id="DejaVuSans-Oblique-114"/>
     </defs>
     <g transform="translate(262.623359 27.0049)scale(0.13 -0.13)">
      <use transform="translate(0 0.765625)" xlink:href="#DejaVuSans-124"/>
      <use transform="translate(33.691406 0.765625)" xlink:href="#DejaVuSans-Oblique-99"/>
      <use transform="translate(88.671875 -15.640625)scale(0.7)" xlink:href="#DejaVuSans-49"/>
      <use transform="translate(133.208008 -15.640625)scale(0.7)" xlink:href="#DejaVuSans-Oblique-114"/>
      <use transform="translate(164.72168 0.765625)" xlink:href="#DejaVuSans-124"/>
      <use transform="translate(199.370117 39.046875)scale(0.7)" xlink:href="#DejaVuSans-50"/>
     </g>
    </g>
    <g id="line2d_22">
     <path d="M 320.733359 22.4549 
L 346.733359 22.4549 
" style="fill:none;stroke:#2ca02c;stroke-dasharray:8.4175,3.64;stroke-dashoffset:0;stroke-width:2.275;"/>
    </g>
    <g id="line2d_23"/>
    <g id="text_18">
     <!-- $|c_{r1}|^2$ -->
     <g transform="translate(357.133359 27.0049)scale(0.13 -0.13)">
      <use transform="translate(0 0.765625)" xlink:href="#DejaVuSans-124"/>
      <use transform="translate(33.691406 0.765625)" xlink:href="#DejaVuSans-Oblique-99"/>
      <use transform="translate(88.671875 -15.640625)scale(0.7)" xlink:href="#DejaVuSans-Oblique-114"/>
      <use transform="translate(117.451172 -15.640625)scale(0.7)" xlink:href="#DejaVuSans-49"/>
      <use transform="translate(164.72168 0.765625)" xlink:href="#DejaVuSans-124"/>
      <use transform="translate(199.370117 39.046875)scale(0.7)" xlink:href="#DejaVuSans-50"/>
     </g>
    </g>
    <g id="line2d_24">
     <path d="M 415.243359 22.4549 
L 441.243359 22.4549 
" style="fill:none;stroke:#d62728;stroke-linecap:square;stroke-width:2.275;"/>
    </g>
    <g id="line2d_25"/>
    <g id="text_19">
     <!-- $|c_{rr}|^2$ -->
     <g transform="translate(451.643359 27.0049)scale(0.13 -0.13)">
      <use transform="translate(0 0.765625)" xlink:href="#DejaVuSans-124"/>
      <use transform="translate(33.691406 0.765625)" xlink:href="#DejaVuSans-Oblique-99"/>
      <use transform="translate(88.671875 -15.640625)scale(0.7)" xlink:href="#DejaVuSans-Oblique-114"/>
      <use transform="translate(117.451172 -15.640625)scale(0.7)" xlink:href="#DejaVuSans-Oblique-114"/>
      <use transform="translate(148.964844 0.765625)" xlink:href="#DejaVuSans-124"/>
      <use transform="translate(183.613281 39.046875)scale(0.7)" xlink:href="#DejaVuSans-50"/>
     </g>
    </g>
    <g id="line2d_26">
     <path d="M 507.673359 22.4549 
L 533.673359 22.4549 
" style="fill:none;stroke:#9467bd;stroke-linecap:square;stroke-width:2.275;"/>
    </g>
    <g id="line2d_27"/>
    <g id="text_20">
     <!-- Normalisation -->
     <defs>
      <path d="M 4.890625 0 
L 4.890625 5.171875 
L 14.703125 5.171875 
L 14.703125 67.671875 
L 4.890625 67.671875 
L 4.890625 72.90625 
L 23.578125 72.90625 
L 67.28125 15.375 
L 67.28125 67.671875 
L 57.515625 67.671875 
L 57.515625 72.90625 
L 83.109375 72.90625 
L 83.109375 67.671875 
L 73.296875 67.671875 
L 73.296875 -1.421875 
L 67.390625 -1.421875 
L 20.703125 60.015625 
L 20.703125 5.171875 
L 30.515625 5.171875 
L 30.515625 0 
z
" id="DejaVuSerif-78"/>
      <path d="M 5.609375 2.875 
L 5.609375 14.984375 
L 10.796875 14.984375 
Q 10.984375 9.1875 14.421875 6.296875 
Q 17.875 3.421875 24.609375 3.421875 
Q 30.671875 3.421875 33.84375 5.6875 
Q 37.015625 7.953125 37.015625 12.3125 
Q 37.015625 15.71875 34.6875 17.8125 
Q 32.375 19.921875 24.90625 22.3125 
L 18.40625 24.515625 
Q 11.71875 26.65625 8.71875 29.875 
Q 5.71875 33.109375 5.71875 38.09375 
Q 5.71875 45.21875 10.9375 49.265625 
Q 16.15625 53.328125 25.390625 53.328125 
Q 29.5 53.328125 34.03125 52.25 
Q 38.578125 51.171875 43.40625 49.125 
L 43.40625 37.796875 
L 38.234375 37.796875 
Q 38.03125 42.828125 34.703125 45.65625 
Q 31.390625 48.484375 25.6875 48.484375 
Q 20.015625 48.484375 17.109375 46.484375 
Q 14.203125 44.484375 14.203125 40.484375 
Q 14.203125 37.203125 16.40625 35.21875 
Q 18.609375 33.25 25.203125 31.203125 
L 32.328125 29 
Q 39.703125 26.703125 42.9375 23.265625 
Q 46.1875 19.828125 46.1875 14.40625 
Q 46.1875 7.03125 40.546875 2.796875 
Q 34.90625 -1.421875 25 -1.421875 
Q 19.96875 -1.421875 15.1875 -0.34375 
Q 10.40625 0.734375 5.609375 2.875 
z
" id="DejaVuSerif-115"/>
      <path d="M 4.109375 0 
L 4.109375 5.171875 
L 12.203125 5.171875 
L 12.203125 46.6875 
L 3.609375 46.6875 
L 3.609375 51.90625 
L 21.1875 51.90625 
L 21.1875 42.671875 
Q 23.6875 47.953125 27.65625 50.640625 
Q 31.640625 53.328125 36.921875 53.328125 
Q 45.515625 53.328125 49.5625 48.390625 
Q 53.609375 43.453125 53.609375 33.015625 
L 53.609375 5.171875 
L 61.625 5.171875 
L 61.625 0 
L 36.8125 0 
L 36.8125 5.171875 
L 44.578125 5.171875 
L 44.578125 30.171875 
Q 44.578125 39.703125 42.234375 43.234375 
Q 39.890625 46.78125 33.984375 46.78125 
Q 27.734375 46.78125 24.453125 42.203125 
Q 21.1875 37.640625 21.1875 28.90625 
L 21.1875 5.171875 
L 29 5.171875 
L 29 0 
z
" id="DejaVuSerif-110"/>
     </defs>
     <g transform="translate(544.073359 27.0049)scale(0.13 -0.13)">
      <use xlink:href="#DejaVuSerif-78"/>
      <use x="87.5" xlink:href="#DejaVuSerif-111"/>
      <use x="147.705078" xlink:href="#DejaVuSerif-114"/>
      <use x="195.507812" xlink:href="#DejaVuSerif-109"/>
      <use x="290.332031" xlink:href="#DejaVuSerif-97"/>
      <use x="349.951172" xlink:href="#DejaVuSerif-108"/>
      <use x="381.933594" xlink:href="#DejaVuSerif-105"/>
      <use x="413.916016" xlink:href="#DejaVuSerif-115"/>
      <use x="465.234375" xlink:href="#DejaVuSerif-97"/>
      <use x="524.853516" xlink:href="#DejaVuSerif-116"/>
      <use x="565.039062" xlink:href="#DejaVuSerif-105"/>
      <use x="597.021484" xlink:href="#DejaVuSerif-111"/>
      <use x="657.226562" xlink:href="#DejaVuSerif-110"/>
     </g>
    </g>
   </g>
  </g>
 </g>
 <defs>
  <clipPath id="pa832783229">
   <rect height="388.674" width="580.32" x="93.6" y="61.776"/>
  </clipPath>
 </defs>
</svg>
